<?xml version="1.0" standalone="no"?>
<!DOCTYPE svg PUBLIC "-//W3C//DTD SVG 1.1//EN" "http://www.w3.org/Graphics/SVG/1.1/DTD/svg11.dtd" >
<svg>
<metadata>
Created by FontForge 20120731 at Sat Jun 29 22:07:17 2019
 By www
Copyright 2006 Chank Co. All rights reserved. Do not redistribute or alter this font without permission.
</metadata>
<defs>
<font id="ChaloopsW00-Reg" horiz-adv-x="439" >
  <font-face 
    font-family="ChaloopsW00-Reg"
    font-weight="400"
    font-stretch="normal"
    units-per-em="1000"
    panose-1="2 0 5 6 3 0 0 2 0 4"
    ascent="750"
    descent="-250"
    x-height="474"
    cap-height="652"
    bbox="-164 -462 1014 1159"
    underline-thickness="20"
    underline-position="-133"
    unicode-range="U+0020-FB02"
  />
<missing-glyph horiz-adv-x="558" 
d="M472 67v589l-178 -294zM78 659v-594l180 297zM276 392l180 297h-360zM94 33h363l-181 300zM504 0h-456v722h456v-722z" />
    <glyph glyph-name=".notdef" horiz-adv-x="558" 
d="M472 67v589l-178 -294zM78 659v-594l180 297zM276 392l180 297h-360zM94 33h363l-181 300zM504 0h-456v722h456v-722z" />
    <glyph glyph-name="glyph1" horiz-adv-x="0" 
 />
    <glyph glyph-name="glyph2" horiz-adv-x="259" 
 />
    <glyph glyph-name="space" unicode=" " horiz-adv-x="259" 
 />
    <glyph glyph-name="exclam" unicode="!" horiz-adv-x="268" 
d="M148 54q0 -23 -15.5 -44t-43.5 -21q-27 0 -42 18t-15 42q0 25 16.5 43.5t44.5 18.5q22 0 38.5 -16.5t16.5 -40.5zM199 743q-5 -53 -9 -99q-2 -20 -4 -39.5t-3.5 -37t-2.5 -30.5t-2 -20q-2 -14 -5 -33.5t-6 -41t-5.5 -44.5t-5.5 -43q-2 -20 -6 -50t-7 -57l-8 -66l-66 4
q6 73 10 133q2 25 3.5 50.5t3 46.5t2 36.5t0.5 20.5t0.5 20t1.5 36.5t2 46.5t3 51q4 60 8 133z" />
    <glyph glyph-name="quotedbl" unicode="&#x22;" horiz-adv-x="303" 
d="M46 524q-1 12 -3 26q-2 12 -3.5 28t-3.5 33q-2 18 -3 44.5t-2 50.5q-1 28 -1 59l74 1q0 -30 1 -57q1 -23 1.5 -48.5t2.5 -42.5q2 -19 3 -35.5t2 -29.5q1 -15 1 -29h-69zM182 508q-3 21 -5 40q-2 17 -3.5 35.5t-1.5 32.5q0 13 -1 37.5t-3 49.5q-2 29 -4 62l76 4
q1 -34 2 -64q1 -26 1.5 -51t0.5 -39q0 -12 0.5 -28.5t2.5 -31.5l4 -36z" />
    <glyph glyph-name="numbersign" unicode="#" horiz-adv-x="586" 
d="M317 427q-17 -1 -41 -4t-51 -6q0 -35 0.5 -68t1.5 -59q24 2 44 4.5t31 4.5q8 1 17.5 2t20.5 2q2 19 2.5 53t2.5 74zM523 445q-14 -1 -32 -3q-15 -2 -34.5 -3t-40.5 -3l-5 -128q19 1 35.5 2t30.5 2q15 1 29 1l-9 -64q-13 -1 -27 -2q-12 -1 -28.5 -2t-33.5 -2
q-1 -29 -1 -61v-59v-62l-67 -19q-1 33 -1 66q0 29 -0.5 62.5t0.5 65.5l-29 -3l-80 -10q2 -36 3 -73.5t3 -69.5q2 -37 4 -71l-67 -1q-2 34 -4 70q-2 31 -3 67t-3 71q-23 -3 -44.5 -5.5t-38.5 -4.5q-19 -3 -36 -4l-1 70q17 1 36 3q17 2 37.5 4t43.5 4l-3 124q-20 -3 -37.5 -6
t-30.5 -5q-15 -3 -28 -4l-11 66q14 1 32 4q14 2 33.5 4.5t41.5 5.5q-1 26 -1 48.5v39.5v37l71 1q-1 -16 -1 -34v-83q26 3 50 5.5t41 4.5l29 2q1 27 1 52t1 44q0 22 1 41l74 8q0 -20 -1 -42q-1 -20 -2 -44.5t-2 -52.5l95 8z" />
    <glyph glyph-name="dollar" unicode="$" horiz-adv-x="436" 
d="M338 177q2 48 -18 70.5t-51 31.5l13 -184q24 11 39 33t17 49zM204 360q-3 46 -6 81t-5 54l-7 73q-40 -16 -62.5 -52t-25.5 -90q-2 -29 7.5 -43t25 -19.5t35 -5t38.5 1.5zM341 507q-6 10 -14 22t-18 23.5t-21.5 19t-23.5 8.5h-16q2 -19 2.5 -36.5t2.5 -31.5l11 -157
q61 -14 96.5 -61.5t31.5 -114.5q-1 -24 -9 -48.5t-22 -45t-33 -36.5t-42 -24l20 -292l-57 -3q-2 39 -6 86q-3 40 -6.5 92t-7.5 111q-21 2 -44.5 10.5t-46.5 19.5t-44 24t-38 24l31 51q12 -6 29 -15t36 -17.5t38 -16t34 -10.5l-14 198q-15 2 -29.5 2t-28.5 1q-59 3 -90 39
t-28 94q1 32 13 63.5t31 59t45 50t56 36.5l-30 296q23 5 39.5 8.5t35.5 1.5q2 -45 6 -94q3 -42 6 -93.5t7 -102.5q6 1 12 1h12q24 -2 45 -12t38.5 -26t30 -36.5t18.5 -42.5z" />
    <glyph glyph-name="percent" unicode="%" horiz-adv-x="677" 
d="M199 491q0 9 -11 13q-19 8 -40 2.5t-33 -22.5q-4 -5 -7 -14.5t-4.5 -20t-1 -21t3.5 -17.5q12 -6 30.5 -4t29.5 7q5 3 11.5 10t12 17.5t8.5 23t1 26.5zM560 261q-2 11 -11 24t-24 11q-11 -2 -20 -9t-16 -16t-11 -17.5t-4 -12.5q5 -8 14 -15t17 -11q5 -2 21 0t25 4
q3 7 6.5 21.5t2.5 20.5zM211 568q36 -14 49.5 -44t9 -64t-24 -64.5t-49.5 -44.5q-11 -5 -31.5 -9.5t-43 -3t-43.5 11t-33 32.5q-8 17 -10.5 37t0 40t9 37.5t15.5 29.5q13 17 31 28.5t38 17t41.5 4.5t41.5 -8zM561 607q-48 -65 -91 -125q-18 -26 -37 -53t-36.5 -52.5
t-33 -48.5t-25.5 -40q-11 -18 -25 -40t-30 -47t-32.5 -50.5t-32.5 -49.5q-37 -56 -78 -116l-57 39q40 60 77 115q16 24 32.5 49t32 49.5t29.5 46.5t25 40q10 17 25.5 40.5t33.5 49.5t37 53.5t38 53.5q44 61 93 127zM629 270q1 -8 -1 -23t-6.5 -32t-12 -32t-19.5 -22
q-7 -4 -20.5 -8t-30 -6t-33 -1.5t-29.5 6.5q-8 3 -20 11t-23.5 19.5t-20 26t-8.5 31.5q0 12 7 32t21 39.5t35 34.5t49 18q31 3 52.5 -8.5t34 -28t18.5 -33.5t7 -24z" />
    <glyph glyph-name="ampersand" unicode="&#x26;" horiz-adv-x="600" 
d="M190 479q9 -15 18.5 -29.5t19.5 -28.5q32 23 54 54t22 79q0 14 -0.5 26t-0.5 20q0 14 -7.5 25t-18 18.5t-22 12t-20.5 4.5q-31 -6 -50 -32t-19 -54q0 -11 3 -25t6.5 -28t7.5 -25.5t7 -16.5zM235 41q45 0 81 27.5t64 65.5q-44 51 -89.5 105t-83.5 102q-24 -15 -44.5 -30
t-32.5 -32q-13 -18 -21 -49.5t-8 -55.5t7 -47.5t23 -42.5t41.5 -31t62.5 -12zM509 -2q-15 13 -36 35t-47 49q-38 -41 -85 -70t-104 -29q-52 0 -89 7.5t-59 27.5q-15 14 -26 33.5t-17.5 41t-10 44.5t-3.5 44q0 32 10 64.5t24 56.5q16 26 39 45t63 39q1 0 2 1q-17 21 -29 37
t-18 27q-6 10 -11 24t-9 29.5t-6 30.5t-2 27q0 20 3 41t7 41q4 15 18.5 30.5t35 28t44.5 20t46 7.5q29 0 53.5 -8t40.5 -28q17 -22 24 -54.5t7 -70.5q0 -29 -5 -55.5t-15 -44.5q-17 -31 -41.5 -53.5t-51.5 -40.5q38 -50 77.5 -95t79.5 -86q11 21 20 40.5t15 34.5q7 18 12 32
q24 -7 42 -13q16 -5 28.5 -9.5t12.5 -3.5q-9 -19 -20 -41q-10 -19 -23.5 -43t-31.5 -50q27 -26 52 -48t48 -39z" />
    <glyph glyph-name="quotesingle" unicode="'" horiz-adv-x="168" 
d="M125 688q-1 -31 -2 -58q-1 -23 -2 -46.5t-1 -35.5q-1 -14 -1.5 -39.5t-1.5 -51.5q-1 -30 -1 -63l-65 -4q-2 36 -4 69q-2 28 -2.5 54.5t0.5 39.5q1 11 0.5 34t-0.5 46q-1 26 -1 57z" />
    <glyph glyph-name="parenleft" unicode="(" horiz-adv-x="278" 
d="M209 -72q-80 100 -126.5 215t-46.5 243q0 69 11 128.5t29.5 115.5t43 112t51.5 116l63 -28q-17 -39 -38.5 -75t-33.5 -77q-20 -67 -38.5 -136.5t-18.5 -139.5q0 -118 42 -228.5t116 -201.5z" />
    <glyph glyph-name="parenright" unicode=")" horiz-adv-x="299" 
d="M251 368q2 -128 -42.5 -244t-122.5 -216l-54 42q72 93 112 204t38 229q-1 35 -7 70t-15 69.5t-19.5 68.5t-20.5 67q-13 41 -35 76.5t-40 73.5l63 29q28 -60 53.5 -115t45 -110.5t31.5 -115t13 -128.5z" />
    <glyph glyph-name="asterisk" unicode="*" horiz-adv-x="535" 
d="M490 471q-30 -3 -60 -7q-26 -3 -55.5 -7.5t-55.5 -8.5q19 -15 41 -30.5t42.5 -30t37.5 -25.5t26 -16l-35 -60q-33 20 -68.5 48t-72.5 62q-1 -16 1 -31t5 -28.5t5.5 -25t3.5 -19.5q2 -13 8.5 -39t13.5 -52.5t13 -46.5t6 -21l-67 -19q-3 9 -6 20q-3 9 -6 21.5t-7 26.5
q-8 29 -14.5 58t-8.5 44q-1 5 -2.5 16.5t-3 25t-2 26.5t-0.5 22q-12 -22 -24 -46t-22 -45q-11 -25 -23 -49l-58 37q18 25 36 51q16 23 34.5 50.5t35.5 53.5q-27 -5 -56 -9.5t-54 -9.5q-29 -5 -56 -10l-8 68q29 2 58 5q25 2 54 4.5t55 6.5q-41 40 -81.5 78.5t-78.5 70.5
l49 49q21 -22 42 -45q18 -20 40 -43.5t42 -45.5q-4 35 -8.5 76.5t-8.5 76.5q-4 41 -9 82l68 8q5 -39 9 -79q4 -34 8.5 -74t8.5 -75q17 32 35.5 66t34.5 63q18 33 37 67l59 -36q-29 -40 -55 -80q-23 -34 -47.5 -72t-41.5 -67q26 5 56.5 12t56.5 13q31 7 61 13z" />
    <glyph glyph-name="plus" unicode="+" horiz-adv-x="456" 
d="M398 278q-24 2 -49 4q-21 2 -46.5 3t-48.5 2q-1 -26 -2 -57t-2 -57l-2 -62l-69 3q1 30 2 61q1 26 2 56t2 56q-20 -1 -44.5 -1.5t-46.5 -0.5h-52v69h53q23 0 47 0.5t44 1.5q0 24 0.5 55t1.5 59l2 66l69 -1l-2 -66q-1 -28 -1.5 -58.5t-0.5 -54.5q23 -1 49.5 -2t48.5 -3
q26 -2 50 -4z" />
    <glyph glyph-name="comma" unicode="," horiz-adv-x="251" 
d="M175 43q0 -64 -21 -107t-79 -73l-28 43q11 5 24 16t24 25t18.5 29t7.5 29q0 11 -1.5 21.5t-5.5 20.5l-15 -1q-26 -2 -40 12.5t-14 37.5t13 40t38 17q24 0 39.5 -9t24.5 -24t12 -35t3 -42z" />
    <glyph glyph-name="hyphen" unicode="-" horiz-adv-x="407" 
d="M357 269q-27 -3 -69.5 -4.5t-89 -3t-90 -3t-70.5 -4.5l-6 69q27 3 70 4.5t89.5 3t89.5 3t69 4.5z" />
    <glyph glyph-name="period" unicode="." horiz-adv-x="229" 
d="M163 90q0 -25 -17 -46.5t-48 -21.5q-30 0 -46 18.5t-16 44.5q0 25 18 44t48 19q24 0 42.5 -16.5t18.5 -41.5z" />
    <glyph glyph-name="slash" unicode="/" horiz-adv-x="487" 
d="M459 798q-33 -77 -64 -147q-13 -30 -27 -62t-27 -62t-24.5 -57.5t-20.5 -48.5t-23.5 -54t-33 -72t-39 -82t-40.5 -85q-48 -98 -102 -209l-62 31q54 109 101 206q20 41 40.5 84t38.5 82t32.5 71.5t23.5 53.5t20.5 49.5t24.5 61t27 66.5t27 67q31 77 65 159q23 -6 36 -16.5
t27 -35.5z" />
    <glyph glyph-name="zero" unicode="0" horiz-adv-x="595" 
d="M469 282q0 22 -13 55.5t-32 68t-39.5 65t-36.5 45.5q-16 14 -31 22t-32 8q-25 0 -40.5 -1.5t-26 -5t-18.5 -10t-18 -15.5q-8 -8 -18.5 -26t-20 -42.5t-17.5 -53t-12 -57.5q-3 -27 -2 -55t5 -52t9 -41t9 -23q5 -7 11 -14.5t17.5 -15t32 -15.5t53.5 -17q30 -8 55 -8.5
t45.5 4.5t36 15t26.5 22q26 28 41.5 70t15.5 77zM538 282q0 -65 -23.5 -119t-64.5 -90t-97 -49t-121 4q-70 19 -111.5 46.5t-52.5 56.5q-11 28 -17 65t-6 78.5t5.5 84t16.5 81.5t28 71.5t40 53.5q16 15 30.5 24.5t31 15.5t37.5 8t51 2q35 0 63.5 -14.5t48.5 -34.5
q21 -20 46 -56t46 -77t35 -81.5t14 -69.5z" />
    <glyph glyph-name="one" unicode="1" horiz-adv-x="412" 
d="M78 4l-2 69l106 4q-1 20 -2 47t-2 54.5t-1 52v39.5q2 72 6 137t4 138q-28 -26 -52 -53t-50 -56l-42 51q15 14 29 27q12 11 24 23.5t20 22.5q23 29 43.5 54.5t47.5 55.5q11 4 25.5 2t23.5 -4q1 -37 1 -72v-63t-2 -59q-5 -94 -6.5 -197t2.5 -197l102 4l2 -69z" />
    <glyph glyph-name="two" unicode="2" horiz-adv-x="520" 
d="M471 55q-3 0 -6 1t-6 1t-8 1q-32 3 -81 -5.5t-102.5 -22t-104.5 -28t-87 -24.5l-46 55q32 36 60 69q24 27 47 54t34 39q27 32 57.5 70.5t55.5 83.5q21 38 34 80t15 80q1 13 -5.5 24.5t-17 21.5t-25 17.5t-30.5 11.5q-29 8 -57 4.5t-43 -14.5q-8 -6 -20 -19t-22.5 -26.5
t-18.5 -24t-9 -11.5l-56 40q5 6 9 12q7 10 21 27q20 26 38 43t36 28q26 14 55.5 17.5t73.5 0.5q28 -2 54 -15.5t46 -34.5t31 -48.5t9 -57.5q-2 -46 -17.5 -90.5t-39.5 -88.5q-23 -43 -51.5 -83t-59.5 -78q-20 -26 -40 -49t-39 -45q21 5 48.5 11.5t56.5 16.5q32 11 64.5 23
t65.5 17q27 5 52 5.5t46 -4.5z" />
    <glyph glyph-name="three" unicode="3" horiz-adv-x="542" 
d="M501 51q-23 -61 -77 -96t-119 -44.5t-131.5 5t-113.5 53.5q-13 11 -25.5 22.5t-23.5 24.5l53 45q0 -1 2 -3t3.5 -4t4.5 -4q22 -22 52 -44t60 -26q29 -4 66.5 -3t74 10.5t66.5 30.5t43 57q15 39 15.5 68.5t-6 50.5t-18 35t-20.5 23q-10 6 -33 9.5t-48.5 4.5t-49 0.5
t-33.5 -0.5l-20 39q19 24 35 45q14 18 27 36t20 28q3 4 9.5 12.5t13 18.5t12 19.5t7.5 17.5q-64 4 -127.5 4.5t-128.5 0.5v69h69q28 0 56 -0.5t43 -0.5q15 -1 44.5 -2t58.5 -3q34 -2 72 -4l25 -50q-39 -38 -73 -76t-63 -85q14 0 33 -1.5t38 -5.5t35.5 -10.5t27.5 -16.5
q12 -13 28 -33.5t26 -51t10 -71.5t-20 -94z" />
    <glyph glyph-name="four" unicode="4" horiz-adv-x="417" 
d="M368 279q-7 1 -15 1h-34q-1 -45 -2 -89t-3 -89q-1 -20 -1.5 -44t-1.5 -45q-1 -25 -2 -49l-69 2l2 50q1 21 1.5 45t1.5 44q1 15 1.5 35.5t1 43.5t1.5 47.5t2 45.5q-22 0 -40.5 1.5t-37.5 4t-39.5 5t-45.5 5.5q-2 0 -8 0.5t-12.5 1t-12.5 1t-7 0.5q-7 15 -13 27t-12 29
q7 25 14 49q6 20 11.5 40.5t9.5 32.5q5 18 10.5 42.5t12 50t13 49.5t14.5 41q2 5 4.5 12.5t5.5 15.5q4 9 7 20l22 -2q21 -2 42 -8q-3 -15 -7 -28q-3 -11 -6 -22.5t-5 -16.5q-6 -13 -12.5 -36t-13 -48.5t-12 -49.5t-9.5 -39q-2 -8 -4.5 -20.5t-6 -26t-8 -26t-10.5 -21.5l9 -1
q37 -3 71.5 -8t80.5 -5q3 45 3 85.5v81.5t2.5 85t11.5 95l35 -5t33 -6q-3 -23 -7 -47q-3 -20 -5.5 -43.5t-3.5 -43.5q-2 -50 -3 -99t-2 -100q9 1 17.5 2.5t15.5 2.5q8 1 15 2v-78z" />
    <glyph glyph-name="five" unicode="5" horiz-adv-x="476" 
d="M418 140q-4 -36 -12 -71t-21 -65.5t-30 -55.5t-38 -41q-33 -25 -75 -33.5t-85 -3.5t-84 22t-71 44l49 55q3 -3 7 -6q7 -5 17 -11q19 -13 45 -21t53.5 -10t53.5 3.5t45 19.5q10 8 22.5 23.5t24.5 37.5t21 48.5t14 56.5q5 33 4 61t-6 49.5t-12.5 36t-14.5 22.5
q-16 16 -51 24.5t-75 11t-78.5 1.5t-60.5 -4q-2 26 -4 49q-2 20 -4.5 40t-4.5 32q-5 30 -8.5 65t1.5 67h9.5h20t22 0.5t15.5 1.5q54 8 107.5 13.5t108.5 19.5l19 -72q-20 -5 -40 -9q-17 -4 -36.5 -7.5t-35.5 -5.5q-31 -3 -62 -7t-62 -6q-1 -19 -0.5 -31.5t2 -24t4.5 -25
t7 -34.5q71 6 128 3t96 -26q42 -25 63.5 -85t11.5 -152z" />
    <glyph glyph-name="six" unicode="6" horiz-adv-x="397" 
d="M297 244q0 14 -5.5 25.5t-21.5 11.5q-19 0 -38.5 -13.5t-35.5 -33t-26 -41.5t-10 -40q0 -4 1 -8l2 -8q11 -6 23 -10.5t26 -4.5q19 0 35 13t27 31.5t17 39.5t6 38zM355 236q0 -31 -11 -63.5t-30.5 -59t-47 -43.5t-61.5 -17q-41 0 -74 18.5t-56 48.5t-35.5 67t-12.5 75
q0 44 12.5 97.5t34 107t50 100.5t60.5 78l44 -62q-27 -26 -51.5 -64t-44 -81t-31 -86.5t-11.5 -80.5q0 -22 4 -43t15 -40q7 25 20 52.5t32 50t43 37t54 14.5q48 0 72.5 -30.5t24.5 -75.5z" />
    <glyph glyph-name="seven" unicode="7" horiz-adv-x="488" 
d="M404 604q-7 -11 -13 -27q-12 -26 -27 -77q-17 -56 -29 -105t-26 -100l-6 -27q28 -2 54.5 -2.5t48.5 -1.5l-2 -69l-120 5q-15 -56 -32 -117t-31 -112q-17 -60 -33 -118l-75 10q19 57 37 116q16 51 34.5 110.5t34.5 113.5l-71 3l3 69l87 -4l6 22q9 36 20.5 76t22.5 79
t21.5 75t18.5 65l-66 8l-225 8l12 73l72 -1l271 -23z" />
    <glyph glyph-name="eight" unicode="8" horiz-adv-x="511" 
d="M402 310q-2 8 -16 26.5t-44 38.5q-25 16 -45.5 20t-38.5 -0.5t-36 -16t-38 -25.5q-18 -12 -35.5 -28t-31 -32.5t-21.5 -33t-8 -30.5l2 -22t1 -23q0 -15 12.5 -43.5t41.5 -53.5q9 -8 31.5 -10.5t52 1.5t62 15.5t62.5 32.5q22 16 33.5 44t15.5 56.5t3 52t-3 31.5zM279 616
q0 6 -5.5 11.5t-12 10.5t-14 9t-12.5 6q-4 2 -8.5 4t-18.5 12q-13 14 -28 13.5t-29 -9t-26 -22.5t-18 -26q-8 -15 -16 -34t-11 -39t0.5 -39t18.5 -35q8 -8 31.5 -16.5t52.5 -10.5q11 -1 23.5 4.5t23.5 14.5t21 19t16 18q7 8 10 22.5t4 30t0 31t-2 25.5zM464 335
q2 -9 3.5 -41t-5.5 -72t-25 -80t-54 -66q-29 -20 -67.5 -37t-77.5 -25t-75.5 -4t-61.5 25q-40 34 -58.5 74.5t-18.5 72.5q0 13 -1 25t-1 24t2 24.5t9 24.5q17 31 52 61.5t64 55.5q-33 5 -58 20t-38 29q-24 25 -33 51.5t-8 53.5t10.5 54t23.5 53q15 28 40 51.5t54 34t59.5 6
t57.5 -31.5l5 -2q31 -13 50 -30t28 -38t10.5 -47t-1.5 -58q-2 -26 -13.5 -49.5t-33.5 -42.5q8 -2 19.5 -4.5t24.5 -6t24.5 -8t19.5 -9.5q34 -22 50.5 -42t23.5 -46z" />
    <glyph glyph-name="nine" unicode="9" horiz-adv-x="435" 
d="M303 455q-3 8 -6 15t-8 13q-14 24 -36 35t-46 11t-47 -10t-40 -28q-24 -26 -32.5 -52.5t-4 -48.5t20.5 -37.5t40.5 -18.5t57.5 8.5t70 42.5q11 9 19.5 29.5t11.5 40.5zM348 519q32 -52 37.5 -117t-8 -135.5t-42.5 -141.5t-68 -135t-84 -116t-89 -85l-41 56
q44 32 90.5 90.5t85 129t64 146.5t26.5 145q-26 -35 -64.5 -59.5t-78.5 -28.5q-14 -1 -35 1t-42.5 9t-41 20.5t-31.5 34.5q-10 17 -12.5 42t2 51.5t14.5 52t26 44.5q29 35 71 56.5t87 20.5q38 -1 73 -19.5t61 -61.5z" />
    <glyph glyph-name="colon" unicode=":" horiz-adv-x="251" 
d="M182 119q0 -20 -9.5 -35.5t-24.5 -27.5l-13 -1q-13 -1 -28 2.5t-28.5 11.5t-22.5 20t-9 27q0 31 22 48t51 17q25 0 43.5 -18t18.5 -44zM164 427q0 -21 -13 -39.5t-37 -18.5q-23 0 -35.5 16t-12.5 38t14 38.5t37 16.5q19 0 33 -14.5t14 -36.5z" />
    <glyph glyph-name="semicolon" unicode=";" horiz-adv-x="251" 
d="M190 45q0 -70 -24 -118t-90 -82l-36 37q13 6 28.5 20t29 31.5t22.5 36t9 33.5q0 24 -9 48l-17 -2q-29 -2 -48.5 10.5t-19.5 45.5q0 25 12.5 44t40.5 19t47.5 -10t31.5 -27t17.5 -39t5.5 -47zM164 439q0 -21 -13 -40t-37 -19q-23 0 -35.5 16.5t-12.5 37.5q0 22 14 38.5
t37 16.5q19 0 33 -14t14 -36z" />
    <glyph glyph-name="less" unicode="&#x3c;" horiz-adv-x="435" 
d="M385 515q-37 -39 -69 -72q-14 -14 -27.5 -29t-26 -28.5t-22.5 -24.5t-16 -17q-12 -14 -32 -34l-39 -39l-17 -17q54 -41 117.5 -85.5t126.5 -72.5l-20 -78q-42 19 -85 47t-85.5 59.5t-83 64t-76.5 60.5l28 26q12 11 24.5 23.5t22.5 21.5q60 59 116 120.5t114 122.5z" />
    <glyph glyph-name="equal" unicode="=" horiz-adv-x="458" 
d="M399 165q-18 -2 -46.5 -3t-62.5 -2t-70.5 -2t-71 -1.5t-63 -2t-46.5 -2.5l-7 68q18 2 47 3t63 2t71 2t71 2t62.5 2t45.5 3q0 -12 2.5 -33.5t4.5 -35.5zM398 359q-47 -1 -87 -3q-35 -2 -67.5 -3t-45.5 -2q-14 -1 -38.5 -1h-49.5h-61l1 71h60h48.5t37.5 1q13 0 45.5 1
t67.5 3q40 2 88 3z" />
    <glyph glyph-name="greater" unicode="&#x3e;" horiz-adv-x="435" 
d="M405 284q-33 -31 -70 -67.5t-76 -72.5t-79 -68.5t-79 -55.5l-28 75q59 35 118 86t108 98l-18 14q-22 17 -43.5 35t-35.5 30q-6 6 -17.5 15.5t-25 21.5t-29 25.5t-30.5 26.5q-35 30 -76 65l45 52q64 -54 126 -109.5t128 -107.5q10 -8 24 -18.5t27 -20.5q15 -11 31 -24z
" />
    <glyph glyph-name="question" unicode="?" horiz-adv-x="404" 
d="M251 60q0 -12 -4 -24.5t-11 -22.5t-17.5 -16.5t-23.5 -6.5q-10 0 -20 4.5t-18.5 11.5t-14 16.5t-5.5 19.5t7 20.5t17.5 19.5t22.5 15t21 6q20 0 33 -11.5t13 -31.5zM369 589q0 -24 -8.5 -45t-23 -39.5t-32.5 -35.5t-36 -33q-26 -25 -50 -50t-35 -57q-11 -34 -3 -72
l-67 -7q-6 23 -6 48.5t8 48.5q13 40 42.5 71.5t60.5 61.5q29 29 50.5 58.5t21.5 66.5q0 47 -24.5 75t-71.5 28q-20 0 -36 -5.5t-30 -14t-28 -18.5t-29 -20l-43 71q40 25 79 40.5t87 15.5q39 0 71 -15t55 -41t35.5 -60t12.5 -72z" />
    <glyph glyph-name="at" unicode="@" horiz-adv-x="682" 
d="M373 351q-14 5 -28.5 10.5t-29.5 5.5q-16 0 -30.5 -12.5t-26 -29.5t-18.5 -36.5t-7 -32.5q0 -23 12.5 -42.5t38.5 -19.5q22 0 37 18.5t25.5 43.5t16.5 51.5t10 43.5zM634 358q0 -34 -10.5 -74t-31 -74.5t-51 -57.5t-70.5 -23q-29 0 -49.5 16.5t-31.5 42.5
q-9 -15 -22.5 -28t-29.5 -22t-34 -14t-35 -5q-26 0 -45 11t-32 29t-19.5 41t-6.5 46q0 31 12 65t33.5 61.5t50.5 45.5t63 18q38 0 75.5 -13.5t63.5 -42.5q-20 -28 -29 -64.5t-9 -70.5q0 -21 12 -33t34 -12q25 0 43 19.5t30 46.5t18 55.5t6 47.5q0 36 -10.5 76t-32 73.5
t-53.5 55.5t-74 22q-76 0 -131 -40t-90.5 -104.5t-52.5 -146t-16 -165.5q0 -25 8.5 -56.5t24 -59t38 -46.5t51.5 -19q27 0 60.5 6.5t67.5 18.5t63.5 29t48.5 37l58 -64q-24 -26 -60 -44t-76.5 -29t-82 -15.5t-76.5 -4.5q-42 0 -77.5 23.5t-62 58.5t-41.5 77t-15 79
q0 51 8.5 110t26.5 117.5t45.5 112.5t66.5 95.5t89.5 66.5t113.5 25q58 0 103.5 -27.5t77 -70.5t48.5 -96.5t17 -105.5z" />
    <glyph glyph-name="A" unicode="A" horiz-adv-x="484" 
d="M326 294q-24 93 -48 184t-50 182q-26 -108 -46.5 -200.5t-36.5 -172.5q48 1 93.5 3t87.5 4zM467 16q-23 -16 -67 -16l-57 225q-48 -3 -100.5 -5t-111.5 -2q-18 -96 -33 -218q-44 -2 -69 9l4 34q4 23 10 66.5t17 108.5q-18 0 -39 0.5t-45 1.5q-7 40 2 69q26 -1 49 -1.5
t46 -0.5q20 100 46 215.5t61 250.5l83 29q67 -232 118 -422.5t86 -343.5z" />
    <glyph glyph-name="B" unicode="B" horiz-adv-x="465" 
d="M347 216q0 12 -3 27q-11 51 -73 73q-23 9 -48.5 12.5t-54.5 1.5l1 -2q6 -51 10.5 -119.5t9.5 -157.5q66 14 112 60t46 105zM248 543q0 16 -5 25q-12 23 -46 23q-33 0 -77 -19q12 -52 21 -96t17 -80q90 87 90 147zM419 215q0 -88 -76 -158q-85 -76 -221 -82
q-4 54 -11.5 138t-19.5 200l-5 47.5t-9.5 66t-17.5 82.5t-29 97l68 31q58 27 106 27q52 0 83 -31q30 -30 30 -80q0 -77 -67 -160q81 -15 126 -66q43 -49 43 -112z" />
    <glyph glyph-name="C" unicode="C" horiz-adv-x="524" 
d="M485 179q-2 -17 -7.5 -25.5t-6.5 -27.5q-2 -20 -8.5 -39.5t-14.5 -37.5q-8 -19 -22 -35.5t-35.5 -29t-51 -20t-69.5 -7.5q-45 0 -86 18t-67 49q-30 35 -47.5 78.5t-27 89.5t-12.5 91.5t-3 84.5q0 53 14.5 113.5t45 111.5t78.5 84.5t115 33.5q44 0 80 -15t62 -41t41 -61.5
t17 -77.5l4 -52q-20 -8 -38 -8.5t-38 0.5q2 16 1 36t-1 33q0 52 -37 82.5t-91 30.5q-47 0 -80 -26t-54.5 -65t-31.5 -83.5t-10 -81.5q0 -26 0.5 -60.5t4.5 -72.5q4 -37 13 -74.5t27 -70.5q20 -37 52.5 -56t72.5 -19q76 0 106 37q19 25 27.5 61.5t8.5 71.5z" />
    <glyph glyph-name="D" unicode="D" horiz-adv-x="464" 
d="M376 405q0 48 -14.5 80t-33.5 47q-60 48 -177 56l13 -478q36 2 63.5 15t48.5 31t35.5 38t23.5 37q18 33 29.5 79.5t11.5 94.5zM441 390q0 -66 -15 -117.5t-35 -91.5q-66 -127 -293 -168l-14 573h-18.5t-46.5 -2q-11 36 -3 76q70 3 97 3q169 0 255 -74q32 -27 52.5 -77
t20.5 -122z" />
    <glyph glyph-name="E" unicode="E" 
d="M404 54q-86 -14 -167 -36.5t-167 -57.5l-6 264q-3 0 -12 -1t-19.5 -2t-19.5 -2.5t-12 -1.5l-1 71q4 0 12.5 0.5t18.5 1t18.5 1.5t12.5 1l-5 290q15 -1 31 -1h33q13 0 75.5 3t177.5 11q9 -29 3 -69l-34 -3q-37 -2 -90 -5.5t-125 -6.5l3 -211q54 7 113 14t117 18
q19 -28 13 -67l-34 -6q-49 -9 -101 -16t-106 -13l4 -170q62 22 124.5 36.5t131.5 25.5q14 -27 11 -68z" />
    <glyph glyph-name="F" unicode="F" horiz-adv-x="474" 
d="M435 646q3 -21 2.5 -38t-5.5 -31l-34 1q-86 3 -152 4.5t-114 0.5q-3 -52 -6 -110.5t-5 -125.5q54 -5 98 -8.5t78 -4.5l34 -1q9 -28 -2 -69l-35 1q-23 1 -52 2t-65 4q-12 1 -27 3t-33 4l-10 -320q-38 -6 -69 3q7 229 30 687q28 3 60 5t68 2q20 0 239 -9z" />
    <glyph glyph-name="G" unicode="G" horiz-adv-x="523" 
d="M424 310l-38 -3q-3 -103 -3.5 -179t1.5 -129q-15 -9 -47 -22q-39 -15 -77 -15q-112 0 -196 115q-34 48 -34 148q0 40 1.5 82t6.5 84t15 83t28 79q19 41 42 69t48 45t50.5 24.5t49.5 7.5q61 0 103.5 -29.5t48.5 -86.5l3 -34q-38 -11 -69 -6l-2 35q-2 29 -26.5 39.5
t-58.5 10.5q-17 0 -36 -5t-38 -18.5t-37 -38t-31 -63.5q-12 -35 -18.5 -65t-9 -58.5t-2.5 -57.5v-60q0 -34 0.5 -60.5t7.5 -49.5t22 -43.5t44 -42.5q54 -42 90 -37q25 3 50 12q-2 38 -0.5 102t5.5 156h-27h-16.5t-11.5 -0.5t-12 -0.5l-23 -1l-4 64q20 1 38 3l32 2t27 1
q29 0 61.5 2t81.5 8q8 -20 6 -36.5t-1 -30.5h-44z" />
    <glyph glyph-name="H" unicode="H" horiz-adv-x="472" 
d="M382 218l-2 -290q-30 -8 -69 1v34l2 255l-162 -1l5 -220q-32 -7 -69 -2l-5 222h-69v68h68l-7 437q36 8 69 2l7 -439l164 1l5 519q30 7 69 0l-5 -519l100 1v-67z" />
    <glyph glyph-name="I" unicode="I" horiz-adv-x="378" 
d="M283 11l-228 3q-10 32 -1 69h34l62 -3q-5 129 -9 210q-1 23 -2.5 58.5t-4 74.5l-5 78t-5.5 69q-12 -1 -35 -3.5t-58 -6.5q-18 43 -7 69l34 3l118 13q6 1 27.5 1.5t58.5 2.5l34 3q10 -41 4 -69l-35 -3l-72 -3q4 -35 8 -90t8.5 -121.5t9.5 -140t10 -145.5h88q7 -39 0 -69
h-34z" />
    <glyph glyph-name="J" unicode="J" horiz-adv-x="438" 
d="M246 547q7 -43 24 -127.5t45 -213.5q7 -32 7 -66q0 -113 -75 -197q-75 -82 -186 -82q-13 0 -25.5 1t-26.5 3q-50 10 -88 45l-26 23l48 51l25 -23q1 -3 15 -12q14 -10 31.5 -14t37.5 -4q72 0 139 52q59 45 59 152q0 57 -18 141q-6 30 -12.5 60t-13.5 59q-6 25 -13 61
t-16 85l-138 -10q-8 27 -6 69l35 3l321 28q12 -32 5 -69z" />
    <glyph glyph-name="K" unicode="K" horiz-adv-x="493" 
d="M431 567q-34 -28 -77.5 -64.5t-97.5 -80.5q-12 -10 -35 -24t-57 -35l-26 -16l127 -137q38 -38 72.5 -69.5t66.5 -57.5l38 -30q-7 -9 -28 -24q-30 -20 -30 -21l-26 23q-32 29 -75 69t-96 92q-8 8 -22 24t-37 39q-1 -20 -2.5 -56t-3 -77t-4 -81.5t-5.5 -68.5l-3 -34
q-37 -9 -69 7l3 34l5 353q0 45 6 146q1 24 2 59.5t1.5 71t0.5 65.5v42q38 8 69 2l3 -295q45 27 110 74.5t146 121.5l25 23q30 -21 45 -53z" />
    <glyph glyph-name="L" unicode="L" horiz-adv-x="456" 
d="M430 -33q6 -37 -4 -71q-53 3 -105 5t-105 4q-56 2 -99.5 3.5t-74.5 7.5l-17 3l4 36q14 118 22 200.5t11 132.5l15 334q35 9 71 -2l-2 -35l-13 -301q-2 -45 -9.5 -119.5t-19.5 -180.5z" />
    <glyph glyph-name="M" unicode="M" horiz-adv-x="729" 
d="M674 0q-24 -6 -49 -6t-42 6v34q4 26 3.5 63.5t-3 80.5t-7 88t-10 86t-10 75t-7.5 55q-3 20 -10 56t-14 90l-189 -355l-193 279l-23 -521q-33 -4 -55.5 -3t-36.5 6l1 35l53 677l239 -315l189 304l73 -25l5 -35q5 -32 12 -75.5t16 -100.5q8 -51 16.5 -116.5t16 -131.5
t13.5 -124t9 -93z" />
    <glyph glyph-name="N" unicode="N" horiz-adv-x="514" 
d="M450 -103q-52 78 -115.5 175t-137.5 218q-14 22 -32.5 60t-44.5 93q33 -324 60 -523q-35 -12 -69 -9l-5 34q-15 111 -34 289.5t-43 428.5l48 33q74 -156 119 -248.5t62 -123.5q14 -27 41 -70.5t66 -103.5q-12 302 -3 608q29 9 69 -2q-3 -125 -3 -247q0 -156 5.5 -308
t16.5 -304z" />
    <glyph glyph-name="O" unicode="O" horiz-adv-x="693" 
d="M573 376q0 117 -54 192q-54 76 -136 76q-15 0 -30.5 -2.5t-32.5 -8.5q-97 -37 -151.5 -111.5t-54.5 -183.5q0 -42 4.5 -82.5t16.5 -77.5t33 -69.5t54 -58.5q26 -21 56 -29.5t61 -8.5q80 0 140 69q66 78 89 229q2 17 3.5 33.5t1.5 32.5zM658 374q0 -15 -1.5 -31t-3.5 -32
q-26 -187 -126 -286q-87 -88 -203 -88q-89 0 -159 52q-38 28 -63 69.5t-40 89t-21 97.5t-6 95q0 275 240 365q21 8 43 11.5t45 3.5q119 0 205 -96q90 -99 90 -250z" />
    <glyph glyph-name="P" unicode="P" horiz-adv-x="531" 
d="M422 544q0 70 -61 106q-51 28 -133 30q-33 0 -112 -18l13 -360q22 -3 45 -3q98 -1 156 47q56 45 84 142q5 14 6.5 28t1.5 28zM506 559q0 -90 -60 -178q-60 -90 -145 -128q-52 -23 -126 -23q-11 0 -21.5 0.5t-21.5 1.5l26 -352q-73 -17 -93 -11l-2 34q2 10 3 32t1 56
q0 21 -5.5 201.5t-16.5 523.5q38 11 133 27q19 3 37 3.5t35 0.5q182 0 237 -103q19 -37 19 -85z" />
    <glyph glyph-name="Q" unicode="Q" horiz-adv-x="682" 
d="M543 331q0 51 -11 98q-14 62 -77 118q-63 57 -113 57q-24 0 -38 -16l-17 -31l-51 26q-67 -24 -105 -110q-16 -38 -24 -78t-8 -85q0 -14 1 -27.5t3 -26.5q6 -34 26 -63.5t56 -53.5q66 -44 144 -44q10 0 19.5 1t19.5 3q-28 61 -44 117q-7 29 -53 46l-32 13q2 39 24 64
l33 -12l12 -5q67 -33 82 -87q8 -30 19.5 -59t25.5 -58q50 21 77 60q31 47 31 153zM615 321q0 -197 -148 -264q52 -89 138 -186q-11 -14 -24.5 -25.5t-27.5 -20.5l-23 27q-5 6 -18 21t-32 41q-23 29 -43 59.5t-37 62.5q-47 -11 -79 -11q-62 0 -132 35q-136 66 -155 186
q-2 17 -3 33.5t-1 33.5q0 111 44 200q50 103 139 136q77 28 104 32l35 4l1 -13q75 -7 152 -77q74 -70 94 -150q8 -32 12 -63t4 -61z" />
    <glyph glyph-name="R" unicode="R" horiz-adv-x="520" 
d="M339 534q3 49 -15 81.5t-53 43.5q-32 9 -97 -1q-1 -22 -3.5 -57l-5.5 -77l-11 -136l-2 -25q13 0 21 0.5t13 1.5q33 6 62 22.5t50 42.5q37 47 41 104zM503 -145q-14 5 -35 19.5t-45.5 34t-50.5 42.5t-50 46.5t-43.5 45.5t-31.5 39q-13 18 -38.5 62t-63.5 116
q-8 -106 -14 -183.5t-11 -128.5l-69 7q5 45 13.5 154t20.5 284l10 121l9 129q-24 -8 -45.5 -15.5t-45.5 -16.5q-2 6 -2.5 19.5t-1.5 27.5q-1 16 -2 34q14 5 26 7.5t24 4.5t24.5 4t26.5 6q1 13 1.5 25t0.5 24l69 -2l-1 -34q25 4 46 6t41 0q79 -6 116.5 -53.5t33.5 -130.5
q-6 -98 -63 -165q-28 -34 -65.5 -55t-84.5 -31q28 -67 64 -121t78 -99t89.5 -83.5t100.5 -74.5z" />
    <glyph glyph-name="S" unicode="S" horiz-adv-x="466" 
d="M428 176q0 -80 -30 -141q-30 -62 -82 -101q-52 -38 -112 -38q-63 0 -123 42q-7 4 -18 19.5t-21.5 38.5t-18 51t-5.5 58l2 36q43 13 67 6l-2 -35q-1 -14 0 -31t4 -32.5t8.5 -27.5t14.5 -18q23 -14 41.5 -22.5t33.5 -10.5q25 -3 49 9.5t48 38.5q19 19 28.5 32.5t19.5 35.5
q8 19 13 41.5t5 48.5q0 17 -6.5 41t-12.5 32q-18 22 -45.5 30.5t-76.5 16.5q-44 6 -80 18t-62 45q-12 15 -18 32t-9 36q-2 19 -2 39.5v40.5q0 24 1.5 50t6 51.5t13 47.5t23.5 39q29 33 64 43.5t77 7.5q100 -8 130 -46q31 -37 34 -88v-70l-65 2v62q-2 19 -9.5 31t-18.5 20
q-18 13 -39.5 16t-35.5 3q-29 0 -48.5 -9t-36.5 -29q-18 -20 -24.5 -55.5t-6.5 -66.5q0 -17 3 -37.5t9 -39.5q9 -31 35 -48t67 -23q71 -9 115 -27t64 -43q15 -19 23.5 -49t8.5 -73z" />
    <glyph glyph-name="T" unicode="T" horiz-adv-x="659" 
d="M633 613l-49 -3l-210 2h-19q-3 -38 -6.5 -95.5t-7.5 -139.5q-2 -41 5 -118t18 -192l4 -35q-10 -7 -86 -7l-5 35l7 318q1 38 -0.5 96.5t-0.5 138.5q-36 -3 -94 -7.5t-138 -6.5l-47 -1q-3 12 -3 33q0 10 -0.5 20t-0.5 18l47 1q45 1 106.5 8t140.5 7h99q8 0 35 -0.5t73 0.5
h68l15 1h5l49 2z" />
    <glyph glyph-name="U" unicode="U" horiz-adv-x="441" 
d="M388 269q0 -80 -38 -145q-8 -13 -22 -26.5t-36 -27.5q-45 -30 -75 -34q-20 -4 -42 1.5t-48 18.5q-53 26 -71 67q-5 12 -10 63t-10 122t-9.5 151t-8.5 149q39 9 80 5l3 -35q1 -10 1.5 -32.5t1 -51t0.5 -59.5t0.5 -59.5t1 -51t1.5 -32.5q8 -126 16 -144q9 -20 40 -33
q29 -13 44 -10q10 1 22 5t27 11q30 13 37 25q33 55 33 107q0 7 -0.5 29.5t-1.5 54t-2.5 68.5t-2.5 74t-2 70.5t-2 58.5l-1 35q36 8 69 2l1 -34q1 -23 1.5 -54.5t1 -67.5t0.5 -72t0.5 -66.5t0.5 -52.5v-29z" />
    <glyph glyph-name="V" unicode="V" horiz-adv-x="548" 
d="M517 644q-6 -16 -18.5 -44.5t-27.5 -72.5q-12 -35 -24.5 -78.5t-31.5 -97.5q-7 -19 -52 -126.5t-127 -308.5l-131 385q-8 24 -33.5 108t-68.5 230q24 18 66 20l10 -33l91 -303q5 -17 23.5 -69t48.5 -141l108 263q11 36 24.5 80t32.5 96q5 15 17 44t29 72q40 -3 64 -24z
" />
    <glyph glyph-name="W" unicode="W" horiz-adv-x="599" 
d="M568 647q-22 -117 -51 -326q-17 -119 -29 -201t-20 -128l-51 -29l-85 191q-5 9 -16 32.5t-29 63.5l-108 -298l-48 7l-29 142q-19 91 -30 162t-14 122q-2 29 -6 63.5t-11 74.5q-10 56 -15.5 89.5t-7.5 47.5l-5 35q43 27 97 32l4 -35q2 -48 3.5 -104.5t4.5 -121.5
q5 -32 10.5 -84t11.5 -124q2 -15 7 -48t16 -87l113 307l114 -247q3 -7 10 -23t18 -42q8 38 17 105.5t21 166.5q21 172 42 270q43 6 66 -13z" />
    <glyph glyph-name="X" unicode="X" horiz-adv-x="459" 
d="M392 614q-24 -66 -57.5 -154t-74.5 -200q19 -42 45 -103.5t61 -142.5l13 -32q-20 -24 -64 -27l-13 31q-10 25 -29 70t-48 111l-144 -351q-43 5 -71 36l15 32q33 72 73 164t88 207l-6 12q-17 34 -56 102t-105 170l-18 29q11 14 20 22t14 13q8 6 20 12l26 13l25 -51
q17 -35 43.5 -93t67.5 -139l74 204l34 125q40 -5 78 -28z" />
    <glyph glyph-name="Y" unicode="Y" horiz-adv-x="558" 
d="M517 634q-31 -59 -67 -141.5t-82 -188.5q-24 -58 -50 -118.5t-49.5 -114.5t-43 -97t-29.5 -66l-15 -32l-62 30l15 31q15 30 35.5 77t44 101t47 110.5t44.5 106.5l1 1l-293 317q31 58 61 71l24 -24q23 -35 54.5 -78t64.5 -84t63.5 -75.5t52.5 -53.5q17 46 138 289
q46 -12 62 -30z" />
    <glyph glyph-name="Z" unicode="Z" horiz-adv-x="510" 
d="M479 103q12 -40 -1 -69l-35 2q-45 2 -80 0.5t-59 -4.5q-83 -9 -247 -66l-29 33q40 72 79 143.5t79 144.5q5 10 18 35t30 55.5t35 62t32 53.5q25 40 43.5 71.5t29.5 55.5l-271 8l-50 -10q-15 46 4 101l418 -38q-9 -22 -22.5 -52.5t-32.5 -69.5q-14 -22 -35.5 -59
t-45.5 -80t-48.5 -87t-44.5 -78q-16 -28 -41 -76t-61 -115l4 3q146 42 296 38z" />
    <glyph glyph-name="bracketleft" unicode="[" horiz-adv-x="348" 
d="M299 -57q-22 2 -52.5 3t-62 0.5t-60.5 -1.5t-48 -2q-3 107 -6 199q-1 39 -2.5 78t-2 73t-1 60t-0.5 39q0 12 -1 40.5t-3 65.5t-4 79.5t-4 83.5q-2 42 -3 80t-2 67q-1 33 -1 62q54 2 108.5 9.5t108.5 4.5l-4 -86q-29 2 -68.5 2t-72.5 -1q6 -125 11.5 -243.5t8.5 -242.5
q2 -72 2 -148.5t3 -149.5l153 8z" />
    <glyph glyph-name="backslash" unicode="\" horiz-adv-x="487" 
d="M397 -31q-54 111 -102 209q-20 42 -40.5 85t-39 82t-33 72t-23.5 54t-20.5 48.5t-24.5 57.5t-27 62t-27 62q-31 70 -64 147q14 25 27 35.5t36 16.5q34 -82 65 -159q13 -33 27 -67t27 -66.5t24.5 -61t20.5 -49.5t23.5 -53.5t32.5 -71.5t38.5 -82t40.5 -84q47 -97 101 -206
z" />
    <glyph glyph-name="bracketright" unicode="]" horiz-adv-x="348" 
d="M296 956v-105q0 -45 -0.5 -96.5t-2.5 -93.5q-2 -41 -4 -83.5t-4 -79.5t-3.5 -65.5t-1.5 -40.5q0 -13 -0.5 -40t-1 -63t-1.5 -77.5t-2 -83.5q-3 -98 -5 -214q-19 1 -48 4.5t-60.5 6.5t-61.5 5t-52 0l2 77l154 -7q1 36 1 76v80.5v80.5t1 76q2 61 3.5 135t3.5 150t4.5 150
t5.5 136q-33 1 -72.5 1t-68.5 -1l-4 86q54 2 108.5 -5t109.5 -9z" />
    <glyph glyph-name="asciicircum" unicode="^" horiz-adv-x="483" 
d="M390 444l-144 198l-139 -203l-57 39l194 283l201 -276z" />
    <glyph glyph-name="underscore" unicode="_" horiz-adv-x="542" 
d="M535 -206q-69 -1 -129 -3q-26 -1 -51.5 -1.5t-48 -1.5t-40.5 -1.5t-27 -0.5q-20 -1 -62 0.5t-86 3.5q-51 2 -110 4v71q58 -2 109 -4q43 -2 85 -3t61 0q9 0 27 0.5t41 1t48.5 1t51.5 1.5q60 2 130 3z" />
    <glyph glyph-name="grave" unicode="`" horiz-adv-x="405" 
d="M296 576l-231 194l52 75l218 -230z" />
    <glyph glyph-name="a" unicode="a" horiz-adv-x="461" 
d="M293 228q-17 18 -42.5 32t-51.5 14q-20 0 -37.5 -11t-30 -28t-19.5 -37t-7 -38q0 -57 24.5 -82.5t62.5 -25.5q19 0 38.5 11.5t35.5 29t28 37t17 36.5l10 33zM425 -24q-32 -21 -57.5 -31.5t-46.5 -8.5l-1 129q-29 -36 -60.5 -56t-69.5 -20q-65 0 -110 39q-49 43 -49 112
q0 24 6 50q17 71 61 109q41 35 98 35q64 0 120 -43l-1 83q-1 32 -1 48t-2 26q-8 56 -39 65q-12 4 -28 4h-19t-21 -2q-25 -3 -48 -14q-17 -9 -28.5 -17t-18.5 -15q-7 5 -11 15t-8 24q-3 14 -5 25t-2 21q56 41 139 41q38 0 71 -12q62 -20 81 -88q7 -20 9.5 -50t2.5 -71
q0 -16 -0.5 -36t-1.5 -55q-1 -36 -1 -55.5v-38.5q0 -179 41 -213z" />
    <glyph glyph-name="b" unicode="b" horiz-adv-x="532" 
d="M400 178q0 79 -52 121q-25 20 -61 40q-22 12 -38 18.5t-27 4.5q-57 -4 -99 -42q3 -49 5 -81t2 -46q0 -25 -3 -152q77 -47 118 -46q69 3 115 61q40 52 40 122zM489 187q0 -102 -63 -181q-66 -85 -166 -85q-65 0 -134 39v-16t1 -20q3 -27 3 -37q-51 -13 -90 -4
q19 42 20 107q0 28 0.5 78.5t0.5 124.5q0 30 -9 174q-6 78 -9 135.5t-5 95.5l-6 135q-2 35 -1.5 68t3.5 66q43 13 75 7l-2 -35q-4 -55 -3 -114.5t3 -124.5q1 -35 3.5 -82.5t6.5 -109.5q49 35 105 35q85 0 192 -87q75 -61 75 -169z" />
    <glyph glyph-name="c" unicode="c" horiz-adv-x="421" 
d="M398 116q-29 -21 -105 -56q-35 -16 -106 -16q-30 0 -52 4t-36 13q-74 47 -74 177q0 12 0.5 24.5t1.5 26.5q9 82 65 135t128 53q35 0 66.5 -11t60.5 -36l15 -13l-35 -62l-25 22q-44 39 -70 34q-112 -25 -124 -138q-2 -16 -3 -30t-1 -27q0 -77 31 -96q13 -9 61 -7
q48 0 68 10q30 14 58.5 31t56.5 38z" />
    <glyph glyph-name="d" unicode="d" horiz-adv-x="497" 
d="M356 193q-2 18 -2 48.5t-1 75.5l-1 2q-70 41 -99 37q-65 -6 -112 -67q-48 -62 -48 -129q0 -96 94 -99q82 -3 165 60l7 -8zM455 -114q-34 -17 -92 -17q0 61 -3 172q-82 -53 -176 -49q-81 3 -125 59q-38 47 -38 125q0 83 45 154q62 97 172 97q53 0 115 -31q0 38 0.5 61
t-0.5 31q0 20 -2.5 49.5t-7.5 70.5q-5 39 -7.5 68.5t-2.5 49.5q0 25 2.5 48.5t7.5 45.5q54 7 82 -12l-8 -33q-5 -17 -6.5 -37.5t-1.5 -44.5q0 -37 6 -104q4 -36 5.5 -61t1.5 -39q0 -57 0.5 -130t2.5 -162q1 -43 3.5 -85.5t4.5 -85.5q2 -48 8 -83t14 -57z" />
    <glyph glyph-name="e" unicode="e" horiz-adv-x="462" 
d="M325 342q-2 79 -15 110q-23 54 -88 57q-60 4 -99 -75q-33 -67 -31 -135zM101 231q39 -167 232 -167q14 0 28.5 1.5t30.5 3.5q-6 -52 -41 -112l-34 6q-33 6 -65 16t-62 26q-82 41 -119 110q-48 91 -48 192q0 32 5.5 61.5t16.5 56.5q62 162 182 153q191 -12 186 -289z" />
    <glyph glyph-name="f" unicode="f" horiz-adv-x="394" 
d="M368 650q-26 -21 -65 -22l-11 33q-14 43 -24 66q-21 43 -42 50t-36 7q-25 0 -32 -33q-12 -44 -12 -122q0 -42 4.5 -108t12.5 -158q22 4 50.5 10.5t66.5 15.5l33 8q20 -30 15 -68l-33 -8l-126 -27q3 -50 5.5 -98.5t6.5 -98.5q4 -60 9 -109t11 -88l6 -35q-31 -15 -68 -11
l-5 34q-9 50 -21 167q-1 5 -4 61.5t-9 168.5q-11 -1 -29 -3t-43 -5q-17 23 -8 69l16 1l60 7q-2 48 -5.5 89.5t-6.5 78.5q-4 46 -5.5 78t-1.5 51q0 201 113 201q27 0 57 -10q48 -16 81 -81q7 -14 16.5 -41.5t23.5 -69.5z" />
    <glyph glyph-name="g" unicode="g" horiz-adv-x="515" 
d="M369 -194q0 15 -3.5 46t-11.5 62q-4 14 -15 29.5t-28 28t-38.5 20.5t-46.5 8q-24 0 -44.5 -6.5t-36 -20.5t-24.5 -36t-9 -54q0 -73 34 -111q1 -1 12 -10t26 -19t31.5 -18.5t30.5 -8.5q13 0 37 4.5t59 24.5q27 15 27 61zM398 417q3 20 -4 43t-22.5 42.5t-39.5 32.5t-56 13
q-20 0 -46 -5t-43 -13q-11 -5 -25.5 -20.5t-28 -36t-23 -43t-9.5 -41.5q0 -10 8 -26.5t19 -31.5q12 -15 21 -25.5t22 -16.5t33.5 -8.5t55.5 -2.5q68 0 100.5 36.5t37.5 102.5zM489 653q-12 5 -20.5 8t-28.5 3q-23 0 -44 -17t-25 -49q20 -14 38 -33.5t31 -42.5t20.5 -48
t7.5 -49q0 -50 -14.5 -90t-41.5 -68t-65.5 -43.5t-85.5 -15.5q-23 0 -48 3q-29 -18 -44 -27.5t-17 -11.5q-29 -21 -29 -41q0 -25 60 -67q12 3 29 3q14 0 36.5 2t43.5 -3q31 -6 58.5 -22t48.5 -41.5t33.5 -60.5t12.5 -80q0 -54 -10 -94t-46 -72q-23 -21 -61.5 -35t-76.5 -14
q-28 0 -64 14t-68 43.5t-54 73.5t-22 104q0 106 72 153q-64 61 -64 112q0 15 4 27t13.5 21.5t26 18t41.5 17.5q-24 15 -44.5 34t-36.5 40t-25 42.5t-9 39.5q0 28 15.5 61t35.5 65t40 52t42.5 31.5t47.5 16t55 4.5q35 0 62 -7l1 3q11 61 44.5 92.5t87.5 39.5q8 1 15 1.5
t12 0.5h11q4 -11 4.5 -23.5t0.5 -25.5q0 -21 -6 -45z" />
    <glyph glyph-name="h" unicode="h" horiz-adv-x="474" 
d="M421 -33q-4 1 -8 3q-4 1 -9.5 2t-11.5 -1q-4 -2 -16.5 -2t-31.5 1l2 38q2 82 -9 190q-12 130 -37 177q-23 41 -49 41q-31 2 -64 -47q-24 -34 -40 -77l-7 -22q5 -53 13.5 -120.5t16.5 -152.5l4 -35q-36 -11 -68 -8l-4 35q-8 75 -18.5 167.5t-21.5 206.5q-2 19 -7 62.5
t-13.5 106t-20.5 140t-28 165.5q17 5 40.5 6t41.5 -2l3 -33q4 -38 10 -89t13 -107.5t14 -114t13 -108.5q84 116 149 121q22 1 50 -22.5t48 -71.5q8 -20 17 -55t15.5 -85.5t10 -117t0.5 -149.5q-1 -8 0 -20t3 -22z" />
    <glyph glyph-name="i" unicode="i" horiz-adv-x="257" 
d="M183 -5q-27 -8 -69 -2q-4 81 -13 193t-25 257q37 11 68 7l4 -35q2 -14 7.5 -56.5t12.5 -113.5q6 -70 15 -250zM158 630q0 -25 -19 -44q-18 -18 -45 -18q-26 0 -45 18q-19 19 -19 44q0 26 19 44t45 18q27 0 45 -18q19 -18 19 -44z" />
    <glyph glyph-name="j" unicode="j" horiz-adv-x="270" 
d="M231 -276v-24.5t-2 -18.5q-11 -67 -51 -101q-35 -31 -88 -31q-67 0 -120 50q-56 54 -56 138v15t1 15l5 33q40 10 69 -8l-5 -35q-1 -3 -1 -20q-2 -50 32 -85q35 -35 75 -35q59 0 70 75q2 8 2 19.5v25.5v55t-2.5 61t-8.5 85.5t-18 129.5q-16 103 -32 203.5t-33 202.5
q40 16 68 10l6 -34l59 -375q17 -102 23.5 -191.5t6.5 -159.5zM142 698q0 -25 -19 -43q-18 -18 -44 -18q-27 0 -45 18q-19 18 -19 43q0 26 19 44q18 18 45 18q26 0 44 -18q19 -18 19 -44z" />
    <glyph glyph-name="k" unicode="k" horiz-adv-x="499" 
d="M431 -253l-12 32q-14 33 -32.5 77.5t-38.5 103.5q-18 57 -48.5 128t-78.5 159q-12 -11 -30.5 -28t-44.5 -41q9 -98 15.5 -181t8.5 -152l1 -35q-58 -9 -79 -7l9 38q-2 47 -5.5 102t-8.5 118q-5 67 -14 156.5t-21 203.5q-14 125 -25 242t-19 229q33 14 79 6l-4 -42l37 -428
q4 -50 9 -92.5t9 -80.5l71 72q18 18 41 43.5t49 58.5l85 106q13 -32 38 -60q30 -33 31 -36l-77 -51q-21 -14 -35 -24t-22 -17q-7 -7 -18 -19.5t-26 -31.5q8 -19 20 -45.5t27 -61.5q22 -54 42.5 -106.5t43.5 -105.5q49 -114 103 -164l21 -21z" />
    <glyph glyph-name="l" unicode="l" horiz-adv-x="243" 
d="M94 -10q-1 21 -1 42q-1 18 -1 40t-1 42q0 2 1 43t-3 122q-3 60 -11 144.5t-16 196.5q-3 48 -8 98t-12 105l-5 34q26 12 92 7l5 -35q-9 -108 -3 -205q6 -77 14 -162.5t13 -181.5q2 -36 0.5 -71.5t0.5 -71.5q2 -57 6 -91.5t9 -48.5z" />
    <glyph glyph-name="m" unicode="m" horiz-adv-x="764" 
d="M625 23q3 16 5 43t2.5 58.5t-0.5 65t-3.5 65t-7 57t-10.5 41.5q-13 32 -25 47.5t-31 18.5q-39 8 -64 -10.5t-39 -50t-20 -68.5t-7 -65q-1 -18 -1 -44.5t1 -54t3 -54.5t5 -47l-86 6q2 17 6 45t5 61q0 17 -0.5 29.5t-1 22.5t-0.5 18.5v18.5q1 22 4 50.5t0 56t-14.5 50
t-39.5 33.5q-23 9 -47 -1.5t-47.5 -30t-44 -43t-35.5 -41.5v-62q0 -13 -1 -23.5t-1.5 -22t-1.5 -24t-1 -29.5q-1 -17 -1 -35v-33q0 -18 1 -34l-70 -6v42v44t2 52q0 6 1.5 16.5t3 21.5t2.5 21t1 15q0 13 -1 31.5t-3 39.5t-4.5 43.5t-3.5 43.5q-2 19 -4.5 32t-5.5 22
q-4 10 -8 17q9 5 30 15t42 16q6 -18 10 -36q4 -16 7.5 -36.5t4.5 -41.5q14 20 34.5 44t46 41.5t56 25t63.5 -5.5q31 -11 54 -32.5t34 -55.5q28 42 60.5 66.5t64.5 26.5q35 2 65 -12.5t53 -43.5q12 -16 18.5 -37.5t9.5 -47t3.5 -54t1.5 -58.5q0 -26 2 -54.5t3.5 -58t1 -58
t-5.5 -54.5z" />
    <glyph glyph-name="n" unicode="n" horiz-adv-x="470" 
d="M402 223q-3 -19 -5.5 -51t-4 -67t-2.5 -67.5t1 -53.5l-85 16q3 17 4 48t5 65q4 35 10 67.5t9 52.5q3 22 7.5 49.5t3 54.5t-12.5 49.5t-39 33.5q-23 9 -47 -2t-47 -31t-43.5 -44t-35.5 -43v-63l-6 -136q-1 -18 -0.5 -36.5t0.5 -33.5q0 -18 1 -34l-70 -6q3 52 5 100
q2 41 3 83t2 68t-1.5 67.5t-4.5 82.5q-4 48 -7 99q10 2 31 4t42 0q0 -15 1 -33q1 -15 1 -35t1 -42q14 21 34.5 45.5t46 42.5t56 25.5t63.5 -5.5q46 -18 67 -48.5t26.5 -67.5t0.5 -77.5t-10 -76.5z" />
    <glyph glyph-name="o" unicode="o" horiz-adv-x="463" 
d="M369 272q0 12 -1.5 22t-3.5 19q-6 20 -20 37.5t-37 33.5q-45 33 -93 33q-49 0 -76 -39q-26 -40 -26 -73q0 -12 3 -51q6 -52 49 -93q36 -35 79 -41q33 -5 64 13q27 13 39 35q23 36 23 104zM438 271q0 -89 -51 -158q-58 -76 -141 -76q-92 0 -156 81q-61 74 -61 169
q0 85 64 145q63 60 149 54q60 -6 118 -57q56 -47 70 -97q5 -15 6.5 -30t1.5 -31z" />
    <glyph glyph-name="p" unicode="p" horiz-adv-x="483" 
d="M374 345q0 35 -10 55q-43 88 -85 85q-48 -3 -92 -33q-43 -29 -59 -74l-8 -23v-133l16 -13q68 -53 111 -50q28 1 50.5 17.5t41.5 47.5q35 58 35 121zM442 335q0 -71 -34 -133q-59 -110 -161 -110q-59 0 -127 46l-1 -45q3 -32 5.5 -82t3.5 -119q0 -38 -4 -88.5t-9 -116.5
q-36 -3 -69 6q5 64 8 114t5 87q1 22 0 50.5t-4 64.5q-2 39 -3.5 60t-1.5 24v29.5t1 77.5v167q0 109 -22 178q46 27 79 27q12 0 26 -3q-2 -8 -4 -28t-4 -52q71 65 148 65q60 0 100 -43q68 -74 68 -176z" />
    <glyph glyph-name="q" unicode="q" horiz-adv-x="550" 
d="M392 266q0 60 -24 90q-20 26 -61 45q-44 21 -77 16q-28 -4 -45.5 -11.5t-30 -20t-22 -31t-19.5 -44.5q-21 -50 -21 -86q0 -32 13.5 -55.5t34.5 -38.5t47 -22.5t52 -7.5q44 0 62 13q14 10 28 23t26 30q29 36 35 71q2 7 2 14v15zM743 -264q-3 -7 -17 -19q-88 -83 -162 -83
q-60 0 -110 59q-46 56 -53 117q-2 14 -2 32t1 41q3 50 1 63q0 9 1 25.5t3 39.5q6 48 6 74q0 19 -3 37q-38 -51 -74 -70q-40 -22 -100 -22q-30 0 -52.5 5.5t-41 16t-34.5 25t-33 31.5q-21 21 -31 45t-11.5 52t4 61t15.5 71q11 43 27.5 72.5t40 46.5t54.5 24.5t70 7.5
q46 0 98 -26q47 -23 75 -55l9 74l5 34q40 3 69 -9l-5 -35q-12 -90 -17.5 -154t-5.5 -104q0 -49 -0.5 -115t0.5 -150q1 -39 4.5 -69t8.5 -51q18 -78 67 -99q16 -8 37 -8q55 0 125 85q30 -11 53 -44z" />
    <glyph glyph-name="r" unicode="r" horiz-adv-x="407" 
d="M384 329h-24h-22.5t-21.5 2v84q0 34 -14.5 50t-33.5 16q-46 0 -124 -87q-11 -11 -20 -21.5t-17 -18.5q-2 -25 -2.5 -63.5t1.5 -92.5l2 -74t3 -75l1 -36l-90 8l7 34v31.5t0.5 32t1 29t1.5 22.5q3 26 4 86t1 156q0 88 -6 147l89 26l-5 -35q-1 -9 -3.5 -32.5t-4.5 -61.5
q83 93 146 94q56 2 92 -38q17 -17 29 -38.5t11 -47.5z" />
    <glyph glyph-name="s" unicode="s" horiz-adv-x="414" 
d="M379 135q0 -40 -15 -73.5t-41 -57.5t-61 -37.5t-75 -13.5q-54 0 -86 15t-48 42.5t-20 65t-3 82.5l75 -2q-8 -29 -10 -54t6.5 -43t30.5 -28.5t61 -10.5q26 0 48 10t38 27t25 39t9 47q0 40 -20.5 64t-52 40t-67.5 28.5t-67.5 30t-52.5 44.5t-21 71t13 72.5t35 44.5t50.5 22
t58.5 6q26 0 49.5 -2.5t41 -16t28 -41.5t12.5 -78l-71 -6q-2 12 -7 26t-12.5 25t-18 18.5t-23.5 7.5q-15 0 -31 -2.5t-28.5 -11t-20.5 -24.5t-6 -42q1 -26 22.5 -41t52 -27.5t66 -26t66 -36.5t50.5 -59.5t20 -93.5z" />
    <glyph glyph-name="t" unicode="t" horiz-adv-x="402" 
d="M373 365q-32 -4 -80.5 -2.5t-114.5 -3.5q0 -11 0.5 -66.5t0.5 -156.5q0 -106 45 -106q43 0 63 78q27 3 48 -19q-38 -153 -128 -153q-13 0 -26 3q-74 15 -72 150v47t1 85v133q-4 0 -14 -1t-23 -2t-27 -2t-26 -2v69q8 0 20.5 0.5t25 1.5t24 2t17.5 2v64.5t2 48.5
q2 47 5.5 105t8.5 128q42 4 69 -6l-2 -34q-2 -26 -5 -75t-7 -122q-2 -18 -2 -43.5v-58.5q39 4 78.5 7.5t79.5 6.5l34 2q7 -14 8 -37t-3 -43z" />
    <glyph glyph-name="u" unicode="u" horiz-adv-x="441" 
d="M413 30q-21 -11 -66 -13q-8 44 -14 82.5t-11 74.5q-29 -54 -76 -86q-44 -31 -93 -31q-116 0 -116 167q0 26 2 60.5t6 78.5q3 29 6 58.5t5 58.5q44 0 67 -6q-12 -164 -12 -216q0 -58 7 -79q13 -42 55 -42q31 0 63 22q32 23 44 50q4 11 8.5 31.5t10.5 52.5q6 30 9 51t4 35
q39 8 67 -2q-3 -86 6 -161q5 -42 11.5 -88t16.5 -98z" />
    <glyph glyph-name="v" unicode="v" horiz-adv-x="518" 
d="M481 368q-10 -20 -29 -60.5t-44.5 -96t-57 -122t-65.5 -137.5q-16 25 -37.5 57.5t-50.5 74.5q-12 17 -24 38t-24 44t-24.5 47.5t-24.5 49.5q-22 44 -44.5 87t-45.5 88q37 30 87 36q11 -31 31 -79.5t49 -116.5q26 -62 51 -104t46 -74q10 22 25 56.5t34 76t40 85.5t43 84
l29 54l65 -33z" />
    <glyph glyph-name="w" unicode="w" horiz-adv-x="708" 
d="M672 471q-8 -35 -23 -94.5t-40 -141.5q-13 -44 -42.5 -110t-72.5 -157q-10 20 -24 45t-32 57q-29 36 -64 94l-57 99q-71 -167 -171 -319l-66 277q-18 75 -40.5 142.5t-51.5 129.5q16 11 26 17.5t15 9.5q18 8 46 16l99 -418q34 58 70 146l63 150q23 -38 56 -93.5
t75 -128.5q10 -17 22 -35.5t26 -36.5q34 70 62.5 161.5t55.5 204.5l8 34q41 6 67 -15z" />
    <glyph glyph-name="x" unicode="x" horiz-adv-x="449" 
d="M398 442q-25 -33 -63 -82t-89 -116q25 -26 55.5 -61.5t68.5 -77.5l23 -26q-16 -36 -53 -46l-22 27q-15 18 -43 49.5t-69 76.5q-17 -30 -43 -75t-62 -105q-26 7 -59 37q37 66 114 195q-44 45 -140 152q15 19 25 29q8 8 27 17l23 -25q30 -35 106 -115q28 35 69 89t96 126
q17 -10 31 -20t25 -22z" />
    <glyph glyph-name="y" unicode="y" horiz-adv-x="536" 
d="M484 480q-36 -75 -106 -232.5t-168 -399.5q-13 -32 -24 -60.5t-24.5 -63t-30.5 -79t-42 -107.5q-44 3 -63 28q7 16 11 24.5t8.5 19t11 26.5t17.5 48q24 66 42 113.5t31 77.5l96 232q-99 59 -163 174q-31 54 -46 106t-16 102q37 21 80 14q12 -102 56 -190q47 -96 116 -143
q91 216 167 370q41 -5 62 -29z" />
    <glyph glyph-name="z" unicode="z" horiz-adv-x="508" 
d="M463 133q13 -33 -4 -80l-35 2q-20 2 -43 0q-29 -1 -66 -8.5t-79.5 -21t-89 -31t-92.5 -38.5q5 22 14 53.5t22 72.5q9 30 33 70.5t53 84t59 86.5t51 77q-52 -11 -98 -26t-97 -32l-31 -11l-29 63l31 14q70 32 145.5 48.5t150.5 36.5l82 22q-9 -13 -13 -21.5t-7 -16
t-6.5 -15.5t-11.5 -19q-20 -28 -44 -61t-47 -64.5t-42 -59t-29 -45.5q-17 -32 -31 -62.5t-25 -60.5q120 47 208 47h18t19 -1z" />
    <glyph glyph-name="braceleft" unicode="{" horiz-adv-x="333" 
d="M309 -133q-46 -39 -93 -46t-89 17q-16 9 -26 24.5t-15 33.5t-7 36.5t-2 35.5q0 57 9 107.5t20 98.5t22 94t14 93q-21 2 -43 0t-42 -6l-26 62q3 2 7 5q3 2 8 5t10 8q15 12 31.5 28t30 35t21 39.5t5.5 42.5q-15 24 -40 41.5t-44.5 38t-24.5 49t19 74.5q15 29 30 54.5
t31.5 49.5t35.5 46.5t42 46.5l49 -49q-5 -5 -18.5 -21t-31 -37.5t-36 -46.5t-33.5 -48t-23.5 -41.5t-5.5 -27.5q13 -15 32.5 -27.5t38 -26t32.5 -30t17 -39.5q5 -44 -13.5 -82.5t-45.5 -69.5l-4 -4q35 -4 48 -24t13 -46.5t-7.5 -55.5t-12.5 -51q-16 -71 -31 -141t-15 -144
q0 -16 1.5 -30.5t7.5 -26t17.5 -18.5t31.5 -7q7 0 15.5 4t17 10t15.5 12.5t12 10.5z" />
    <glyph glyph-name="bar" unicode="|" horiz-adv-x="254" 
d="M155 936q-3 -90 -6 -172q-1 -35 -2 -72t-2 -72t-2 -65.5t-2 -53.5t-1 -59t1 -79t2 -90t3 -93q4 -107 9 -229l-69 -3q-5 123 -9 232q-2 46 -3 93.5t-2 91t-1 79.5t1 59q1 22 1.5 52t1 63t1 68t0.5 68q1 77 1 160q23 17 39 21t39 1z" />
    <glyph glyph-name="braceright" unicode="}" horiz-adv-x="333" 
d="M284 446q-29 -8 -45.5 -20t-24.5 -26q2 -24 7.5 -48.5t12 -48.5t13.5 -48.5t11 -48.5q6 -35 10 -82t1.5 -96t-13.5 -94t-33 -77q-17 -24 -39.5 -34.5t-46.5 -9.5t-47 13t-40 33l54 44q18 -23 33.5 -19.5t27 19.5t19 38t9.5 36q10 61 8 110t-10.5 94.5t-20.5 91.5t-22 101
q-7 39 6 62.5t49 46.5q-30 18 -36.5 43.5t-0.5 54.5t19 61t22 63q4 15 4.5 38t-2.5 48t-9.5 48t-15.5 38q-14 23 -41.5 26.5t-64.5 -1.5l-10 84q50 6 98 -10t77 -63q16 -27 25.5 -61.5t11.5 -71t-4 -72.5t-19 -64q-3 -6 -9 -17.5t-12 -24t-10.5 -24t-3.5 -17.5
q0 -5 10.5 -14t23.5 -18t24.5 -16t13.5 -7z" />
    <glyph glyph-name="asciitilde" unicode="~" horiz-adv-x="598" 
d="M530 550q-15 -50 -41.5 -86t-60.5 -52.5t-74 -12t-82 35.5q-21 15 -39 25t-34.5 12t-33 -6t-32.5 -30q-10 -12 -14.5 -27t-9.5 -30l-66 19q0 4 1 8t1.5 8.5t2.5 9.5q38 103 98 126t146 -43q15 -12 34 -25t39 -14q34 -1 58.5 27.5t31.5 82.5q26 0 41.5 -7t33.5 -21z" />
    <glyph glyph-name="uni00A0" unicode="&#xa0;" horiz-adv-x="1200" 
 />
    <glyph glyph-name="exclamdown" unicode="&#xa1;" horiz-adv-x="242" 
d="M162 563q-6 -73 -10 -133q-2 -26 -3.5 -51t-3 -46t-2 -36t-0.5 -20t-0.5 -20.5t-1.5 -37t-2.5 -47t-2.5 -50.5q-4 -61 -8 -133l-96 17q4 53 8 99q1 19 3 39t4 37t3.5 30.5t2.5 20.5q2 14 5 33.5t6 41t5.5 44.5t5.5 43q2 20 5.5 50t7.5 57q4 32 8 66zM199 700
q0 -24 -16.5 -42.5t-44.5 -18.5q-22 0 -39 16t-17 40q0 23 15.5 44t44.5 21q27 0 42 -18t15 -42z" />
    <glyph glyph-name="cent" unicode="&#xa2;" horiz-adv-x="468" 
d="M224 529q-63 -18 -85.5 -52.5t-22.5 -96.5q0 -37 10.5 -62.5t25.5 -34.5q8 -5 40 -7q5 39 10 77t9.5 71t7.5 60zM428 286q-6 -5 -20 -11.5t-32 -14t-38.5 -16t-38.5 -17.5q-20 -10 -56 -13l-34 -250l-58 3q5 34 10 74q5 34 10.5 78t12.5 93q-45 3 -67 16q-35 22 -53 57.5
t-18 97.5q0 51 13 88.5t52 74.5q53 50 119 50q6 41 10 75t7 60q4 30 6 54q15 3 32 3.5t36 -2.5q-5 -26 -9 -58q-4 -27 -9 -62.5t-10 -76.5q25 -5 49 -14t40 -23l14 -12l-32 -58l-24 21q-11 9 -26 15.5t-29 10.5q-5 -38 -14 -105.5t-19 -143.5l20 6q28 14 55 29.5t53 35.5z
" />
    <glyph glyph-name="sterling" unicode="&#xa3;" horiz-adv-x="548" 
d="M537 96q-7 -20 -19.5 -39.5t-30 -35t-38 -25t-42.5 -9.5q-32 0 -55 15.5t-42.5 33.5t-37 33.5t-39.5 15.5q-20 0 -39 -6.5t-37 -13.5q-3 -16 -8.5 -32t-14 -28.5t-21.5 -20.5t-32 -8q-11 0 -23 3.5t-22 10t-16.5 16t-6.5 22.5q0 15 9 28t21.5 24t27 19.5t26.5 14.5
q2 26 3 51t1 51q0 20 -0.5 40.5t-1.5 40.5l-71 -10l-6 70l70 10q-5 23 -6 47.5t-1 50.5q0 34 14 71t38 67.5t56 50.5t68 20q34 0 58.5 -23t41.5 -50l-60 -36q-7 11 -16 24.5t-25 13.5q-22 0 -41.5 -15.5t-34 -38t-22.5 -48t-8 -45.5q0 -23 2 -42.5t5 -39.5l126 12l6 -70
l-124 -12q2 -41 2.5 -80.5t-2.5 -80.5q17 5 33.5 9t34.5 4q30 0 53.5 -15.5t43.5 -33.5t37.5 -33.5t36.5 -15.5q12 0 22 6t18 15t13.5 20t9.5 21z" />
    <glyph glyph-name="currency" unicode="&#xa4;" horiz-adv-x="735" 
d="M663 571q-66 69 -154 63q-34 -2 -68 -15q-75 -28 -127 -72t-78 -101q31 2 74.5 3.5t83.5 3.5q47 2 96 5l-16 -74q-50 -2 -98 -5q-20 -1 -42 -2t-43 -2t-39.5 -2t-33.5 -1q-5 -47 5 -94q38 1 76.5 2t73 2.5t62 2.5t43.5 3q-3 -14 -5 -36t-4 -36q-14 -2 -38 -3t-53.5 -2.5
t-64 -2.5t-69.5 -2q15 -36 41 -66.5t66 -53.5q29 -17 62 -22.5t67 -3.5q86 6 153 76l58 -52q-98 -91 -225 -98q-97 -6 -178 36q-54 29 -85.5 77.5t-47.5 103.5q-46 -2 -83 -3t-59 -3l9 72q18 2 48.5 3t68.5 3q-3 23 -4.5 47t-0.5 47h-68q-18 0 -35 1l17 74q15 -1 32 -1h65
q40 167 243 244q44 17 97 20q130 9 233 -76z" />
    <glyph glyph-name="yen" unicode="&#xa5;" horiz-adv-x="558" 
d="M535 189q-10 -1 -29 -2.5t-41.5 -2.5t-46 -2t-43.5 -2l14 -234l3 -35l-69 -4l-2 34l-12 237q-25 0 -54 -1t-56.5 -2t-50 -2t-35.5 -2l-6 69q13 1 36 2t50.5 2t57 2t55.5 1l-5 91q-14 -1 -43.5 -1.5t-58.5 -0.5h-74v70q32 1 62 1h52.5t43.5 1l-276 297q32 60 61 71l24 -24
q23 -35 54.5 -78t64.5 -84t63.5 -75.5t52.5 -53.5q9 24 43.5 96t94.5 193q46 -12 62 -30l-16 -31q-27 -51 -57.5 -120t-68.5 -157q21 1 47 1.5t49 2.5q26 1 54 3v-70q-32 -1 -63 -3q-26 -2 -56 -3t-53 -2l7 -92q20 0 43.5 1t45.5 2.5t40.5 3t28.5 2.5q0 -12 2.5 -33.5
t4.5 -35.5z" />
    <glyph glyph-name="brokenbar" unicode="&#xa6;" horiz-adv-x="254" 
d="M149 388q-2 -42 -3 -82q-2 -34 -2.5 -69.5t-1.5 -59.5q-2 -23 0 -59.5t4 -71.5q3 -41 6 -87l-70 -2q-2 46 -4 88q-2 36 -4 73t-3 60q-2 20 -2 54v66v79zM63 494q2 47 5 90q2 36 4 73t3 57q2 19 1 55.5t-2 72.5q-2 42 -3 90l70 2q1 -49 2 -92q1 -37 2 -73.5t2 -54.5
q1 -17 1 -52t-1 -70q-1 -41 -3 -89z" />
    <glyph glyph-name="section" unicode="&#xa7;" horiz-adv-x="466" 
d="M362 372q0 16 -3.5 26t-10 17t-15.5 12.5t-20 13.5q-19 4 -43 4.5t-53 0.5q-52 0 -86 -26.5t-34 -76.5q0 -14 3 -23t8 -15.5t12.5 -12t16.5 -12.5q20 -7 46 -9t59 -2q52 0 86 26t34 77zM428 364q0 -33 -10.5 -59t-28.5 -44.5t-43 -31.5t-55 -21q35 -8 60.5 -35.5
t26.5 -77.5q0 -44 -13 -71t-35 -41t-50.5 -18.5t-58.5 -4.5q-26 0 -49.5 5.5t-43 19t-34 37t-22.5 58.5l62 23q2 -12 11 -25.5t22 -25t27.5 -18.5t27.5 -7q15 0 31 1t28.5 7.5t20 21t6.5 40.5q-1 14 -9.5 27.5t-22 24.5t-31 20t-35.5 15q-30 9 -62 16t-58 22.5t-42.5 45
t-16.5 83.5q0 66 38.5 103t98.5 53q-18 9 -37.5 17.5t-35.5 20t-26.5 28t-10.5 41.5q0 45 16.5 72.5t43 42.5t58.5 20.5t62 5.5q26 0 49 -2.5t40.5 -16t28.5 -41.5t13 -79l-71 -5q-2 12 -7 25.5t-12.5 24.5t-18 18.5t-23.5 7.5h-33t-33.5 -5.5t-25.5 -18.5t-8 -39
q1 -16 11.5 -29t26.5 -23.5t36 -18.5t41 -14q29 -9 60.5 -18.5t57 -27.5t42 -48t16.5 -81z" />
    <glyph glyph-name="dieresis" unicode="&#xa8;" horiz-adv-x="446" 
d="M192 636q-1 -12 -4 -25t-9.5 -22.5t-17.5 -15t-28 -3.5t-26.5 19.5t-9.5 30.5q0 23 14.5 39.5t38.5 16.5q19 0 31 -11.5t11 -28.5zM336 662q12 -18 9.5 -41t-10.5 -40q-3 -9 -12 -13t-19 -5q-9 0 -18.5 3t-15.5 9q-7 7 -10 18.5t-3 24t3 24t8 19.5q11 13 35 15
q10 0 18 -2.5t15 -11.5z" />
    <glyph glyph-name="copyright" unicode="&#xa9;" horiz-adv-x="621" 
d="M442 239q-29 -22 -65.5 -40.5t-74.5 -18.5q-30 0 -51 14.5t-34 36.5t-18.5 49t-5.5 53t6.5 58.5t20.5 61.5t37 48.5t55 19.5t60 -18t49 -40l-42 -42q-12 12 -28.5 26t-34.5 14t-30 -17t-20 -40.5t-11.5 -47t-3.5 -36.5t2 -27t8 -25.5t16.5 -19t27.5 -7.5q26 0 53.5 15.5
t47.5 30.5zM518 359q0 46 -14 91t-40.5 80.5t-66 57t-90.5 21.5q-56 0 -93 -24.5t-59 -63.5t-31.5 -86.5t-9.5 -93.5q0 -44 12.5 -88.5t37 -80.5t61 -59t84.5 -23q54 0 93 24.5t65 63.5t38.5 87t12.5 94zM573 383q0 -62 -17 -126t-51.5 -115.5t-87.5 -84t-124 -32.5
q-64 0 -108.5 32t-72.5 81.5t-41 108.5t-13 112q0 52 15.5 107t46 100.5t75.5 74.5t105 29q59 0 109 -23t86.5 -62.5t57 -91.5t20.5 -110z" />
    <glyph glyph-name="ordfeminine" unicode="&#xaa;" horiz-adv-x="406" 
d="M283 434q-1 31 -2 61t-1 61l-29 14.5t-31 8.5q-22 0 -42 -12t-35 -30t-23.5 -40.5t-8.5 -43.5q0 -32 16.5 -45.5t47.5 -13.5q30 0 57 11.5t51 28.5zM366 333q-19 -10 -39.5 -13t-42.5 -3l1 24v20q-30 -17 -63.5 -28t-68.5 -11q-32 0 -53 12t-33 31.5t-17 45.5t-5 53
q0 35 11.5 67t32.5 56t50.5 38.5t66.5 14.5q36 0 73 -16q0 12 -3.5 24t-7.5 23l75 15v-70q0 -31 -0.5 -68.5t1 -75.5t6.5 -74.5t16 -64.5z" />
    <glyph glyph-name="guillemotleft" unicode="&#xab;" horiz-adv-x="603" 
d="M288 35l-253 218l237 239l33 -55l-173 -182l188 -164zM375 290l173 -183l-33 -54l-237 238l253 218l32 -55z" />
    <glyph glyph-name="logicalnot" unicode="&#xac;" horiz-adv-x="581" 
d="M513 160q0 -61 -14.5 -116t-45.5 -97t-79.5 -66.5t-115.5 -24.5q-49 0 -90 23t-71 60t-46.5 83t-16.5 93q0 35 11 67.5t32 57t50.5 39.5t67.5 15q32 0 59 -12.5t46.5 -33.5t30.5 -49t11 -59q0 -30 -12 -53t-32 -34l-56 53q8 4 14 10q5 5 9 12t4 17q0 12 -4.5 25.5
t-13 25.5t-20 20t-24.5 8q-21 0 -39 -13.5t-31.5 -33t-21 -42.5t-7.5 -42q0 -30 12 -60t32.5 -54t48 -38.5t58.5 -14.5q49 0 84 17.5t57.5 48t32.5 70.5t10 85q0 60 -15.5 97t-41 59.5t-58.5 34t-68 20.5q-36 9 -71.5 19.5t-63.5 29.5t-45 50.5t-17 82.5q0 36 12.5 79
t36 80.5t57 62.5t75.5 25q26 0 52.5 -3.5t51 -16t45.5 -36t36 -63.5l-76 -34q-5 27 -16 43.5t-25.5 25.5t-32 12t-35.5 3q-24 0 -42.5 -20t-31 -48t-18.5 -57.5t-6 -48.5q0 -38 15.5 -58.5t39.5 -32t54 -18t60 -16.5q35 -11 70.5 -25t64 -41t46 -72.5t17.5 -120.5z" />
    <glyph glyph-name="uni00AD" unicode="&#xad;" horiz-adv-x="407" 
d="M357 269q-27 -3 -69.5 -4.5t-89 -3t-90 -3t-70.5 -4.5l-6 69q27 3 70 4.5t89.5 3t89.5 3t69 4.5z" />
    <glyph glyph-name="registered" unicode="&#xae;" horiz-adv-x="621" 
d="M371 445q-5 10 -22.5 9.5t-38 -5.5t-39 -11.5t-25.5 -9.5l20 -78q1 2 7 4t13 4.5t12.5 4t6.5 1.5q7 4 20 13t24.5 21t18.5 24.5t3 22.5zM437 202l-153 80l22 -89l-58 -14l-72 282q19 8 38 17q17 7 36 14.5t36 12.5q18 4 38.5 7t40 0.5t36 -12.5t25.5 -31
q10 -24 3.5 -46.5t-22 -41.5t-36.5 -34.5t-39 -25.5l132 -65zM511 362q0 45 -6 89t-24.5 79.5t-52 57t-88.5 21.5q-54 0 -97 -24.5t-73 -63.5t-46 -88.5t-16 -99.5q0 -44 9.5 -87.5t30.5 -78t56 -55.5t86 -21t92 25t69.5 64.5t44 87.5t15.5 94zM570 396q0 -57 -15.5 -122
t-48 -120.5t-82 -92.5t-116.5 -37q-71 0 -119.5 29.5t-78 77.5t-42.5 107.5t-13 119.5t23.5 116.5t64.5 100t96 70t117 26.5q55 0 95 -25t66.5 -64.5t39.5 -88.5t13 -97z" />
    <glyph glyph-name="macron" unicode="&#xaf;" horiz-adv-x="395" 
d="M49 598l-2 69l300 8l2 -69z" />
    <glyph glyph-name="degree" unicode="&#xb0;" horiz-adv-x="408" 
d="M294 488q0 57 -21 88t-78 31q-45 0 -64.5 -33.5t-19.5 -94.5q0 -38 28.5 -52t80.5 -14q21 0 35 8t23 19.5t12.5 24.5t3.5 23zM362 488q0 -24 -9.5 -48.5t-27.5 -44.5t-44.5 -32.5t-60.5 -12.5q-25 0 -55.5 4.5t-57.5 18t-45 39t-18 67.5q0 29 5.5 62.5t21.5 62t46 47.5
t78 19q43 0 75 -13.5t52 -37.5t30 -57.5t10 -73.5z" />
    <glyph glyph-name="plusminus" unicode="&#xb1;" horiz-adv-x="458" 
d="M409 65q-18 -2 -46.5 -3t-62.5 -2t-70.5 -2t-71 -1.5t-63 -1.5t-46.5 -3l-7 68q18 2 47 3t63 2t71 2t71 2t62.5 2t45.5 3q0 -12 2.5 -33.5t4.5 -35.5zM399 347l-50 4q-22 2 -46.5 3t-47.5 2q-1 -26 -2 -57t-2 -57l-2 -62l-69 3q1 29 2 60q1 26 2 56t2 56q-20 -1 -45 -1
h-47h-52v69h53q23 0 47.5 0.5t44.5 1.5q0 24 0.5 55t1.5 59l2 66l69 -2q-1 -32 -2 -65q-1 -28 -1.5 -59t-0.5 -54q23 -2 49.5 -3t48.5 -3q26 -2 50 -3z" />
    <glyph glyph-name="uni00B2" unicode="&#xb2;" horiz-adv-x="395" 
d="M361 301q-5 0 -9 1t-7.5 1t-6.5 1q-18 1 -46.5 -2.5t-61 -10t-65.5 -14.5t-61 -15l-45 -11l-45 45q26 25 48 48q19 19 37 38t26 27q20 20 43 44.5t40 51.5q15 24 23.5 50.5t10.5 49.5q1 12 -14.5 23t-35.5 16q-8 2 -15 3t-13 1q-27 0 -39 -9q-5 -3 -12 -9t-13.5 -13.5
t-12.5 -14.5t-9 -11q-1 -1 -3 -5q-1 -2 -3 -5l-51 37q2 6 6 12q7 12 16 21q14 16 28.5 28t28.5 20q20 11 43.5 13t56.5 1q22 -2 43 -11.5t36.5 -25t25 -35t8.5 -40.5q-2 -30 -14 -60t-31 -59h1q-16 -26 -39 -53.5t-46 -53.5q-8 -10 -17 -19l-19 -19q11 3 23 5.5t24 6.5v-1
q6 2 12 3.5t12 3.5q18 6 35.5 11.5t37.5 7.5q11 2 22 3t21 1q9 0 19.5 -1.5t22.5 -3.5z" />
    <glyph glyph-name="uni00B3" unicode="&#xb3;" horiz-adv-x="412" 
d="M384 305q-11 -25 -30.5 -44t-45 -31.5t-55.5 -18.5t-61 -6q-39 0 -78.5 11.5t-68.5 31.5q-20 13 -45 38l53 41l14 -13v1q14 -14 35.5 -27.5t41.5 -15.5q8 -1 18 -1.5t19 -0.5q20 0 41.5 2.5t41 9t34 18t21.5 28.5q12 28 12 46q0 21 -10.5 35t-19.5 21q-12 5 -39 7t-48 2
q-11 0 -21 -0.5t-13 -0.5l-21 36q15 17 29 33q11 14 22.5 27t16.5 19q2 2 8.5 10t12.5 16q-46 2 -92.5 2h-91.5v63h133q11 -1 33.5 -1.5t45.5 -2.5q26 -2 56 -3l24 -43q-28 -23 -51.5 -45.5t-43.5 -47.5q22 -2 48.5 -7t40.5 -16q6 -7 15 -16.5t16.5 -22t13 -29t5.5 -37.5
q0 -29 -16 -68z" />
    <glyph glyph-name="acute" unicode="&#xb4;" horiz-adv-x="405" 
d="M105 542l-40 39l218 230l52 -75z" />
    <glyph glyph-name="mu" unicode="&#xb5;" horiz-adv-x="478" 
d="M449 44q-20 -5 -43 4t-42.5 26.5t-32 40.5t-12.5 46q-7 -13 -12.5 -23.5t-11.5 -20t-13.5 -17.5t-19.5 -16q-47 -32 -94 -32q-32 0 -66 36l-3 -50q-5 -85 -2.5 -149.5t2.5 -122.5q-38 -3 -68 7q4 25 5 45t0.5 45t-1 59.5t0.5 88.5q0 6 3 107v57t0.5 65t1.5 64.5t3 56.5
q3 31 5.5 62t-6.5 62q12 6 19.5 9t14 3.5t12.5 0t14 -0.5q6 0 12.5 -0.5t12.5 -1.5q-2 -8 -4.5 -28.5t-4.5 -52.5q-1 -14 -4 -47t-4.5 -70.5t-0.5 -73t7 -54.5q14 -41 54 -41q30 0 62 22q28 19 45.5 55t27 82.5t12.5 100t2 107.5q38 9 69 -2q-1 -21 -2 -61.5t-2 -84.5
t-1.5 -83t-0.5 -58q1 -26 4 -43.5t12 -28.5t24.5 -16.5t40.5 -6.5z" />
    <glyph glyph-name="paragraph" unicode="&#xb6;" horiz-adv-x="541" 
d="M301 571q-58 0 -77 -4q-20 -4 -44 -11.5t-44 -20t-32.5 -31t-10.5 -43.5q1 -8 2.5 -16t5.5 -16q26 -59 70.5 -78t110.5 -6q7 2 14 3.5t14 3.5zM428 -64q1 33 1.5 81.5t0.5 105t-1 118t-2 120.5t-2.5 111.5t-3.5 92.5l-59 3q3 -96 3.5 -185t-1 -159.5t-2.5 -115t-1 -50.5
q2 -22 3.5 -35.5t3.5 -19.5l1 -26q-6 -2 -10 -3.5t-10 -2.5t-15 -1h-24l1 327l-26 -6q-57 -9 -95 -2q-65 12 -115 62t-54 107q-3 32 10 58q37 75 173 101l26 4t27 2q18 1 53.5 1.5t72.5 1t67.5 0t38.5 -0.5q-3 -82 -5 -172t-2 -180.5t1.5 -177.5t5.5 -163z" />
    <glyph glyph-name="periodcentered" unicode="&#xb7;" horiz-adv-x="251" 
d="M186 267q0 -24 -16.5 -45.5t-47.5 -21.5q-30 0 -46 18.5t-16 43.5q0 26 18 45t48 19q23 0 41.5 -16.5t18.5 -42.5z" />
    <glyph glyph-name="cedilla" unicode="&#xb8;" horiz-adv-x="299" 
d="M76 -164q29 -7 55.5 -10t35.5 2q14 8 22.5 21.5t-0.5 26.5q-9 12 -18.5 17.5t-20.5 6t-24 -1.5t-29 -3q-1 2 -3.5 8t-8.5 23l73 106l59 -5l-62 -88q25 -1 46.5 -8t41.5 -35q11 -15 13.5 -32.5t-2.5 -33t-17 -29t-30 -21.5q-21 -10 -60 -8.5t-83 11.5q4 13 6 29t6 24z" />
    <glyph glyph-name="uni00B9" unicode="&#xb9;" horiz-adv-x="264" 
d="M53 267l-2 63l40 3q-1 14 -1.5 30.5l-1 33t-0.5 30.5v22q0 23 1 43.5t3 40.5q1 12 1.5 20.5l1 17t0.5 17.5v22l-28 -30l-44 46l42.5 42.5t50.5 48.5q9 2 23.5 1t24.5 -3v-21q0 -10 0.5 -21.5t0.5 -23.5q0 -17 -0.5 -35t-1.5 -32q-3 -74 -3 -154q0 -27 -0.5 -46.5
t1.5 -44.5l38 3l1 -63z" />
    <glyph glyph-name="ordmasculine" unicode="&#xba;" horiz-adv-x="392" 
d="M290 485q0 9 -1 16t-3 13q-5 15 -16.5 28.5t-27.5 23.5t-33.5 15.5t-33.5 5.5q-36 0 -53 -26q-20 -26 -20 -51q0 -31 7 -55.5t32 -47.5q21 -20 48.5 -27.5t55.5 6.5q29 16 37 43t8 56zM359 484q0 -69 -42 -123q-45 -60 -116 -60q-77 0 -129 63q-26 29 -38 62.5t-12 69.5
q0 67 52 116q56 48 124 42q48 -5 97 -44q33 -27 48.5 -55.5t15.5 -70.5z" />
    <glyph glyph-name="guillemotright" unicode="&#xbb;" horiz-adv-x="603" 
d="M57 39l-32 56l188 164l-173 182l33 55l237 -239zM316 57l-33 54l173 183l-188 164l32 55l253 -218z" />
    <glyph glyph-name="onequarter" unicode="&#xbc;" horiz-adv-x="876" 
d="M50 253l-1 59l37 4q0 13 -0.5 28.5l-1 31t-0.5 29v21.5q0 21 1 40.5t2 38.5q1 11 1.5 19.5t1 16t0.5 16.5v21l-27 -29l-41 44q16 17 40 40.5t48 46.5q9 2 22.5 1t23.5 -3v-20q0 -9 0.5 -20.5t0.5 -22.5q0 -17 -0.5 -33.5t-1.5 -29.5q-2 -35 -3 -72t-1 -75
q0 -25 -0.5 -43.5t1.5 -41.5q9 0 19.5 0.5t16.5 1.5l1 -59zM658 648q-58 -63 -111 -121q-23 -25 -46.5 -51t-45 -50t-40.5 -45.5t-32 -37.5q-14 -16 -32 -39.5t-39 -52t-43 -59.5t-43 -61q-49 -70 -102 -149l-49 38q55 80 104 150q21 30 43 61t43 59.5t39 52.5t32 40
q13 16 31.5 37.5t40 46t44.5 50.5t45 51q51 58 108 122q17 -12 31.5 -18.5t21.5 -23.5zM843 164q-21 -1 -39 -3q-16 -2 -31 -3t-22 -2q1 -25 2 -51t1 -50q1 -13 1.5 -29t1.5 -30q1 -17 1 -34l-66 -4q-1 17 -2 35q-1 15 -1 31v29q0 8 -0.5 19t-0.5 23q-1 13 -2 26.5t0 27.5
q-9 0 -25.5 -0.5t-34 -1t-33 -0.5h-24.5t-19 0.5t-22 1.5q-2 -1 -6 -1t-7 1q-5 0 -11 -0.5t-8 -0.5q-4 10 -10 18q-3 2 -5 6l-8 16q3 16 7 32q3 13 6 26.5t5 21.5q2 3 4 14t4 24q4 20 8.5 42t10.5 36q1 2 3 7.5t4 11.5q3 7 5 16q7 0 16 -1q8 -1 18 -2.5t24 -4.5
q-1 -11 -2 -21q-1 -8 -2.5 -16t-2.5 -11q-5 -11 -9 -32.5t-9 -41.5q-5 -21 -9 -32h1q0 -2 -0.5 -6t-1.5 -9l1 1q-2 -8 -3.5 -17.5t-5.5 -18.5l24 1h24t33.5 0.5t34.5 1t26 0.5q0 19 -1.5 34t-3.5 32q-2 33 -3 67t4 79h15q1 0 0.5 0.5t2.5 0.5t12.5 -2t31.5 -7q-1 -16 -1 -31
q-1 -13 -1 -28v-27q0 -29 1 -56t3 -56q6 2 21.5 3.5t32.5 3.5q19 2 42 4v-63z" />
    <glyph glyph-name="onehalf" unicode="&#xbd;" horiz-adv-x="876" 
d="M50 253l-1 59l37 4q0 13 -0.5 28.5l-1 31t-0.5 29v21.5q0 21 1 40.5t2 38.5q1 11 1.5 19.5t1 16t0.5 16.5v21l-27 -29l-41 44q16 17 40 40.5t48 46.5q9 2 22.5 1t23.5 -3v-20q0 -9 0.5 -20.5t0.5 -22.5q0 -17 -0.5 -33.5t-1.5 -29.5q-2 -35 -3 -72t-1 -75
q0 -25 -0.5 -43.5t1.5 -41.5q9 0 19.5 0.5t16.5 1.5l1 -59zM658 648q-58 -63 -111 -121q-23 -25 -46.5 -51t-45 -50t-40.5 -45.5t-32 -37.5q-14 -16 -32 -39.5t-39 -52t-43 -59.5t-43 -61q-49 -70 -102 -149l-49 38q55 80 104 150q21 30 43 61t43 59.5t39 52.5t32 40
q13 16 31.5 37.5t40 46t44.5 50.5t45 51q51 58 108 122q17 -12 31.5 -18.5t21.5 -23.5zM815 19l-21 3q-18 1 -44.5 -2.5t-57.5 -9.5t-62 -13.5t-58 -14.5l-43 -11l-42 43q24 25 45 46q18 18 35 35.5t25 25.5q19 19 40.5 42t38.5 49q14 23 22 47.5t10 47.5q1 11 -14 21.5
t-34 15.5q-14 3 -26 3t-22 -1.5t-15 -6.5q-5 -3 -11 -9l-13 -13t-12.5 -13.5t-8.5 -10.5q-1 0 -3 -5l-2 -4l-49 36q2 5 6 10q3 5 6.5 10t8.5 10q29 32 54 46q20 10 41.5 12t53.5 1q21 -2 41 -11t35 -23.5t23.5 -33t7.5 -38.5q-2 -29 -13.5 -57t-29.5 -56h1
q-15 -25 -36.5 -51t-43.5 -50l-34 -36q10 3 21.5 5t22.5 6v-1q6 2 11.5 3.5t10.5 3.5q18 5 34.5 10.5t35.5 7.5q10 2 21 3t20 1q8 0 18 -1.5t22 -3.5z" />
    <glyph glyph-name="threequarters" unicode="&#xbe;" horiz-adv-x="1055" 
d="M829 648q-58 -63 -111 -121q-23 -25 -46.5 -51t-45 -50t-40.5 -45.5t-32 -37.5q-14 -16 -32 -39.5t-39 -52t-43 -59.5t-43 -61q-49 -70 -102 -149l-49 38q55 80 104 150q21 30 43 61t43 59.5t39 52.5t32 40q13 16 31.5 37.5t40 46t44.5 50.5t45 51q51 58 108 122
q17 -12 31.5 -18.5t21.5 -23.5zM376 348q-10 -24 -28.5 -41.5t-43 -29t-52.5 -17.5t-58 -6q-37 0 -74.5 10.5t-64.5 29.5q-10 6 -20.5 15.5t-21.5 20.5l50 39l13 -12v1q14 -14 33.5 -26.5t39.5 -14.5q7 -1 17 -1.5t19 -0.5q19 0 39 2.5t38 9t32.5 17t20.5 26.5q5 14 8 24
t3 20q0 20 -10 33t-18 20q-11 4 -37 6t-46 2q-9 0 -19 -0.5t-13 -0.5l-20 35q15 16 28 31q11 13 21.5 25t15.5 18l20 25q-44 2 -88 2h-87v60h126q11 -1 32.5 -1.5t42.5 -2.5q25 -2 53 -3l23 -41q-26 -22 -48.5 -43.5t-41.5 -44.5q10 -1 22 -2.5t23.5 -4t22 -6.5t16.5 -9
q6 -6 14 -15.5t15.5 -21.5t13 -27.5t5.5 -34.5q0 -27 -16 -65zM1014 164q-21 -1 -39 -3q-16 -2 -31 -3t-22 -2q1 -25 2 -51t1 -50q1 -13 1.5 -29t1.5 -30q1 -17 1 -34l-66 -4q-1 17 -2 35q-1 15 -1 31v29q0 8 -0.5 19t-0.5 23q-1 13 -2 26.5t0 27.5q-9 0 -25.5 -0.5t-34 -1
t-33 -0.5h-24.5t-19 0.5t-22 1.5q-2 -1 -6 -1t-7 1q-5 0 -11 -0.5t-8 -0.5q-4 10 -10 18q-3 2 -5 6l-8 16q3 16 7 32q3 13 6 26.5t5 21.5q2 3 4 14t4 24q4 20 8.5 42t10.5 36q1 2 3 7.5t4 11.5q3 7 5 16q7 0 16 -1q8 -1 18 -2.5t24 -4.5q-1 -11 -2 -21q-1 -8 -2.5 -16
t-2.5 -11q-5 -11 -9 -32.5t-9 -41.5q-5 -21 -9 -32h1q0 -2 -0.5 -6t-1.5 -9l1 1q-2 -8 -3.5 -17.5t-5.5 -18.5l24 1h24t33.5 0.5t34.5 1t26 0.5q0 19 -1.5 34t-3.5 32q-2 33 -3 67t4 79h15q1 0 0.5 0.5t2.5 0.5t12.5 -2t31.5 -7q-1 -16 -1 -31q-1 -13 -1 -28v-27
q0 -29 1 -56t3 -56q6 2 21.5 3.5t32.5 3.5q19 2 42 4v-63z" />
    <glyph glyph-name="questiondown" unicode="&#xbf;" horiz-adv-x="435" 
d="M381 46q-39 -25 -78 -40.5t-87 -15.5q-39 0 -71 15t-55.5 41t-36 59.5t-12.5 71.5q0 24 8.5 45t23 39.5t32.5 35.5l36 34q27 24 50.5 49.5t34.5 56.5q13 35 3 73l67 7q6 -23 6 -48.5t-7 -48.5q-14 -40 -43.5 -72t-60.5 -61q-29 -29 -50.5 -58.5t-21.5 -66.5
q0 -47 24.5 -75t72.5 -28q19 0 35 5.5t30.5 13.5t28.5 18.5t29 19.5zM274 724q0 -9 -7.5 -19.5t-18 -19.5t-22.5 -15t-21 -6q-20 0 -33 11.5t-13 31.5q0 12 4 24t11 22.5t17.5 17t24.5 6.5q9 0 19.5 -4.5t19 -11.5t14 -17t5.5 -20z" />
    <glyph glyph-name="Agrave" unicode="&#xc0;" horiz-adv-x="491" 
d="M311 800l-231 194l52 75l218 -230zM326 294q-24 93 -48 184t-50 182q-26 -108 -46.5 -200.5t-36.5 -172.5q48 1 93.5 3t87.5 4zM467 16q-23 -16 -67 -16l-57 225q-48 -3 -100.5 -5t-111.5 -2q-18 -96 -33 -218q-44 -2 -69 9l4 34q4 23 10 66.5t17 108.5q-18 0 -39 0.5
t-45 1.5q-7 40 2 69q26 -1 49 -1.5t46 -0.5q20 100 46 215.5t61 250.5l83 29q67 -232 118 -422.5t86 -343.5z" />
    <glyph glyph-name="Aacute" unicode="&#xc1;" horiz-adv-x="477" 
d="M196 807l-40 39l218 230l52 -75zM326 294q-24 93 -48 184t-50 182q-26 -108 -46.5 -200.5t-36.5 -172.5q48 1 93.5 3t87.5 4zM467 16q-23 -16 -67 -16l-57 225q-48 -3 -100.5 -5t-111.5 -2q-18 -96 -33 -218q-44 -2 -69 9l4 34q4 23 10 66.5t17 108.5q-18 0 -39 0.5
t-45 1.5q-7 40 2 69q26 -1 49 -1.5t46 -0.5q20 100 46 215.5t61 250.5l83 29q67 -232 118 -422.5t86 -343.5z" />
    <glyph glyph-name="Acircumflex" unicode="&#xc2;" horiz-adv-x="491" 
d="M330 801l-117 121l-97 -116l-62 39l134 142h47l141 -146zM326 294q-24 93 -48 184t-50 182q-26 -108 -46.5 -200.5t-36.5 -172.5q48 1 93.5 3t87.5 4zM467 16q-23 -16 -67 -16l-57 225q-48 -3 -100.5 -5t-111.5 -2q-18 -96 -33 -218q-44 -2 -69 9l4 34q4 23 10 66.5
t17 108.5q-18 0 -39 0.5t-45 1.5q-7 40 2 69q26 -1 49 -1.5t46 -0.5q20 100 46 215.5t61 250.5l83 29q67 -232 118 -422.5t86 -343.5z" />
    <glyph glyph-name="Atilde" unicode="&#xc3;" horiz-adv-x="487" 
d="M432 991q4 -42 -11 -79t-43 -61q-32 -28 -75.5 -30.5t-82.5 12.5q-15 6 -30 21t-30.5 26t-30.5 11.5t-29 -22.5q-5 -8 -9.5 -19.5t-8.5 -24t-7.5 -24t-4.5 -20.5l-56 22q8 25 17 51t24 46t37 32.5t55 12.5q21 0 40 -11t36 -25q14 -11 30 -17.5t26 -7.5q13 -2 31.5 2
t32.5 16q32 29 26 81zM326 294q-24 93 -48 184t-50 182q-26 -108 -46.5 -200.5t-36.5 -172.5q48 1 93.5 3t87.5 4zM467 16q-23 -16 -67 -16l-57 225q-48 -3 -100.5 -5t-111.5 -2q-18 -96 -33 -218q-44 -2 -69 9l4 34q4 23 10 66.5t17 108.5q-18 0 -39 0.5t-45 1.5
q-7 40 2 69q26 -1 49 -1.5t46 -0.5q20 100 46 215.5t61 250.5l83 29q67 -232 118 -422.5t86 -343.5z" />
    <glyph glyph-name="Adieresis" unicode="&#xc4;" horiz-adv-x="493" 
d="M188 885q-1 -12 -4 -25t-9.5 -22.5t-17.5 -15t-28 -3.5t-26.5 19.5t-9.5 30.5q0 23 14.5 39.5t38.5 16.5q19 0 31 -11.5t11 -28.5zM332 911q12 -18 9.5 -41t-10.5 -40q-3 -9 -12 -13t-19 -5q-9 0 -18.5 3t-15.5 9q-7 7 -10 18.5t-3 24t3 24t8 19.5q11 13 35 15
q10 0 18 -2.5t15 -11.5zM326 294q-24 93 -48 184t-50 182q-26 -108 -46.5 -200.5t-36.5 -172.5q48 1 93.5 3t87.5 4zM467 16q-23 -16 -67 -16l-57 225q-48 -3 -100.5 -5t-111.5 -2q-18 -96 -33 -218q-44 -2 -69 9l4 34q4 23 10 66.5t17 108.5q-18 0 -39 0.5t-45 1.5
q-7 40 2 69q26 -1 49 -1.5t46 -0.5q20 100 46 215.5t61 250.5l83 29q67 -232 118 -422.5t86 -343.5z" />
    <glyph glyph-name="Aring" unicode="&#xc5;" horiz-adv-x="481" 
d="M302 928q0 48 -17.5 75t-65.5 27q-38 0 -54.5 -29t-16.5 -81q0 -32 24 -44.5t67 -12.5q18 0 30 7t19.5 17t10.5 21t3 20zM326 294q-24 93 -48 184t-50 182q-26 -108 -46.5 -200.5t-36.5 -172.5q48 1 93.5 3t87.5 4zM360 928q0 -21 -8 -42t-23.5 -38.5t-38 -28
t-51.5 -10.5q-21 0 -47 4t-48.5 15.5t-37.5 33.5t-15 58q0 25 4.5 53.5t18 53t39 41t66.5 16.5q37 0 63.5 -11.5t43.5 -32.5t25.5 -49.5t8.5 -62.5zM467 16q-23 -16 -67 -16l-57 225q-48 -3 -100.5 -5t-111.5 -2q-18 -96 -33 -218q-44 -2 -69 9l4 34q4 23 10 66.5t17 108.5
q-18 0 -39 0.5t-45 1.5q-7 40 2 69q26 -1 49 -1.5t46 -0.5q20 100 46 215.5t61 250.5l83 29q67 -232 118 -422.5t86 -343.5z" />
    <glyph glyph-name="AE" unicode="&#xc6;" horiz-adv-x="786" 
d="M388 286q-6 96 -12.5 189.5t-14.5 187.5q-46 -100 -83.5 -187.5t-68.5 -162.5q48 -8 92.5 -15t86.5 -12zM741 85q-73 -11 -141.5 -29t-138.5 -44q-13 -11 -27.5 -21.5t-28.5 -7.5q-2 25 -4 65t-6 97l-5 70q-92 10 -208 33q-19 -47 -37.5 -98.5t-36.5 -109.5q-43 8 -66 22
l11 32q8 23 22 64.5t37 103.5l-82 17q1 21 4.5 38t11.5 29l92 -19q38 94 86 202.5t108 234.5l88 12l8 -96h16q13 0 75.5 3t177.5 10q9 -27 3 -69l-34 -2q-36 -2 -98 -5.5t-133 -6.5q5 -55 9 -105.5t9 -98.5l1 -7q55 7 113.5 14t116.5 18q10 -14 12.5 -30.5t0.5 -37.5l-33 -5
q-49 -8 -100 -15.5t-104 -13.5q5 -63 9.5 -121.5t7.5 -115.5q60 21 122 35.5t130 25.5q14 -30 12 -68z" />
    <glyph glyph-name="Ccedilla" unicode="&#xc7;" horiz-adv-x="524" 
d="M407 443q1 7 1.5 18.5t0.5 23.5v23v18q0 52 -34.5 83t-89.5 31q-47 0 -80.5 -26.5t-56 -65.5t-33 -84.5t-10.5 -82.5q0 -26 1 -60.5t5.5 -72t14 -75.5t27.5 -71q20 -37 52.5 -56t74.5 -19q36 0 63 7t43 27q19 25 25 63.5t6 73.5l62 -2q-1 -32 -6 -70t-20 -72.5t-42 -60.5
t-71 -34q20 -28 27 -56t-7 -67q-7 -20 -19.5 -38t-30 -30t-40.5 -17t-51 2q-25 6 -41 21.5t-7 38.5q3 10 11.5 20t19.5 16.5t24.5 9.5t27.5 0q13 -3 22.5 -11t15.5 -18q7 11 10 19q11 31 -3.5 58t-40.5 50q-15 2 -33 7.5t-36.5 14.5t-35 20t-26.5 23q-30 35 -47.5 79
t-27 90.5t-12.5 92t-3 84.5q0 53 14 113.5t44 111.5t77 84.5t113 33.5q43 0 78.5 -15t60 -41t38.5 -61.5t16 -77.5l2 -65q-19 -7 -36 -7.5t-37 -0.5z" />
    <glyph glyph-name="Egrave" unicode="&#xc8;" 
d="M298 662l-231 194l52 75l218 -230zM404 54q-86 -14 -167 -36.5t-167 -57.5l-6 264q-3 0 -12 -1t-19.5 -2t-19.5 -2.5t-12 -1.5l-1 71q4 0 12.5 0.5t18.5 1t18.5 1.5t12.5 1l-5 290q15 -1 31 -1h33q13 0 75.5 3t177.5 11q9 -29 3 -69l-34 -3q-37 -2 -90 -5.5t-125 -6.5
l3 -211q54 7 113 14t117 18q19 -28 13 -67l-34 -6q-49 -9 -101 -16t-106 -13l4 -170q62 22 124.5 36.5t131.5 25.5q14 -27 11 -68z" />
    <glyph glyph-name="Eacute" unicode="&#xc9;" horiz-adv-x="442" 
d="M137 628l-40 39l218 230l52 -75zM404 54q-86 -14 -167 -36.5t-167 -57.5l-6 264q-3 0 -12 -1t-19.5 -2t-19.5 -2.5t-12 -1.5l-1 71q4 0 12.5 0.5t18.5 1t18.5 1.5t12.5 1l-5 290q15 -1 31 -1h33q13 0 75.5 3t177.5 11q9 -29 3 -69l-34 -3q-37 -2 -90 -5.5t-125 -6.5
l3 -211q54 7 113 14t117 18q19 -28 13 -67l-34 -6q-49 -9 -101 -16t-106 -13l4 -170q62 22 124.5 36.5t131.5 25.5q14 -27 11 -68z" />
    <glyph glyph-name="Ecircumflex" unicode="&#xca;" horiz-adv-x="446" 
d="M335 670l-117 121l-97 -116l-62 39l134 142h47l141 -146zM404 54q-86 -14 -167 -36.5t-167 -57.5l-6 264q-3 0 -12 -1t-19.5 -2t-19.5 -2.5t-12 -1.5l-1 71q4 0 12.5 0.5t18.5 1t18.5 1.5t12.5 1l-5 290q15 -1 31 -1h33q13 0 75.5 3t177.5 11q9 -29 3 -69l-34 -3
q-37 -2 -90 -5.5t-125 -6.5l3 -211q54 7 113 14t117 18q19 -28 13 -67l-34 -6q-49 -9 -101 -16t-106 -13l4 -170q62 22 124.5 36.5t131.5 25.5q14 -27 11 -68z" />
    <glyph glyph-name="Edieresis" unicode="&#xcb;" horiz-adv-x="442" 
d="M184 736q-1 -12 -4 -25t-9.5 -22.5t-17.5 -15t-28 -3.5t-26.5 19.5t-9.5 30.5q0 23 14.5 39.5t38.5 16.5q19 0 31 -11.5t11 -28.5zM328 762q12 -18 9.5 -41t-10.5 -40q-3 -9 -12 -13t-19 -5q-9 0 -18.5 3t-15.5 9q-7 7 -10 18.5t-3 24t3 24t8 19.5q11 13 35 15
q10 0 18 -2.5t15 -11.5zM404 54q-86 -14 -167 -36.5t-167 -57.5l-6 264q-3 0 -12 -1t-19.5 -2t-19.5 -2.5t-12 -1.5l-1 71q4 0 12.5 0.5t18.5 1t18.5 1.5t12.5 1l-5 290q15 -1 31 -1h33q13 0 75.5 3t177.5 11q9 -29 3 -69l-34 -3q-37 -2 -90 -5.5t-125 -6.5l3 -211
q54 7 113 14t117 18q19 -28 13 -67l-34 -6q-49 -9 -101 -16t-106 -13l4 -170q62 22 124.5 36.5t131.5 25.5q14 -27 11 -68z" />
    <glyph glyph-name="Igrave" unicode="&#xcc;" horiz-adv-x="373" 
d="M249 705l-231 194l52 75l218 -230zM283 11l-228 3q-10 32 -1 69h34l62 -3q-5 129 -9 210q-1 23 -2.5 58.5t-4 74.5l-5 78t-5.5 69q-12 -1 -35 -3.5t-58 -6.5q-18 43 -7 69l34 3l118 13q6 1 27.5 1.5t58.5 2.5l34 3q10 -41 4 -69l-35 -3l-72 -3q4 -35 8 -90t8.5 -121.5
t9.5 -140t10 -145.5h88q7 -39 0 -69h-34z" />
    <glyph glyph-name="Iacute" unicode="&#xcd;" horiz-adv-x="370" 
d="M80 674l-40 39l218 230l52 -75zM283 11l-228 3q-10 32 -1 69h34l62 -3q-5 129 -9 210q-1 23 -2.5 58.5t-4 74.5l-5 78t-5.5 69q-12 -1 -35 -3.5t-58 -6.5q-18 43 -7 69l34 3l118 13q6 1 27.5 1.5t58.5 2.5l34 3q10 -41 4 -69l-35 -3l-72 -3q4 -35 8 -90t8.5 -121.5
t9.5 -140t10 -145.5h88q7 -39 0 -69h-34z" />
    <glyph glyph-name="Icircumflex" unicode="&#xce;" horiz-adv-x="370" 
d="M290 706l-117 121l-97 -116l-62 39l134 142h47l141 -146zM283 11l-228 3q-10 32 -1 69h34l62 -3q-5 129 -9 210q-1 23 -2.5 58.5t-4 74.5l-5 78t-5.5 69q-12 -1 -35 -3.5t-58 -6.5q-18 43 -7 69l34 3l118 13q6 1 27.5 1.5t58.5 2.5l34 3q10 -41 4 -69l-35 -3l-72 -3
q4 -35 8 -90t8.5 -121.5t9.5 -140t10 -145.5h88q7 -39 0 -69h-34z" />
    <glyph glyph-name="Idieresis" unicode="&#xcf;" horiz-adv-x="373" 
d="M139 761q-1 -12 -4 -25t-9.5 -22.5t-17.5 -15t-28 -3.5t-26.5 19.5t-9.5 30.5q0 23 14.5 39.5t38.5 16.5q19 0 31 -11.5t11 -28.5zM283 787q12 -18 9.5 -41t-10.5 -40q-3 -9 -12 -13t-19 -5q-9 0 -18.5 3t-15.5 9q-7 7 -10 18.5t-3 24t3 24t8 19.5q11 13 35 15
q10 0 18 -2.5t15 -11.5zM283 11l-228 3q-10 32 -1 69h34l62 -3q-5 129 -9 210q-1 23 -2.5 58.5t-4 74.5l-5 78t-5.5 69q-12 -1 -35 -3.5t-58 -6.5q-18 43 -7 69l34 3l118 13q6 1 27.5 1.5t58.5 2.5l34 3q10 -41 4 -69l-35 -3l-72 -3q4 -35 8 -90t8.5 -121.5t9.5 -140
t10 -145.5h88q7 -39 0 -69h-34z" />
    <glyph glyph-name="Eth" unicode="&#xd0;" horiz-adv-x="483" 
d="M373 364q0 43 -12.5 71t-29.5 42q-50 44 -149 50l4 -168q26 2 48.5 3.5t38.5 3.5l6 -74q-17 -2 -40.5 -3.5t-50.5 -3.5l4 -177q31 2 54.5 12t41 24.5t29.5 31.5t20 32q16 29 26 71t10 85zM444 350q0 -59 -14 -106t-33 -83q-61 -115 -272 -153l-6 274q-29 -1 -54.5 -2.5
t-42.5 -3.5l-5 74q18 2 44.5 3.5t55.5 2.5l-4 172q-2 0 -17.5 -0.5t-43.5 -1.5q-9 34 -2 69q32 1 54.5 1.5t34.5 0.5q157 0 236 -67q29 -25 49 -69.5t20 -110.5z" />
    <glyph glyph-name="Ntilde" unicode="&#xd1;" horiz-adv-x="487" 
d="M440 986q4 -42 -11 -79t-43 -61q-32 -28 -75.5 -30.5t-82.5 12.5q-15 6 -30 21t-30.5 26t-30.5 11.5t-29 -22.5q-5 -8 -9.5 -19.5t-8.5 -24t-7.5 -24t-4.5 -20.5l-56 22q8 25 17 51t24 46t37 32.5t55 12.5q21 0 40 -11t36 -25q14 -11 30 -17.5t26 -7.5q13 -2 31.5 2
t32.5 16q32 29 26 81zM450 -103q-52 78 -115.5 175t-137.5 218q-14 22 -32.5 60t-44.5 93q33 -324 60 -523q-35 -12 -69 -9l-5 34q-15 111 -34 289.5t-43 428.5l48 33q74 -156 119 -248.5t62 -123.5q14 -27 41 -70.5t66 -103.5q-12 302 -3 608q29 9 69 -2q-3 -125 -3 -247
q0 -156 5.5 -308t16.5 -304z" />
    <glyph glyph-name="Ograve" unicode="&#xd2;" horiz-adv-x="743" 
d="M444 769l-231 194l52 75l218 -230zM573 376q0 117 -54 192q-54 76 -136 76q-15 0 -30.5 -2.5t-32.5 -8.5q-97 -37 -151.5 -111.5t-54.5 -183.5q0 -42 4.5 -82.5t16.5 -77.5t33 -69.5t54 -58.5q26 -21 56 -29.5t61 -8.5q80 0 140 69q66 78 89 229q2 17 3.5 33.5t1.5 32.5z
M658 374q0 -15 -1.5 -31t-3.5 -32q-26 -187 -126 -286q-87 -88 -203 -88q-89 0 -159 52q-38 28 -63 69.5t-40 89t-21 97.5t-6 95q0 275 240 365q21 8 43 11.5t45 3.5q119 0 205 -96q90 -99 90 -250z" />
    <glyph glyph-name="Oacute" unicode="&#xd3;" horiz-adv-x="740" 
d="M263 754l-40 39l218 230l52 -75zM573 376q0 117 -54 192q-54 76 -136 76q-15 0 -30.5 -2.5t-32.5 -8.5q-97 -37 -151.5 -111.5t-54.5 -183.5q0 -42 4.5 -82.5t16.5 -77.5t33 -69.5t54 -58.5q26 -21 56 -29.5t61 -8.5q80 0 140 69q66 78 89 229q2 17 3.5 33.5t1.5 32.5z
M658 374q0 -15 -1.5 -31t-3.5 -32q-26 -187 -126 -286q-87 -88 -203 -88q-89 0 -159 52q-38 28 -63 69.5t-40 89t-21 97.5t-6 95q0 275 240 365q21 8 43 11.5t45 3.5q119 0 205 -96q90 -99 90 -250z" />
    <glyph glyph-name="Ocircumflex" unicode="&#xd4;" horiz-adv-x="746" 
d="M477 755l-117 121l-97 -116l-62 39l134 142h47l141 -146zM573 376q0 117 -54 192q-54 76 -136 76q-15 0 -30.5 -2.5t-32.5 -8.5q-97 -37 -151.5 -111.5t-54.5 -183.5q0 -42 4.5 -82.5t16.5 -77.5t33 -69.5t54 -58.5q26 -21 56 -29.5t61 -8.5q80 0 140 69q66 78 89 229
q2 17 3.5 33.5t1.5 32.5zM658 374q0 -15 -1.5 -31t-3.5 -32q-26 -187 -126 -286q-87 -88 -203 -88q-89 0 -159 52q-38 28 -63 69.5t-40 89t-21 97.5t-6 95q0 275 240 365q21 8 43 11.5t45 3.5q119 0 205 -96q90 -99 90 -250z" />
    <glyph glyph-name="Otilde" unicode="&#xd5;" horiz-adv-x="722" 
d="M542 952q4 -42 -11 -79t-43 -61q-32 -28 -75.5 -30.5t-82.5 12.5q-15 6 -30 21t-30.5 26t-30.5 11.5t-29 -22.5q-5 -8 -9.5 -19.5t-8.5 -24t-7.5 -24t-4.5 -20.5l-56 22q8 25 17 51t24 46t37 32.5t55 12.5q21 0 40 -11t36 -25q14 -11 30 -17.5t26 -7.5q13 -2 31.5 2
t32.5 16q32 29 26 81zM573 376q0 117 -54 192q-54 76 -136 76q-15 0 -30.5 -2.5t-32.5 -8.5q-97 -37 -151.5 -111.5t-54.5 -183.5q0 -42 4.5 -82.5t16.5 -77.5t33 -69.5t54 -58.5q26 -21 56 -29.5t61 -8.5q80 0 140 69q66 78 89 229q2 17 3.5 33.5t1.5 32.5zM658 374
q0 -15 -1.5 -31t-3.5 -32q-26 -187 -126 -286q-87 -88 -203 -88q-89 0 -159 52q-38 28 -63 69.5t-40 89t-21 97.5t-6 95q0 275 240 365q21 8 43 11.5t45 3.5q119 0 205 -96q90 -99 90 -250z" />
    <glyph glyph-name="Odieresis" unicode="&#xd6;" horiz-adv-x="732" 
d="M318 836q-1 -12 -4 -25t-9.5 -22.5t-17.5 -15t-28 -3.5t-26.5 19.5t-9.5 30.5q0 23 14.5 39.5t38.5 16.5q19 0 31 -11.5t11 -28.5zM462 862q12 -18 9.5 -41t-10.5 -40q-3 -9 -12 -13t-19 -5q-9 0 -18.5 3t-15.5 9q-7 7 -10 18.5t-3 24t3 24t8 19.5q11 13 35 15
q10 0 18 -2.5t15 -11.5zM573 376q0 117 -54 192q-54 76 -136 76q-15 0 -30.5 -2.5t-32.5 -8.5q-97 -37 -151.5 -111.5t-54.5 -183.5q0 -42 4.5 -82.5t16.5 -77.5t33 -69.5t54 -58.5q26 -21 56 -29.5t61 -8.5q80 0 140 69q66 78 89 229q2 17 3.5 33.5t1.5 32.5zM658 374
q0 -15 -1.5 -31t-3.5 -32q-26 -187 -126 -286q-87 -88 -203 -88q-89 0 -159 52q-38 28 -63 69.5t-40 89t-21 97.5t-6 95q0 275 240 365q21 8 43 11.5t45 3.5q119 0 205 -96q90 -99 90 -250z" />
    <glyph glyph-name="multiply" unicode="&#xd7;" horiz-adv-x="456" 
d="M362 147q-26 25 -52 49q-22 20 -45 42.5t-40 38.5q-18 -19 -39.5 -40.5t-39.5 -40.5q-22 -22 -43 -45l-49 48l120 125q-16 13 -39 34t-45 41q-26 24 -54 49l47 51q28 -26 54 -50q23 -20 46 -41.5t38 -33.5q17 17 37.5 40t40.5 43q22 24 46 48l50 -47q-23 -23 -45 -47
q-19 -20 -40 -43t-38 -40q17 -17 41 -39.5t46 -43.5q26 -25 53 -50z" />
    <glyph glyph-name="Oslash" unicode="&#xd8;" horiz-adv-x="752" 
d="M453 676q-14 5 -28 7.5t-29 2.5q-33 0 -67 -12q-104 -37 -162 -113t-58 -186q0 -38 4 -74.5t14 -71t27 -65.5t43 -57q20 42 40.5 85t39 82.5t33.5 72.5t24 54q8 20 21 50.5t29 67t33.5 77t35.5 80.5zM600 413q0 117 -58 195q-7 8 -13 15.5t-14 13.5q-17 -38 -34.5 -76
t-33.5 -72.5t-28.5 -64t-20.5 -49.5q-9 -23 -25 -58t-35.5 -76.5t-41.5 -87t-43 -88.5q23 -11 47.5 -16t49.5 -5q86 0 149 71q71 79 94 231q3 17 5 34t2 33zM683 411q0 -15 -1 -31t-3 -32q-28 -187 -133 -287q-92 -87 -212 -87q-30 0 -59 5.5t-55 17.5q-14 -27 -24.5 -49.5
t-18.5 -39.5l-17 -34l-62 30q7 16 17 36q8 17 19.5 40l25.5 51q-37 28 -61.5 69t-39.5 88t-21 96t-6 93q0 275 251 365q45 15 92 15q57 0 105 -19q15 35 28.5 65.5t23.5 53.5q11 26 22 49q23 -7 35.5 -17.5t26.5 -35.5q-10 -20 -21 -44q-10 -20 -22.5 -48t-27.5 -60
q12 -8 23 -18.5t22 -21.5q93 -99 93 -250z" />
    <glyph glyph-name="Ugrave" unicode="&#xd9;" horiz-adv-x="460" 
d="M285 681l-231 194l52 75l218 -230zM388 269q0 -80 -38 -145q-8 -13 -22 -26.5t-36 -27.5q-45 -30 -75 -34q-20 -4 -42 1.5t-48 18.5q-53 26 -71 67q-5 12 -10 63t-10 122t-9.5 151t-8.5 149q39 9 80 5l3 -35q1 -10 1.5 -32.5t1 -51t0.5 -59.5t0.5 -59.5t1 -51t1.5 -32.5
q8 -126 16 -144q9 -20 40 -33q29 -13 44 -10q10 1 22 5t27 11q30 13 37 25q33 55 33 107q0 7 -0.5 29.5t-1.5 54t-2.5 68.5t-2.5 74t-2 70.5t-2 58.5l-1 35q36 8 69 2l1 -34q1 -23 1.5 -54.5t1 -67.5t0.5 -72t0.5 -66.5t0.5 -52.5v-29z" />
    <glyph glyph-name="Uacute" unicode="&#xda;" horiz-adv-x="460" 
d="M124 676l-40 39l218 230l52 -75zM388 269q0 -80 -38 -145q-8 -13 -22 -26.5t-36 -27.5q-45 -30 -75 -34q-20 -4 -42 1.5t-48 18.5q-53 26 -71 67q-5 12 -10 63t-10 122t-9.5 151t-8.5 149q39 9 80 5l3 -35q1 -10 1.5 -32.5t1 -51t0.5 -59.5t0.5 -59.5t1 -51t1.5 -32.5
q8 -126 16 -144q9 -20 40 -33q29 -13 44 -10q10 1 22 5t27 11q30 13 37 25q33 55 33 107q0 7 -0.5 29.5t-1.5 54t-2.5 68.5t-2.5 74t-2 70.5t-2 58.5l-1 35q36 8 69 2l1 -34q1 -23 1.5 -54.5t1 -67.5t0.5 -72t0.5 -66.5t0.5 -52.5v-29z" />
    <glyph glyph-name="Ucircumflex" unicode="&#xdb;" horiz-adv-x="460" 
d="M319 711l-117 121l-97 -116l-62 39l134 142h47l141 -146zM388 269q0 -80 -38 -145q-8 -13 -22 -26.5t-36 -27.5q-45 -30 -75 -34q-20 -4 -42 1.5t-48 18.5q-53 26 -71 67q-5 12 -10 63t-10 122t-9.5 151t-8.5 149q39 9 80 5l3 -35q1 -10 1.5 -32.5t1 -51t0.5 -59.5
t0.5 -59.5t1 -51t1.5 -32.5q8 -126 16 -144q9 -20 40 -33q29 -13 44 -10q10 1 22 5t27 11q30 13 37 25q33 55 33 107q0 7 -0.5 29.5t-1.5 54t-2.5 68.5t-2.5 74t-2 70.5t-2 58.5l-1 35q36 8 69 2l1 -34q1 -23 1.5 -54.5t1 -67.5t0.5 -72t0.5 -66.5t0.5 -52.5v-29z" />
    <glyph glyph-name="Udieresis" unicode="&#xdc;" horiz-adv-x="445" 
d="M175 762q-1 -12 -4 -25t-9.5 -22.5t-17.5 -15t-28 -3.5t-26.5 19.5t-9.5 30.5q0 23 14.5 39.5t38.5 16.5q19 0 31 -11.5t11 -28.5zM319 788q12 -18 9.5 -41t-10.5 -40q-3 -9 -12 -13t-19 -5q-9 0 -18.5 3t-15.5 9q-7 7 -10 18.5t-3 24t3 24t8 19.5q11 13 35 15
q10 0 18 -2.5t15 -11.5zM388 269q0 -80 -38 -145q-8 -13 -22 -26.5t-36 -27.5q-45 -30 -75 -34q-20 -4 -42 1.5t-48 18.5q-53 26 -71 67q-5 12 -10 63t-10 122t-9.5 151t-8.5 149q39 9 80 5l3 -35q1 -10 1.5 -32.5t1 -51t0.5 -59.5t0.5 -59.5t1 -51t1.5 -32.5
q8 -126 16 -144q9 -20 40 -33q29 -13 44 -10q10 1 22 5t27 11q30 13 37 25q33 55 33 107q0 7 -0.5 29.5t-1.5 54t-2.5 68.5t-2.5 74t-2 70.5t-2 58.5l-1 35q36 8 69 2l1 -34q1 -23 1.5 -54.5t1 -67.5t0.5 -72t0.5 -66.5t0.5 -52.5v-29z" />
    <glyph glyph-name="Yacute" unicode="&#xdd;" horiz-adv-x="563" 
d="M282 743l-40 39l218 230l52 -75zM517 634q-31 -59 -67 -141.5t-82 -188.5q-24 -58 -50 -118.5t-49.5 -114.5t-43 -97t-29.5 -66l-15 -32l-62 30l15 31q15 30 35.5 77t44 101t47 110.5t44.5 106.5l1 1l-293 317q31 58 61 71l24 -24q23 -35 54.5 -78t64.5 -84t63.5 -75.5
t52.5 -53.5q17 46 138 289q46 -12 62 -30z" />
    <glyph glyph-name="Thorn" unicode="&#xde;" horiz-adv-x="531" 
d="M429 424q0 71 -61 105q-51 30 -134 30q-30 1 -111 -17l13 -360q21 -3 44 -3q98 -1 157 47q56 47 84 141q5 15 6.5 29t1.5 28zM513 439q0 -90 -61 -179q-61 -90 -144 -127q-26 -12 -57.5 -17.5t-68.5 -5.5h-21.5t-21.5 2l19 -232q-73 -17 -93 -11l-2 34q2 10 3 32t1 56
q0 10 -1.5 64t-4 148.5t-6.5 228t-10 304.5q3 1 14 2t24 3q14 2 32 3q-1 -28 0 -54q0 -23 1 -46t3 -38q12 2 31.5 8t34.5 9q18 3 36 3.5t35 0.5q183 0 237 -103q20 -38 20 -85z" />
    <glyph glyph-name="germandbls" unicode="&#xdf;" horiz-adv-x="500" 
d="M453 187q-5 -44 -22 -80t-44 -61.5t-61 -39.5t-71 -14q-28 0 -50 9t-44 23l-21 14l35 71q14 -15 32 -28t44 -13q23 0 46 13t41.5 33.5t29.5 45.5t11 50q-1 43 -12.5 73t-29.5 50t-40.5 31.5t-45.5 17t-44.5 6.5t-37.5 0l2 73q10 5 20 9t22 8l56 20q13 5 24 19t19 30
t12 31t4 21q0 21 -10.5 39.5t-26.5 32t-35.5 21.5t-37.5 8q-23 0 -38.5 -10t-25.5 -25.5t-16 -36t-9 -41.5t-5 -57.5t-3.5 -79t-2.5 -85t-1 -73.5q0 -30 1 -67t2 -78t-1 -86t-8 -91q-2 -14 -7.5 -24.5t-7.5 -18.5q-18 -65 -62 -102q-38 -31 -89 -31q-65 0 -109 51l53 57
q29 -36 65 -36q23 0 38 11.5t24 29t13.5 38t6.5 38.5q11 85 10 153t-3 132q-2 86 0 169t13 168q7 50 24.5 82.5t41 51t51 26t54.5 7.5q31 0 60.5 -13t53.5 -34.5t40 -50.5t19 -61q1 -12 -0.5 -28t-6 -34t-12.5 -36t-19 -32t-30.5 -24.5t-34.5 -18.5q19 -8 48 -26.5t55 -49.5
t42.5 -75t10.5 -102z" />
    <glyph glyph-name="agrave" unicode="&#xe0;" horiz-adv-x="457" 
d="M314 651l-231 194l52 75l218 -230zM293 228q-17 18 -42.5 32t-51.5 14q-20 0 -37.5 -11t-30 -28t-19.5 -37t-7 -38q0 -57 24.5 -82.5t62.5 -25.5q19 0 38.5 11.5t35.5 29t28 37t17 36.5l10 33zM425 -24q-32 -21 -57.5 -31.5t-46.5 -8.5l-1 129q-29 -36 -60.5 -56
t-69.5 -20q-65 0 -110 39q-49 43 -49 112q0 24 6 50q17 71 61 109q41 35 98 35q64 0 120 -43l-1 83q-1 32 -1 48t-2 26q-8 56 -39 65q-12 4 -28 4h-19t-21 -2q-25 -3 -48 -14q-17 -9 -28.5 -17t-18.5 -15q-7 5 -11 15t-8 24q-3 14 -5 25t-2 21q56 41 139 41q38 0 71 -12
q62 -20 81 -88q7 -20 9.5 -50t2.5 -71q0 -16 -0.5 -36t-1.5 -55q-1 -36 -1 -55.5v-38.5q0 -179 41 -213z" />
    <glyph glyph-name="aacute" unicode="&#xe1;" horiz-adv-x="463" 
d="M148 663l-40 39l218 230l52 -75zM293 228q-17 18 -42.5 32t-51.5 14q-20 0 -37.5 -11t-30 -28t-19.5 -37t-7 -38q0 -57 24.5 -82.5t62.5 -25.5q19 0 38.5 11.5t35.5 29t28 37t17 36.5l10 33zM425 -24q-32 -21 -57.5 -31.5t-46.5 -8.5l-1 129q-29 -36 -60.5 -56t-69.5 -20
q-65 0 -110 39q-49 43 -49 112q0 24 6 50q17 71 61 109q41 35 98 35q64 0 120 -43l-1 83q-1 32 -1 48t-2 26q-8 56 -39 65q-12 4 -28 4h-19t-21 -2q-25 -3 -48 -14q-17 -9 -28.5 -17t-18.5 -15q-7 5 -11 15t-8 24q-3 14 -5 25t-2 21q56 41 139 41q38 0 71 -12q62 -20 81 -88
q7 -20 9.5 -50t2.5 -71q0 -16 -0.5 -36t-1.5 -55q-1 -36 -1 -55.5v-38.5q0 -179 41 -213z" />
    <glyph glyph-name="acircumflex" unicode="&#xe2;" horiz-adv-x="448" 
d="M329 645l-117 121l-97 -116l-62 39l134 142h47l141 -146zM293 228q-17 18 -42.5 32t-51.5 14q-20 0 -37.5 -11t-30 -28t-19.5 -37t-7 -38q0 -57 24.5 -82.5t62.5 -25.5q19 0 38.5 11.5t35.5 29t28 37t17 36.5l10 33zM425 -24q-32 -21 -57.5 -31.5t-46.5 -8.5l-1 129
q-29 -36 -60.5 -56t-69.5 -20q-65 0 -110 39q-49 43 -49 112q0 24 6 50q17 71 61 109q41 35 98 35q64 0 120 -43l-1 83q-1 32 -1 48t-2 26q-8 56 -39 65q-12 4 -28 4h-19t-21 -2q-25 -3 -48 -14q-17 -9 -28.5 -17t-18.5 -15q-7 5 -11 15t-8 24q-3 14 -5 25t-2 21
q56 41 139 41q38 0 71 -12q62 -20 81 -88q7 -20 9.5 -50t2.5 -71q0 -16 -0.5 -36t-1.5 -55q-1 -36 -1 -55.5v-38.5q0 -179 41 -213z" />
    <glyph glyph-name="atilde" unicode="&#xe3;" horiz-adv-x="460" 
d="M416 891q4 -42 -11 -79t-43 -61q-32 -28 -75.5 -30.5t-82.5 12.5q-15 6 -30 21t-30.5 26t-30.5 11.5t-29 -22.5q-5 -8 -9.5 -19.5t-8.5 -24t-7.5 -24t-4.5 -20.5l-56 22q8 25 17 51t24 46t37 32.5t55 12.5q21 0 40 -11t36 -25q14 -11 30 -17.5t26 -7.5q13 -2 31.5 2
t32.5 16q32 29 26 81zM293 228q-17 18 -42.5 32t-51.5 14q-20 0 -37.5 -11t-30 -28t-19.5 -37t-7 -38q0 -57 24.5 -82.5t62.5 -25.5q19 0 38.5 11.5t35.5 29t28 37t17 36.5l10 33zM425 -24q-32 -21 -57.5 -31.5t-46.5 -8.5l-1 129q-29 -36 -60.5 -56t-69.5 -20
q-65 0 -110 39q-49 43 -49 112q0 24 6 50q17 71 61 109q41 35 98 35q64 0 120 -43l-1 83q-1 32 -1 48t-2 26q-8 56 -39 65q-12 4 -28 4h-19t-21 -2q-25 -3 -48 -14q-17 -9 -28.5 -17t-18.5 -15q-7 5 -11 15t-8 24q-3 14 -5 25t-2 21q56 41 139 41q38 0 71 -12q62 -20 81 -88
q7 -20 9.5 -50t2.5 -71q0 -16 -0.5 -36t-1.5 -55q-1 -36 -1 -55.5v-38.5q0 -179 41 -213z" />
    <glyph glyph-name="adieresis" unicode="&#xe4;" horiz-adv-x="454" 
d="M192 737q-1 -12 -4 -25t-9.5 -22.5t-17.5 -15t-28 -3.5t-26.5 19.5t-9.5 30.5q0 23 14.5 39.5t38.5 16.5q19 0 31 -11.5t11 -28.5zM336 763q12 -18 9.5 -41t-10.5 -40q-3 -9 -12 -13t-19 -5q-9 0 -18.5 3t-15.5 9q-7 7 -10 18.5t-3 24t3 24t8 19.5q11 13 35 15
q10 0 18 -2.5t15 -11.5zM293 228q-17 18 -42.5 32t-51.5 14q-20 0 -37.5 -11t-30 -28t-19.5 -37t-7 -38q0 -57 24.5 -82.5t62.5 -25.5q19 0 38.5 11.5t35.5 29t28 37t17 36.5l10 33zM425 -24q-32 -21 -57.5 -31.5t-46.5 -8.5l-1 129q-29 -36 -60.5 -56t-69.5 -20
q-65 0 -110 39q-49 43 -49 112q0 24 6 50q17 71 61 109q41 35 98 35q64 0 120 -43l-1 83q-1 32 -1 48t-2 26q-8 56 -39 65q-12 4 -28 4h-19t-21 -2q-25 -3 -48 -14q-17 -9 -28.5 -17t-18.5 -15q-7 5 -11 15t-8 24q-3 14 -5 25t-2 21q56 41 139 41q38 0 71 -12q62 -20 81 -88
q7 -20 9.5 -50t2.5 -71q0 -16 -0.5 -36t-1.5 -55q-1 -36 -1 -55.5v-38.5q0 -179 41 -213z" />
    <glyph glyph-name="aring" unicode="&#xe5;" horiz-adv-x="460" 
d="M295 791q0 48 -17.5 75t-65.5 27q-38 0 -54.5 -29t-16.5 -81q0 -32 24 -44.5t67 -12.5q18 0 30 7t19.5 17t10.5 21t3 20zM353 791q0 -21 -8 -42t-23.5 -38.5t-38 -28t-51.5 -10.5q-21 0 -47 4t-48.5 15.5t-37.5 33.5t-15 58q0 25 4.5 53.5t18 53t39 41t66.5 16.5
q37 0 63.5 -11.5t43.5 -32.5t25.5 -49.5t8.5 -62.5zM293 228q-17 18 -42.5 32t-51.5 14q-20 0 -37.5 -11t-30 -28t-19.5 -37t-7 -38q0 -57 24.5 -82.5t62.5 -25.5q19 0 38.5 11.5t35.5 29t28 37t17 36.5l10 33zM425 -24q-32 -21 -57.5 -31.5t-46.5 -8.5l-1 129
q-29 -36 -60.5 -56t-69.5 -20q-65 0 -110 39q-49 43 -49 112q0 24 6 50q17 71 61 109q41 35 98 35q64 0 120 -43l-1 83q-1 32 -1 48t-2 26q-8 56 -39 65q-12 4 -28 4h-19t-21 -2q-25 -3 -48 -14q-17 -9 -28.5 -17t-18.5 -15q-7 5 -11 15t-8 24q-3 14 -5 25t-2 21
q56 41 139 41q38 0 71 -12q62 -20 81 -88q7 -20 9.5 -50t2.5 -71q0 -16 -0.5 -36t-1.5 -55q-1 -36 -1 -55.5v-38.5q0 -179 41 -213z" />
    <glyph glyph-name="ae" unicode="&#xe6;" horiz-adv-x="747" 
d="M620 342q-2 39 -5 66.5t-10 43.5q-23 54 -88 57q-61 5 -99 -75q-33 -67 -31 -135zM321 229l-28 25l-7 6q-48 40 -87 40q-21 0 -38.5 -11t-30.5 -28.5t-20 -38t-7 -38.5q0 -58 25 -84t64 -26q20 0 39 12t35.5 29.5t28.5 37.5t17 36l10 34zM394 229q20 -84 83.5 -124.5
t160.5 -40.5q14 0 28.5 1.5t30.5 3.5q-7 -53 -42 -112l-33 6q-33 6 -65 16t-63 26q-42 21 -71.5 50t-46.5 60q-4 6 -6.5 12.5t-5.5 13.5q-8 -17 -17.5 -29t-19.5 -23q-26 -28 -62.5 -52t-74.5 -24q-64 0 -110 40q-48 43 -48 111q0 24 6 50q17 71 61 109q40 34 96 34
q65 0 122 -45l-1 87q0 32 -1 53.5t-1 31.5q0 28 -12 44.5t-28 22.5q-14 3 -28 3q-36 0 -90 -26q-17 -9 -28.5 -17t-18.5 -15q-9 8 -17 38q-3 14 -5 25t-2 20q56 41 138 41q19 0 36 -3.5t34 -8.5q60 -20 81 -87l2 -9q54 72 135 66q96 -6 144 -79t46 -212z" />
    <glyph glyph-name="ccedilla" unicode="&#xe7;" horiz-adv-x="421" 
d="M401 48q-7 -4 -20 -10.5t-29.5 -14t-34.5 -14.5t-34 -12q-4 -1 -7.5 -2t-7.5 -1q15 -26 18.5 -49.5t-11.5 -55.5q-8 -16 -19.5 -30.5t-27.5 -23.5t-36.5 -11t-44.5 6q-22 8 -33.5 21.5t-3.5 31.5q4 8 11.5 15t18 12t22 6.5t22.5 -2.5q12 -4 20 -12t12 -17q8 8 13 18
q11 24 2.5 46.5t-26.5 43.5h-9q-12 1 -26.5 3.5t-28 6t-25 7.5t-17.5 9q-17 13 -30.5 37t-22.5 54t-12.5 63.5t-0.5 66.5t6.5 64t12 59.5t24.5 54.5t44 49q61 48 133 42q70 -6 122 -58l14 -14l-40 -59l-23 24q-42 42 -67 39q-49 -6 -77 -27.5t-43 -53t-20.5 -70t-8.5 -78.5
q-2 -20 0 -41.5t6.5 -41t10.5 -34.5t14 -21q6 -4 20.5 -7t39.5 -5q48 -3 68 5q31 11 61.5 25.5t59.5 32.5z" />
    <glyph glyph-name="egrave" unicode="&#xe8;" horiz-adv-x="466" 
d="M314 603l-231 194l52 75l218 -230zM325 342q-2 79 -15 110q-23 54 -88 57q-60 4 -99 -75q-33 -67 -31 -135zM101 231q39 -167 232 -167q14 0 28.5 1.5t30.5 3.5q-6 -52 -41 -112l-34 6q-33 6 -65 16t-62 26q-82 41 -119 110q-48 91 -48 192q0 32 5.5 61.5t16.5 56.5
q62 162 182 153q191 -12 186 -289z" />
    <glyph glyph-name="eacute" unicode="&#xe9;" horiz-adv-x="475" 
d="M172 625l-40 39l218 230l52 -75zM325 342q-2 79 -15 110q-23 54 -88 57q-60 4 -99 -75q-33 -67 -31 -135zM101 231q39 -167 232 -167q14 0 28.5 1.5t30.5 3.5q-6 -52 -41 -112l-34 6q-33 6 -65 16t-62 26q-82 41 -119 110q-48 91 -48 192q0 32 5.5 61.5t16.5 56.5
q62 162 182 153q191 -12 186 -289z" />
    <glyph glyph-name="ecircumflex" unicode="&#xea;" horiz-adv-x="463" 
d="M344 630l-117 121l-97 -116l-62 39l134 142h47l141 -146zM325 342q-2 79 -15 110q-23 54 -88 57q-60 4 -99 -75q-33 -67 -31 -135zM101 231q39 -167 232 -167q14 0 28.5 1.5t30.5 3.5q-6 -52 -41 -112l-34 6q-33 6 -65 16t-62 26q-82 41 -119 110q-48 91 -48 192
q0 32 5.5 61.5t16.5 56.5q62 162 182 153q191 -12 186 -289z" />
    <glyph glyph-name="edieresis" unicode="&#xeb;" horiz-adv-x="469" 
d="M196 700q-1 -12 -4 -25t-9.5 -22.5t-17.5 -15t-28 -3.5t-26.5 19.5t-9.5 30.5q0 23 14.5 39.5t38.5 16.5q19 0 31 -11.5t11 -28.5zM340 726q12 -18 9.5 -41t-10.5 -40q-3 -9 -12 -13t-19 -5q-9 0 -18.5 3t-15.5 9q-7 7 -10 18.5t-3 24t3 24t8 19.5q11 13 35 15
q10 0 18 -2.5t15 -11.5zM325 342q-2 79 -15 110q-23 54 -88 57q-60 4 -99 -75q-33 -67 -31 -135zM101 231q39 -167 232 -167q14 0 28.5 1.5t30.5 3.5q-6 -52 -41 -112l-34 6q-33 6 -65 16t-62 26q-82 41 -119 110q-48 91 -48 192q0 32 5.5 61.5t16.5 56.5q62 162 182 153
q191 -12 186 -289z" />
    <glyph glyph-name="igrave" unicode="&#xec;" horiz-adv-x="236" 
d="M138 595l-231 194l52 75l218 -230zM167 210q2 -35 1 -97t-3 -153q-27 -6 -69 3q1 40 0 97t-3.5 123.5t-5.5 139.5t-6 145q18 5 40 5t38 -4l3 -34q0 -8 0.5 -30.5t1.5 -54t1.5 -68t1.5 -72.5z" />
    <glyph glyph-name="iacute" unicode="&#xed;" horiz-adv-x="282" 
d="M90 564l-40 39l218 230l52 -75zM167 210q2 -35 1 -97t-3 -153q-27 -6 -69 3q1 40 0 97t-3.5 123.5t-5.5 139.5t-6 145q18 5 40 5t38 -4l3 -34q0 -8 0.5 -30.5t1.5 -54t1.5 -68t1.5 -72.5z" />
    <glyph glyph-name="icircumflex" unicode="&#xee;" horiz-adv-x="258" 
d="M227 584l-117 121l-97 -116l-62 39l134 142h47l141 -146zM167 210q2 -35 1 -97t-3 -153q-27 -6 -69 3q1 40 0 97t-3.5 123.5t-5.5 139.5t-6 145q18 5 40 5t38 -4l3 -34q0 -8 0.5 -30.5t1.5 -54t1.5 -68t1.5 -72.5z" />
    <glyph glyph-name="idieresis" unicode="&#xef;" horiz-adv-x="282" 
d="M87 700q-1 -12 -4 -25t-9.5 -22.5t-17.5 -15t-28 -3.5t-26.5 19.5t-9.5 30.5q0 23 14.5 39.5t38.5 16.5q19 0 31 -11.5t11 -28.5zM231 726q12 -18 9.5 -41t-10.5 -40q-3 -9 -12 -13t-19 -5q-9 0 -18.5 3t-15.5 9q-7 7 -10 18.5t-3 24t3 24t8 19.5q11 13 35 15
q10 0 18 -2.5t15 -11.5zM167 210q2 -35 1 -97t-3 -153q-27 -6 -69 3q1 40 0 97t-3.5 123.5t-5.5 139.5t-6 145q18 5 40 5t38 -4l3 -34q0 -8 0.5 -30.5t1.5 -54t1.5 -68t1.5 -72.5z" />
    <glyph glyph-name="eth" unicode="&#xf0;" horiz-adv-x="481" 
d="M365 246q0 12 -2 22.5t-4 18.5q-12 40 -57 72q-46 32 -93 32q-49 0 -76 -39q-26 -38 -26 -73q0 -13 3 -50q6 -53 49 -93q36 -36 79 -42q33 -5 64 13q26 15 40 36q23 37 23 103zM437 344q3 -33 3.5 -66.5t-4 -66t-16 -64t-33.5 -61.5q-28 -38 -65.5 -56.5t-80.5 -18.5
q-90 0 -156 81q-61 74 -61 169q0 85 64 145q63 60 149 54q57 -4 118 -56q-11 42 -35 80t-60 71q-20 -20 -36 -37t-24 -27l-59 44q8 10 25 27.5t37 38.5q-21 15 -44.5 28.5t-48.5 24.5l44 62q29 -11 55.5 -25.5t49.5 -31.5q30 30 54.5 56t35.5 39l59 -44q-11 -14 -37 -41
t-56 -58q52 -54 83 -122.5t39 -144.5z" />
    <glyph glyph-name="ntilde" unicode="&#xf1;" horiz-adv-x="475" 
d="M442 813q4 -42 -11 -79t-43 -61q-32 -28 -75.5 -30.5t-82.5 12.5q-15 6 -30 21t-30.5 26t-30.5 11.5t-29 -22.5q-5 -8 -9.5 -19.5t-8.5 -24t-7.5 -24t-4.5 -20.5l-56 22q8 25 17 51t24 46t37 32.5t55 12.5q21 0 40 -11t36 -25q14 -11 30 -17.5t26 -7.5q13 -2 31.5 2
t32.5 16q32 29 26 81zM402 223q-3 -19 -5.5 -51t-4 -67t-2.5 -67.5t1 -53.5l-85 16q3 17 4 48t5 65q4 35 10 67.5t9 52.5q3 22 7.5 49.5t3 54.5t-12.5 49.5t-39 33.5q-23 9 -47 -2t-47 -31t-43.5 -44t-35.5 -43v-63l-6 -136q-1 -18 -0.5 -36.5t0.5 -33.5q0 -18 1 -34l-70 -6
q3 52 5 100q2 41 3 83t2 68t-1.5 67.5t-4.5 82.5q-4 48 -7 99q10 2 31 4t42 0q0 -15 1 -33q1 -15 1 -35t1 -42q14 21 34.5 45.5t46 42.5t56 25.5t63.5 -5.5q46 -18 67 -48.5t26.5 -67.5t0.5 -77.5t-10 -76.5z" />
    <glyph glyph-name="ograve" unicode="&#xf2;" horiz-adv-x="478" 
d="M268 567l-231 194l52 75l218 -230zM369 272q0 12 -1.5 22t-3.5 19q-6 20 -20 37.5t-37 33.5q-45 33 -93 33q-49 0 -76 -39q-26 -40 -26 -73q0 -12 3 -51q6 -52 49 -93q36 -35 79 -41q33 -5 64 13q27 13 39 35q23 36 23 104zM438 271q0 -89 -51 -158q-58 -76 -141 -76
q-92 0 -156 81q-61 74 -61 169q0 85 64 145q63 60 149 54q60 -6 118 -57q56 -47 70 -97q5 -15 6.5 -30t1.5 -31z" />
    <glyph glyph-name="oacute" unicode="&#xf3;" horiz-adv-x="472" 
d="M211 549l-40 39l218 230l52 -75zM369 272q0 12 -1.5 22t-3.5 19q-6 20 -20 37.5t-37 33.5q-45 33 -93 33q-49 0 -76 -39q-26 -40 -26 -73q0 -12 3 -51q6 -52 49 -93q36 -35 79 -41q33 -5 64 13q27 13 39 35q23 36 23 104zM438 271q0 -89 -51 -158q-58 -76 -141 -76
q-92 0 -156 81q-61 74 -61 169q0 85 64 145q63 60 149 54q60 -6 118 -57q56 -47 70 -97q5 -15 6.5 -30t1.5 -31z" />
    <glyph glyph-name="ocircumflex" unicode="&#xf4;" horiz-adv-x="475" 
d="M345 560l-117 121l-97 -116l-62 39l134 142h47l141 -146zM369 272q0 12 -1.5 22t-3.5 19q-6 20 -20 37.5t-37 33.5q-45 33 -93 33q-49 0 -76 -39q-26 -40 -26 -73q0 -12 3 -51q6 -52 49 -93q36 -35 79 -41q33 -5 64 13q27 13 39 35q23 36 23 104zM438 271q0 -89 -51 -158
q-58 -76 -141 -76q-92 0 -156 81q-61 74 -61 169q0 85 64 145q63 60 149 54q60 -6 118 -57q56 -47 70 -97q5 -15 6.5 -30t1.5 -31z" />
    <glyph glyph-name="otilde" unicode="&#xf5;" horiz-adv-x="472" 
d="M427 787q4 -42 -11 -79t-43 -61q-32 -28 -75.5 -30.5t-82.5 12.5q-15 6 -30 21t-30.5 26t-30.5 11.5t-29 -22.5q-5 -8 -9.5 -19.5t-8.5 -24t-7.5 -24t-4.5 -20.5l-56 22q8 25 17 51t24 46t37 32.5t55 12.5q21 0 40 -11t36 -25q14 -11 30 -17.5t26 -7.5q13 -2 31.5 2
t32.5 16q32 29 26 81zM369 272q0 12 -1.5 22t-3.5 19q-6 20 -20 37.5t-37 33.5q-45 33 -93 33q-49 0 -76 -39q-26 -40 -26 -73q0 -12 3 -51q6 -52 49 -93q36 -35 79 -41q33 -5 64 13q27 13 39 35q23 36 23 104zM438 271q0 -89 -51 -158q-58 -76 -141 -76q-92 0 -156 81
q-61 74 -61 169q0 85 64 145q63 60 149 54q60 -6 118 -57q56 -47 70 -97q5 -15 6.5 -30t1.5 -31z" />
    <glyph glyph-name="odieresis" unicode="&#xf6;" horiz-adv-x="472" 
d="M181 652q-1 -12 -4 -25t-9.5 -22.5t-17.5 -15t-28 -3.5t-26.5 19.5t-9.5 30.5q0 23 14.5 39.5t38.5 16.5q19 0 31 -11.5t11 -28.5zM325 678q12 -18 9.5 -41t-10.5 -40q-3 -9 -12 -13t-19 -5q-9 0 -18.5 3t-15.5 9q-7 7 -10 18.5t-3 24t3 24t8 19.5q11 13 35 15
q10 0 18 -2.5t15 -11.5zM369 272q0 12 -1.5 22t-3.5 19q-6 20 -20 37.5t-37 33.5q-45 33 -93 33q-49 0 -76 -39q-26 -40 -26 -73q0 -12 3 -51q6 -52 49 -93q36 -35 79 -41q33 -5 64 13q27 13 39 35q23 36 23 104zM438 271q0 -89 -51 -158q-58 -76 -141 -76q-92 0 -156 81
q-61 74 -61 169q0 85 64 145q63 60 149 54q60 -6 118 -57q56 -47 70 -97q5 -15 6.5 -30t1.5 -31z" />
    <glyph glyph-name="divide" unicode="&#xf7;" horiz-adv-x="407" 
d="M276 136q0 -25 -17 -46.5t-48 -21.5q-29 0 -45.5 19t-16.5 44t18 44.5t49 19.5q23 0 41.5 -17t18.5 -42zM388 302q-27 -3 -76 -4.5t-103 -3t-103.5 -3t-76.5 -3.5l-7 68q18 2 47 3t63 2.5t70.5 2t70 2t62 2.5t46.5 3zM244 543q0 -25 -17 -46.5t-48 -21.5q-29 0 -45.5 19
t-16.5 44t18 44.5t49 19.5q23 0 41.5 -17t18.5 -42z" />
    <glyph glyph-name="oslash" unicode="&#xf8;" horiz-adv-x="481" 
d="M244 446q-18 5 -35 5q-49 0 -76 -39q-26 -38 -26 -73q0 -13 3 -50q5 -41 31 -75q26 54 47 99.5t32 73.5zM364 306q0 23 -5 41q-11 38 -52 69l-23 -55q-12 -30 -36 -81.5t-52 -111.5q21 -11 42 -14q33 -5 64 13q27 15 39 36q12 18 17.5 44t5.5 59zM447 738
q-18 -41 -37 -84q-17 -38 -37 -83.5t-39 -90.5q5 -4 10.5 -7.5t10.5 -8.5q57 -49 70 -98q5 -14 6.5 -29.5t1.5 -31.5q0 -88 -51 -158q-58 -76 -141 -76q-44 0 -82 20q-22 -46 -42 -87.5t-36 -73.5q-18 -38 -35 -71l-62 31q17 34 36 74q17 34 38 77.5t44 90.5q-10 9 -17 20
q-61 74 -61 169q0 85 64 145q62 60 149 54q8 -1 17 -2.5t17 -4.5l113 277q23 -6 36 -16.5t27 -35.5z" />
    <glyph glyph-name="ugrave" unicode="&#xf9;" 
d="M296 533l-231 194l52 75l218 -230zM413 30q-21 -11 -66 -13q-8 44 -14 82.5t-11 74.5q-29 -54 -76 -86q-44 -31 -93 -31q-116 0 -116 167q0 26 2 60.5t6 78.5q3 29 6 58.5t5 58.5q44 0 67 -6q-12 -164 -12 -216q0 -58 7 -79q13 -42 55 -42q31 0 63 22q32 23 44 50
q4 11 8.5 31.5t10.5 52.5q6 30 9 51t4 35q39 8 67 -2q-3 -86 6 -161q5 -42 11.5 -88t16.5 -98z" />
    <glyph glyph-name="uacute" unicode="&#xfa;" 
d="M181 518l-40 39l218 230l52 -75zM413 30q-21 -11 -66 -13q-8 44 -14 82.5t-11 74.5q-29 -54 -76 -86q-44 -31 -93 -31q-116 0 -116 167q0 26 2 60.5t6 78.5q3 29 6 58.5t5 58.5q44 0 67 -6q-12 -164 -12 -216q0 -58 7 -79q13 -42 55 -42q31 0 63 22q32 23 44 50
q4 11 8.5 31.5t10.5 52.5q6 30 9 51t4 35q39 8 67 -2q-3 -86 6 -161q5 -42 11.5 -88t16.5 -98z" />
    <glyph glyph-name="ucircumflex" unicode="&#xfb;" horiz-adv-x="442" 
d="M322 549l-117 121l-97 -116l-62 39l134 142h47l141 -146zM413 30q-21 -11 -66 -13q-8 44 -14 82.5t-11 74.5q-29 -54 -76 -86q-44 -31 -93 -31q-116 0 -116 167q0 26 2 60.5t6 78.5q3 29 6 58.5t5 58.5q44 0 67 -6q-12 -164 -12 -216q0 -58 7 -79q13 -42 55 -42
q31 0 63 22q32 23 44 50q4 11 8.5 31.5t10.5 52.5q6 30 9 51t4 35q39 8 67 -2q-3 -86 6 -161q5 -42 11.5 -88t16.5 -98z" />
    <glyph glyph-name="udieresis" unicode="&#xfc;" horiz-adv-x="442" 
d="M185 637q-1 -12 -4 -25t-9.5 -22.5t-17.5 -15t-28 -3.5t-26.5 19.5t-9.5 30.5q0 23 14.5 39.5t38.5 16.5q19 0 31 -11.5t11 -28.5zM329 663q12 -18 9.5 -41t-10.5 -40q-3 -9 -12 -13t-19 -5q-9 0 -18.5 3t-15.5 9q-7 7 -10 18.5t-3 24t3 24t8 19.5q11 13 35 15
q10 0 18 -2.5t15 -11.5zM413 30q-21 -11 -66 -13q-8 44 -14 82.5t-11 74.5q-29 -54 -76 -86q-44 -31 -93 -31q-116 0 -116 167q0 26 2 60.5t6 78.5q3 29 6 58.5t5 58.5q44 0 67 -6q-12 -164 -12 -216q0 -58 7 -79q13 -42 55 -42q31 0 63 22q32 23 44 50q4 11 8.5 31.5
t10.5 52.5q6 30 9 51t4 35q39 8 67 -2q-3 -86 6 -161q5 -42 11.5 -88t16.5 -98z" />
    <glyph glyph-name="yacute" unicode="&#xfd;" horiz-adv-x="533" 
d="M250 544l-40 39l218 230l52 -75zM484 480q-36 -75 -106 -232.5t-168 -399.5q-13 -32 -24 -60.5t-24.5 -63t-30.5 -79t-42 -107.5q-44 3 -63 28q7 16 11 24.5t8.5 19t11 26.5t17.5 48q24 66 42 113.5t31 77.5l96 232q-99 59 -163 174q-31 54 -46 106t-16 102q37 21 80 14
q12 -102 56 -190q47 -96 116 -143q91 216 167 370q41 -5 62 -29z" />
    <glyph glyph-name="thorn" unicode="&#xfe;" horiz-adv-x="483" 
d="M374 345q0 35 -10 55q-43 88 -85 85q-48 -3 -92 -33q-43 -29 -59 -74l-8 -23v-133l16 -13q68 -53 111 -50q28 1 50.5 17.5t41.5 47.5q35 58 35 121zM442 335q0 -71 -34 -133q-59 -110 -161 -110q-59 0 -127 46l-1 -45q3 -32 5.5 -82t3.5 -119q0 -38 -4 -88.5t-9 -116.5
q-36 -3 -69 6q5 64 8 114t5 87q1 22 0 50.5t-4 64.5q-2 39 -3.5 60t-1.5 24v29.5t1 77.5v167v75.5t-1.5 100t-4.5 96t-9 62.5l95 19q-1 -4 -1.5 -34.5t-1 -69t-1 -75t-1.5 -52.5q71 65 148 65q60 0 100 -43q68 -74 68 -176z" />
    <glyph glyph-name="ydieresis" unicode="&#xff;" horiz-adv-x="522" 
d="M214 620q-1 -12 -4 -25t-9.5 -22.5t-17.5 -15t-28 -3.5t-26.5 19.5t-9.5 30.5q0 23 14.5 39.5t38.5 16.5q19 0 31 -11.5t11 -28.5zM358 646q12 -18 9.5 -41t-10.5 -40q-3 -9 -12 -13t-19 -5q-9 0 -18.5 3t-15.5 9q-7 7 -10 18.5t-3 24t3 24t8 19.5q11 13 35 15
q10 0 18 -2.5t15 -11.5zM484 480q-36 -75 -106 -232.5t-168 -399.5q-13 -32 -24 -60.5t-24.5 -63t-30.5 -79t-42 -107.5q-44 3 -63 28q7 16 11 24.5t8.5 19t11 26.5t17.5 48q24 66 42 113.5t31 77.5l96 232q-99 59 -163 174q-31 54 -46 106t-16 102q37 21 80 14
q12 -102 56 -190q47 -96 116 -143q91 216 167 370q41 -5 62 -29z" />
    <glyph glyph-name="Amacron" unicode="&#x100;" horiz-adv-x="484" 
d="M81 809l-2 69l300 8l2 -69zM326 294q-24 93 -48 184t-50 182q-26 -108 -46.5 -200.5t-36.5 -172.5q48 1 93.5 3t87.5 4zM467 16q-23 -16 -67 -16l-57 225q-48 -3 -100.5 -5t-111.5 -2q-18 -96 -33 -218q-44 -2 -69 9l4 34q4 23 10 66.5t17 108.5q-18 0 -39 0.5t-45 1.5
q-7 40 2 69q26 -1 49 -1.5t46 -0.5q20 100 46 215.5t61 250.5l83 29q67 -232 118 -422.5t86 -343.5z" />
    <glyph glyph-name="amacron" unicode="&#x101;" horiz-adv-x="461" 
d="M65 688l-2 69l300 8l2 -69zM293 228q-17 18 -42.5 32t-51.5 14q-20 0 -37.5 -11t-30 -28t-19.5 -37t-7 -38q0 -57 24.5 -82.5t62.5 -25.5q19 0 38.5 11.5t35.5 29t28 37t17 36.5l10 33zM425 -24q-32 -21 -57.5 -31.5t-46.5 -8.5l-1 129q-29 -36 -60.5 -56t-69.5 -20
q-65 0 -110 39q-49 43 -49 112q0 24 6 50q17 71 61 109q41 35 98 35q64 0 120 -43l-1 83q-1 32 -1 48t-2 26q-8 56 -39 65q-12 4 -28 4h-19t-21 -2q-25 -3 -48 -14q-17 -9 -28.5 -17t-18.5 -15q-7 5 -11 15t-8 24q-3 14 -5 25t-2 21q56 41 139 41q38 0 71 -12q62 -20 81 -88
q7 -20 9.5 -50t2.5 -71q0 -16 -0.5 -36t-1.5 -55q-1 -36 -1 -55.5v-38.5q0 -179 41 -213z" />
    <glyph glyph-name="Aogonek" unicode="&#x104;" horiz-adv-x="484" 
d="M326 294q-24 93 -48 184t-50 182q-26 -108 -46.5 -200.5t-36.5 -172.5q48 1 93.5 3t87.5 4zM472 -89q1 -17 1 -37.5t2 -36.5q-10 -2 -20 -3t-21 -1q-23 0 -45.5 5.5t-40.5 17t-29 29t-11 40.5q0 26 7 43.5t18 30.5t26 23l30 20l-46 183q-48 -3 -100.5 -5t-111.5 -2
q-18 -96 -33 -218q-44 -2 -69 9l4 34q4 23 10 66.5t17 108.5q-18 0 -39 0.5t-45 1.5q-7 40 2 69q26 -1 49 -1.5t46 -0.5q20 100 46 215.5t61 250.5l83 29q67 -232 118 -422.5t86 -343.5q-22 -16 -62 -16q-14 -11 -22 -24.5t-8 -38.5q0 -19 17.5 -27.5t37.5 -8.5q25 0 42 10z
" />
    <glyph glyph-name="aogonek" unicode="&#x105;" horiz-adv-x="461" 
d="M293 228q-17 18 -42.5 32t-51.5 14q-20 0 -37.5 -11t-30 -28t-19.5 -37t-7 -38q0 -57 24.5 -82.5t62.5 -25.5q19 0 38.5 11.5t35.5 29t28 37t17 36.5l10 33zM416 -154q1 -17 1 -37.5t2 -36.5q-10 -2 -20 -3t-21 -1q-23 0 -45.5 5.5t-40.5 17t-29 29t-11 40.5t5.5 39.5
t15 29t21.5 22t26 18.5v96q-29 -36 -60.5 -56t-69.5 -20q-65 0 -110 39q-49 43 -49 112q0 24 6 50q17 71 61 109q41 35 98 35q64 0 120 -43l-1 83q-1 32 -1 48t-2 26q-8 56 -39 65q-12 4 -28 4h-19t-21 -2q-25 -3 -48 -14q-17 -9 -28.5 -17t-18.5 -15q-7 5 -11 15t-8 24
q-3 14 -5 25t-2 21q56 41 139 41q38 0 71 -12q62 -20 81 -88q7 -20 9.5 -50t2.5 -71q0 -16 -0.5 -36t-1.5 -55q-1 -36 -1 -55.5v-38.5q0 -179 41 -213q-36 -23 -63 -33q-21 -11 -32 -26.5t-11 -44.5q0 -19 17.5 -27.5t37.5 -8.5q25 0 42 10z" />
    <glyph glyph-name="Cacute" unicode="&#x106;" horiz-adv-x="524" 
d="M212 748l-40 39l218 230l52 -75zM485 179q-2 -17 -7.5 -25.5t-6.5 -27.5q-2 -20 -8.5 -39.5t-14.5 -37.5q-8 -19 -22 -35.5t-35.5 -29t-51 -20t-69.5 -7.5q-45 0 -86 18t-67 49q-30 35 -47.5 78.5t-27 89.5t-12.5 91.5t-3 84.5q0 53 14.5 113.5t45 111.5t78.5 84.5
t115 33.5q44 0 80 -15t62 -41t41 -61.5t17 -77.5l4 -52q-20 -8 -38 -8.5t-38 0.5q2 16 1 36t-1 33q0 52 -37 82.5t-91 30.5q-47 0 -80 -26t-54.5 -65t-31.5 -83.5t-10 -81.5q0 -26 0.5 -60.5t4.5 -72.5q4 -37 13 -74.5t27 -70.5q20 -37 52.5 -56t72.5 -19q76 0 106 37
q19 25 27.5 61.5t8.5 71.5z" />
    <glyph glyph-name="cacute" unicode="&#x107;" horiz-adv-x="421" 
d="M148 532l-40 39l218 230l52 -75zM398 116q-29 -21 -105 -56q-35 -16 -106 -16q-30 0 -52 4t-36 13q-74 47 -74 177q0 12 0.5 24.5t1.5 26.5q9 82 65 135t128 53q35 0 66.5 -11t60.5 -36l15 -13l-35 -62l-25 22q-44 39 -70 34q-112 -25 -124 -138q-2 -16 -3 -30t-1 -27
q0 -77 31 -96q13 -9 61 -7q48 0 68 10q30 14 58.5 31t56.5 38z" />
    <glyph glyph-name="Ccaron" unicode="&#x10c;" horiz-adv-x="524" 
d="M283 760h-47l-134 140l62 37l97 -113l117 118l47 -39zM485 179q-2 -17 -7.5 -25.5t-6.5 -27.5q-2 -20 -8.5 -39.5t-14.5 -37.5q-8 -19 -22 -35.5t-35.5 -29t-51 -20t-69.5 -7.5q-45 0 -86 18t-67 49q-30 35 -47.5 78.5t-27 89.5t-12.5 91.5t-3 84.5q0 53 14.5 113.5
t45 111.5t78.5 84.5t115 33.5q44 0 80 -15t62 -41t41 -61.5t17 -77.5l4 -52q-20 -8 -38 -8.5t-38 0.5q2 16 1 36t-1 33q0 52 -37 82.5t-91 30.5q-47 0 -80 -26t-54.5 -65t-31.5 -83.5t-10 -81.5q0 -26 0.5 -60.5t4.5 -72.5q4 -37 13 -74.5t27 -70.5q20 -37 52.5 -56
t72.5 -19q76 0 106 37q19 25 27.5 61.5t8.5 71.5z" />
    <glyph glyph-name="ccaron" unicode="&#x10d;" horiz-adv-x="421" 
d="M228 534h-47l-134 140l62 37l97 -113l117 118l47 -39zM398 116q-29 -21 -105 -56q-35 -16 -106 -16q-30 0 -52 4t-36 13q-74 47 -74 177q0 12 0.5 24.5t1.5 26.5q9 82 65 135t128 53q35 0 66.5 -11t60.5 -36l15 -13l-35 -62l-25 22q-44 39 -70 34q-112 -25 -124 -138
q-2 -16 -3 -30t-1 -27q0 -77 31 -96q13 -9 61 -7q48 0 68 10q30 14 58.5 31t56.5 38z" />
    <glyph glyph-name="Dcaron" unicode="&#x10e;" horiz-adv-x="464" 
d="M230 719h-47l-134 140l62 37l97 -113l117 118l47 -39zM376 405q0 48 -14.5 80t-33.5 47q-60 48 -177 56l13 -478q36 2 63.5 15t48.5 31t35.5 38t23.5 37q18 33 29.5 79.5t11.5 94.5zM441 390q0 -66 -15 -117.5t-35 -91.5q-66 -127 -293 -168l-14 573h-18.5t-46.5 -2
q-11 36 -3 76q70 3 97 3q169 0 255 -74q32 -27 52.5 -77t20.5 -122z" />
    <glyph glyph-name="dcaron" unicode="&#x10f;" horiz-adv-x="569" 
d="M587 810q-9 -31 -17 -58q-7 -23 -13.5 -46.5t-9.5 -35.5q-5 -14 -11.5 -39t-13.5 -51q-8 -30 -17 -63l-66 -3q7 36 13 69q5 28 11 55t10 39q4 11 9.5 34t10.5 46q6 26 13 57zM356 193q-2 18 -2 48.5t-1 75.5l-1 2q-70 41 -99 37q-65 -6 -112 -67q-48 -62 -48 -129
q0 -96 94 -99q82 -3 165 60l7 -8zM455 -114q-34 -17 -92 -17q0 61 -3 172q-82 -53 -176 -49q-81 3 -125 59q-38 47 -38 125q0 83 45 154q62 97 172 97q53 0 115 -31q0 38 0.5 61t-0.5 31q0 20 -2.5 49.5t-7.5 70.5q-5 39 -7.5 68.5t-2.5 49.5q0 25 2.5 48.5t7.5 45.5
q54 7 82 -12l-8 -33q-5 -17 -6.5 -37.5t-1.5 -44.5q0 -37 6 -104q4 -36 5.5 -61t1.5 -39q0 -57 0.5 -130t2.5 -162q1 -43 3.5 -85.5t4.5 -85.5q2 -48 8 -83t14 -57z" />
    <glyph glyph-name="Dcroat" unicode="&#x110;" horiz-adv-x="474" 
d="M168 322l6 -212q36 2 63.5 15t48.5 31t35.5 38t23.5 37q18 33 29.5 79.5t11.5 94.5t-14.5 80t-33.5 47q-60 48 -177 56l5 -197l137 4l2 -69zM451 390q0 -66 -15 -117.5t-35 -91.5q-66 -127 -293 -168l-8 307l-95 -2l-2 69l96 2l-5 197h-18.5t-46.5 -2q-11 36 -3 76
q70 3 97 3q169 0 255 -74q32 -27 52.5 -77t20.5 -122z" />
    <glyph glyph-name="dcroat" unicode="&#x111;" horiz-adv-x="526" 
d="M356 193q-2 18 -2 48.5t-1 75.5l-1 2q-70 41 -99 37q-65 -6 -112 -67q-48 -62 -48 -129q0 -96 94 -99q82 -3 165 60l7 -8zM544 562q-22 -2 -55 -3.5t-71 -3.5q2 -23 3 -39.5t1 -26.5q0 -57 0.5 -130t2.5 -162q1 -43 3.5 -85.5t4.5 -85.5q2 -48 8 -83t14 -57
q-34 -17 -92 -17q0 61 -3 172q-82 -53 -176 -49q-81 3 -125 59q-38 47 -38 125q0 83 45 154q62 97 172 97q53 0 115 -31q0 38 0.5 61t-0.5 31q0 12 -1 28.5t-3 36.5q-37 -1 -69.5 -2.5t-54.5 -3.5l-6 69q21 2 53 3t69 3q-4 34 -6 59.5t-2 44.5q0 25 2.5 48.5t7.5 45.5
q54 7 82 -12l-8 -33q-5 -17 -6.5 -37.5t-1.5 -44.5q0 -27 3 -69q37 1 70 2.5t55 4.5z" />
    <glyph glyph-name="Emacron" unicode="&#x112;" 
d="M62 670l-2 69l300 8l2 -69zM404 54q-86 -14 -167 -36.5t-167 -57.5l-6 264q-3 0 -12 -1t-19.5 -2t-19.5 -2.5t-12 -1.5l-1 71q4 0 12.5 0.5t18.5 1t18.5 1.5t12.5 1l-5 290q15 -1 31 -1h33q13 0 75.5 3t177.5 11q9 -29 3 -69l-34 -3q-37 -2 -90 -5.5t-125 -6.5l3 -211
q54 7 113 14t117 18q19 -28 13 -67l-34 -6q-49 -9 -101 -16t-106 -13l4 -170q62 22 124.5 36.5t131.5 25.5q14 -27 11 -68z" />
    <glyph glyph-name="emacron" unicode="&#x113;" horiz-adv-x="462" 
d="M78 661l-2 69l300 8l2 -69zM325 342q-2 79 -15 110q-23 54 -88 57q-60 4 -99 -75q-33 -67 -31 -135zM101 231q39 -167 232 -167q14 0 28.5 1.5t30.5 3.5q-6 -52 -41 -112l-34 6q-33 6 -65 16t-62 26q-82 41 -119 110q-48 91 -48 192q0 32 5.5 61.5t16.5 56.5
q62 162 182 153q191 -12 186 -289z" />
    <glyph glyph-name="Edotaccent" unicode="&#x116;" 
d="M274 689q0 -9 -4.5 -18t-12 -16.5t-18 -12.5t-21.5 -5t-22 1.5t-20 7t-14.5 15t-5.5 24.5q0 14 2 28t7.5 25t15.5 17.5t26 6.5q30 0 48.5 -20t18.5 -53zM404 54q-86 -14 -167 -36.5t-167 -57.5l-6 264q-3 0 -12 -1t-19.5 -2t-19.5 -2.5t-12 -1.5l-1 71q4 0 12.5 0.5
t18.5 1t18.5 1.5t12.5 1l-5 290q15 -1 31 -1h33q13 0 75.5 3t177.5 11q9 -29 3 -69l-34 -3q-37 -2 -90 -5.5t-125 -6.5l3 -211q54 7 113 14t117 18q19 -28 13 -67l-34 -6q-49 -9 -101 -16t-106 -13l4 -170q62 22 124.5 36.5t131.5 25.5q14 -27 11 -68z" />
    <glyph glyph-name="edotaccent" unicode="&#x117;" horiz-adv-x="462" 
d="M294 698q0 -9 -4.5 -18t-12 -16.5t-18 -12.5t-21.5 -5t-22 1.5t-20 7t-14.5 15t-5.5 24.5q0 14 2 28t7.5 25t15.5 17.5t26 6.5q30 0 48.5 -20t18.5 -53zM325 342q-2 79 -15 110q-23 54 -88 57q-60 4 -99 -75q-33 -67 -31 -135zM101 231q39 -167 232 -167q14 0 28.5 1.5
t30.5 3.5q-6 -52 -41 -112l-34 6q-33 6 -65 16t-62 26q-82 41 -119 110q-48 91 -48 192q0 32 5.5 61.5t16.5 56.5q62 162 182 153q191 -12 186 -289z" />
    <glyph glyph-name="Eogonek" unicode="&#x118;" 
d="M416 -57q1 -17 1 -37.5t2 -36.5q-10 -2 -20 -3t-21 -1q-23 0 -45.5 5.5t-40.5 17t-29 29t-11 40.5q0 24 5.5 40.5t15.5 29.5q-101 -26 -203 -67l-6 264q-3 0 -12 -1t-19.5 -2t-19.5 -2.5t-12 -1.5l-1 71q4 0 12.5 0.5t18.5 1t18.5 1.5t12.5 1l-5 290q15 -1 31 -1h33
q13 0 75.5 3t177.5 11q9 -29 3 -69l-34 -3q-37 -2 -90 -5.5t-125 -6.5l3 -211q54 7 113 14t117 18q19 -28 13 -67l-34 -6q-49 -9 -101 -16t-106 -13l4 -170q62 22 124.5 36.5t131.5 25.5q14 -27 11 -68q-6 -2 -12 -2.5t-11 -1.5q-29 -15 -45.5 -30.5t-16.5 -50.5
q0 -19 17.5 -27.5t37.5 -8.5q25 0 42 10z" />
    <glyph glyph-name="eogonek" unicode="&#x119;" horiz-adv-x="462" 
d="M325 342q-2 79 -15 110q-23 54 -88 57q-60 4 -99 -75q-33 -67 -31 -135zM379 -143q1 -17 -3.5 -38.5t-9.5 -39.5q-10 -2 -20 -3t-21 -1q-23 0 -45.5 5.5t-40.5 17t-29 29t-11 40.5t5.5 39.5t14.5 28.5t21 21.5t26 18.5q-41 11 -76 30q-82 41 -119 110q-48 91 -48 192
q0 32 5.5 61.5t16.5 56.5q62 162 182 153q191 -12 186 -289l-312 -58q39 -167 232 -167q14 0 28.5 1.5t30.5 3.5q-3 -27 -11 -50.5t-25 -52.5q-16 0 -32 -3.5t-29 -12.5t-21 -24.5t-8 -38.5q0 -19 17.5 -31.5t37.5 -12.5q12 0 31 4.5t27 9.5z" />
    <glyph glyph-name="Ecaron" unicode="&#x11a;" 
d="M233 638h-47l-134 140l62 37l97 -113l117 118l47 -39zM404 54q-86 -14 -167 -36.5t-167 -57.5l-6 264q-3 0 -12 -1t-19.5 -2t-19.5 -2.5t-12 -1.5l-1 71q4 0 12.5 0.5t18.5 1t18.5 1.5t12.5 1l-5 290q15 -1 31 -1h33q13 0 75.5 3t177.5 11q9 -29 3 -69l-34 -3
q-37 -2 -90 -5.5t-125 -6.5l3 -211q54 7 113 14t117 18q19 -28 13 -67l-34 -6q-49 -9 -101 -16t-106 -13l4 -170q62 22 124.5 36.5t131.5 25.5q14 -27 11 -68z" />
    <glyph glyph-name="ecaron" unicode="&#x11b;" horiz-adv-x="462" 
d="M251 640h-47l-134 140l62 37l97 -113l117 118l47 -39zM325 342q-2 79 -15 110q-23 54 -88 57q-60 4 -99 -75q-33 -67 -31 -135zM101 231q39 -167 232 -167q14 0 28.5 1.5t30.5 3.5q-6 -52 -41 -112l-34 6q-33 6 -65 16t-62 26q-82 41 -119 110q-48 91 -48 192
q0 32 5.5 61.5t16.5 56.5q62 162 182 153q191 -12 186 -289z" />
    <glyph glyph-name="uni0122" unicode="&#x122;" horiz-adv-x="523" 
d="M324 -187q0 -64 -21 -107t-79 -73l-28 43q11 5 24 16t24 25t18.5 29t7.5 29q0 11 -1.5 21.5t-5.5 20.5l-15 -1q-26 -2 -40 12.5t-14 37.5t13 40t38 17q24 0 39.5 -9t24.5 -24t12 -35t3 -42zM424 310l-38 -3q-3 -103 -3.5 -179t1.5 -129q-15 -9 -47 -22q-39 -15 -77 -15
q-112 0 -196 115q-34 48 -34 148q0 40 1.5 82t6.5 84t15 83t28 79q19 41 42 69t48 45t50.5 24.5t49.5 7.5q61 0 103.5 -29.5t48.5 -86.5l3 -34q-38 -11 -69 -6l-2 35q-2 29 -26.5 39.5t-58.5 10.5q-17 0 -36 -5t-38 -18.5t-37 -38t-31 -63.5q-12 -35 -18.5 -65t-9 -58.5
t-2.5 -57.5v-60q0 -34 0.5 -60.5t7.5 -49.5t22 -43.5t44 -42.5q54 -42 90 -37q25 3 50 12q-2 38 -0.5 102t5.5 156h-27h-16.5t-11.5 -0.5t-12 -0.5l-23 -1l-4 64q20 1 38 3l32 2t27 1q29 0 61.5 2t81.5 8q8 -20 6 -36.5t-1 -30.5h-44z" />
    <glyph glyph-name="uni0123" unicode="&#x123;" horiz-adv-x="515" 
d="M310 926q-13 -4 -30.5 -16t-33 -27t-27.5 -32t-14 -32q-3 -25 3 -49l17 -1q29 -2 47 -17t13 -47q-4 -25 -19 -42.5t-43 -13.5t-45.5 16.5t-27.5 31t-12 41.5t1 47q10 70 40.5 114t100.5 68zM369 -194q0 15 -3.5 46t-11.5 62q-4 14 -15 29.5t-28 28t-38.5 20.5t-46.5 8
q-24 0 -44.5 -6.5t-36 -20.5t-24.5 -36t-9 -54q0 -73 34 -111q1 -1 12 -10t26 -19t31.5 -18.5t30.5 -8.5q13 0 37 4.5t59 24.5q27 15 27 61zM398 417q3 20 -4 43t-22.5 42.5t-39.5 32.5t-56 13q-20 0 -46 -5t-43 -13q-11 -5 -25.5 -20.5t-28 -36t-23 -43t-9.5 -41.5
q0 -10 8 -26.5t19 -31.5q12 -15 21 -25.5t22 -16.5t33.5 -8.5t55.5 -2.5q68 0 100.5 36.5t37.5 102.5zM489 653q-12 5 -20.5 8t-28.5 3q-23 0 -44 -17t-25 -49q20 -14 38 -33.5t31 -42.5t20.5 -48t7.5 -49q0 -50 -14.5 -90t-41.5 -68t-65.5 -43.5t-85.5 -15.5q-23 0 -48 3
q-29 -18 -44 -27.5t-17 -11.5q-29 -21 -29 -41q0 -25 60 -67q12 3 29 3q14 0 36.5 2t43.5 -3q31 -6 58.5 -22t48.5 -41.5t33.5 -60.5t12.5 -80q0 -54 -10 -94t-46 -72q-23 -21 -61.5 -35t-76.5 -14q-28 0 -64 14t-68 43.5t-54 73.5t-22 104q0 106 72 153q-64 61 -64 112
q0 15 4 27t13.5 21.5t26 18t41.5 17.5q-24 15 -44.5 34t-36.5 40t-25 42.5t-9 39.5q0 28 15.5 61t35.5 65t40 52t42.5 31.5t47.5 16t55 4.5q35 0 62 -7l1 3q11 61 44.5 92.5t87.5 39.5q8 1 15 1.5t12 0.5h11q4 -11 4.5 -23.5t0.5 -25.5q0 -21 -6 -45z" />
    <glyph glyph-name="Imacron" unicode="&#x12a;" horiz-adv-x="342" 
d="M-1 717l-2 69l300 8l2 -69zM283 11l-228 3q-10 32 -1 69h34l62 -3q-5 129 -9 210q-1 23 -2.5 58.5t-4 74.5l-5 78t-5.5 69q-12 -1 -35 -3.5t-58 -6.5q-18 43 -7 69l34 3l118 13q6 1 27.5 1.5t58.5 2.5l34 3q10 -41 4 -69l-35 -3l-72 -3q4 -35 8 -90t8.5 -121.5t9.5 -140
t10 -145.5h88q7 -39 0 -69h-34z" />
    <glyph glyph-name="imacron" unicode="&#x12b;" horiz-adv-x="270" 
d="M-36 614l-2 69l300 8l2 -69zM167 210q2 -35 1 -97t-3 -153q-27 -6 -69 3q1 40 0 97t-3.5 123.5t-5.5 139.5t-6 145q18 5 40 5t38 -4l3 -34q0 -8 0.5 -30.5t1.5 -54t1.5 -68t1.5 -72.5z" />
    <glyph glyph-name="Iogonek" unicode="&#x12e;" horiz-adv-x="378" 
d="M321 -94q1 -17 1 -37.5t2 -36.5q-10 -2 -20 -3t-21 -1q-23 0 -45.5 5.5t-40.5 17t-29 29t-11 40.5q0 35 12.5 56t31.5 36l-146 2q-10 32 -1 69h34l62 -3q-5 129 -9 210q-1 23 -2.5 58.5t-4 74.5l-5 78t-5.5 69q-12 -1 -35 -3.5t-58 -6.5q-18 43 -7 69l34 3l118 13
q6 1 27.5 1.5t58.5 2.5l34 3q10 -41 4 -69l-35 -3l-72 -3q4 -35 8 -90t8.5 -121.5t9.5 -140t10 -145.5h88q7 -39 0 -69h-35q-28 -14 -43 -29.5t-15 -49.5q0 -19 17.5 -27.5t37.5 -8.5q25 0 42 10z" />
    <glyph glyph-name="iogonek" unicode="&#x12f;" horiz-adv-x="257" 
d="M158 630q0 -25 -19 -44q-18 -18 -45 -18q-26 0 -45 18q-19 19 -19 44q0 26 19 44t45 18q27 0 45 -18q19 -18 19 -44zM199 -118q1 -17 1 -37.5t2 -36.5q-10 -2 -20 -3t-21 -1q-23 0 -45.5 5.5t-40.5 17t-29 29t-11 40.5q0 25 6.5 42.5t17.5 30.5t25 22.5t29 19.5
q-4 80 -13 187.5t-24 244.5q37 11 68 7l4 -35q2 -14 7.5 -56.5t12.5 -113.5q6 -70 15 -250l-14 -3q-16 -8 -28.5 -15t-21 -16t-13 -21.5t-4.5 -31.5t17.5 -27.5t37.5 -8.5q25 0 42 10z" />
    <glyph glyph-name="dotlessi" unicode="&#x131;" horiz-adv-x="270" 
d="M167 210q2 -35 1 -97t-3 -153q-27 -6 -69 3q1 40 0 97t-3.5 123.5t-5.5 139.5t-6 145q18 5 40 5t38 -4l3 -34q0 -8 0.5 -30.5t1.5 -54t1.5 -68t1.5 -72.5z" />
    <glyph glyph-name="uni0136" unicode="&#x136;" horiz-adv-x="493" 
d="M311 -140q0 -64 -21 -107t-79 -73l-28 43q11 5 24 16t24 25t18.5 29t7.5 29q0 11 -1.5 21.5t-5.5 20.5l-15 -1q-26 -2 -40 12.5t-14 37.5t13 40t38 17q24 0 39.5 -9t24.5 -24t12 -35t3 -42zM431 567q-34 -28 -77.5 -64.5t-97.5 -80.5q-12 -10 -35 -24t-57 -35l-26 -16
l127 -137q38 -38 72.5 -69.5t66.5 -57.5l38 -30q-7 -9 -28 -24q-30 -20 -30 -21l-26 23q-32 29 -75 69t-96 92q-8 8 -22 24t-37 39q-1 -20 -2.5 -56t-3 -77t-4 -81.5t-5.5 -68.5l-3 -34q-37 -9 -69 7l3 34l5 353q0 45 6 146q1 24 2 59.5t1.5 71t0.5 65.5v42q38 8 69 2
l3 -295q45 27 110 74.5t146 121.5l25 23q30 -21 45 -53z" />
    <glyph glyph-name="uni0137" unicode="&#x137;" horiz-adv-x="499" 
d="M343 -213q0 -64 -21 -107t-79 -73l-28 43q11 5 24 16t24 25t18.5 29t7.5 29q0 11 -1.5 21.5t-5.5 20.5l-15 -1q-26 -2 -40 12.5t-14 37.5t13 40t38 17q24 0 39.5 -9t24.5 -24t12 -35t3 -42zM431 -253l-12 32q-14 33 -32.5 77.5t-38.5 103.5q-18 57 -48.5 128t-78.5 159
q-12 -11 -30.5 -28t-44.5 -41q9 -98 15.5 -181t8.5 -152l1 -35q-58 -9 -79 -7l9 38q-2 47 -5.5 102t-8.5 118q-5 67 -14 156.5t-21 203.5q-14 125 -25 242t-19 229q33 14 79 6l-4 -42l37 -428q4 -50 9 -92.5t9 -80.5l71 72q18 18 41 43.5t49 58.5l85 106q13 -32 38 -60
q30 -33 31 -36l-77 -51q-21 -14 -35 -24t-22 -17q-7 -7 -18 -19.5t-26 -31.5q8 -19 20 -45.5t27 -61.5q22 -54 42.5 -106.5t43.5 -105.5q49 -114 103 -164l21 -21z" />
    <glyph glyph-name="Lacute" unicode="&#x139;" horiz-adv-x="456" 
d="M131 691l-40 39l218 230l52 -75zM430 -33q6 -37 -4 -71q-53 3 -105 5t-105 4q-56 2 -99.5 3.5t-74.5 7.5l-17 3l4 36q14 118 22 200.5t11 132.5l15 334q35 9 71 -2l-2 -35l-13 -301q-2 -45 -9.5 -119.5t-19.5 -180.5z" />
    <glyph glyph-name="lacute" unicode="&#x13a;" horiz-adv-x="243" 
d="M74 890l-40 39l218 230l52 -75zM94 -10q-1 21 -1 42q-1 18 -1 40t-1 42q0 2 1 43t-3 122q-3 60 -11 144.5t-16 196.5q-3 48 -8 98t-12 105l-5 34q26 12 92 7l5 -35q-9 -108 -3 -205q6 -77 14 -162.5t13 -181.5q2 -36 0.5 -71.5t0.5 -71.5q2 -57 6 -91.5t9 -48.5z" />
    <glyph glyph-name="uni013B" unicode="&#x13b;" horiz-adv-x="456" 
d="M274 -228q0 -64 -21 -107t-79 -73l-28 43q11 5 24 16t24 25t18.5 29t7.5 29q0 11 -1.5 21.5t-5.5 20.5l-15 -1q-26 -2 -40 12.5t-14 37.5t13 40t38 17q24 0 39.5 -9t24.5 -24t12 -35t3 -42zM430 -33q6 -37 -4 -71q-53 3 -105 5t-105 4q-56 2 -99.5 3.5t-74.5 7.5l-17 3
l4 36q14 118 22 200.5t11 132.5l15 334q35 9 71 -2l-2 -35l-13 -301q-2 -45 -9.5 -119.5t-19.5 -180.5z" />
    <glyph glyph-name="uni013C" unicode="&#x13c;" horiz-adv-x="243" 
d="M198 -164q0 -64 -21 -107t-79 -73l-28 43q11 5 24 16t24 25t18.5 29t7.5 29q0 11 -1.5 21.5t-5.5 20.5l-15 -1q-26 -2 -40 12.5t-14 37.5t13 40t38 17q24 0 39.5 -9t24.5 -24t12 -35t3 -42zM94 -10q-1 21 -1 42q-1 18 -1 40t-1 42q0 2 1 43t-3 122q-3 60 -11 144.5
t-16 196.5q-3 48 -8 98t-12 105l-5 34q26 12 92 7l5 -35q-9 -108 -3 -205q6 -77 14 -162.5t13 -181.5q2 -36 0.5 -71.5t0.5 -71.5q2 -57 6 -91.5t9 -48.5z" />
    <glyph glyph-name="Lcaron" unicode="&#x13d;" horiz-adv-x="456" 
d="M333 698q-9 -31 -17 -58q-7 -23 -13.5 -46.5t-9.5 -35.5q-5 -14 -11.5 -39t-13.5 -51q-8 -30 -17 -63l-66 -3q7 36 13 69q5 28 11 55t10 39q4 11 9.5 34t10.5 46q6 26 13 57zM422 53q6 -37 -4 -71q-53 3 -105 5t-105 4q-56 2 -99.5 3.5t-74.5 7.5l-17 3l4 36
q14 118 22 200.5t11 132.5l15 334q35 9 71 -2l-2 -35l-13 -301q-2 -45 -9.5 -119.5t-19.5 -180.5z" />
    <glyph glyph-name="lcaron" unicode="&#x13e;" horiz-adv-x="291" 
d="M315 837q-9 -31 -17 -58q-7 -23 -13.5 -46.5t-9.5 -35.5q-5 -14 -11.5 -39t-13.5 -51q-8 -30 -17 -63l-66 -3q7 36 13 69q5 28 11 55t10 39q4 11 9.5 34t10.5 46q6 26 13 57zM74 -41q-1 21 -1 42q-1 18 -1 40t-1 42q0 2 1 43t-3 122q-3 60 -11 144.5t-16 196.5
q-3 48 -8 98t-12 105l-5 34q26 12 92 7l5 -35q-9 -108 -3 -205q6 -77 14 -162.5t13 -181.5q2 -36 0.5 -71.5t0.5 -71.5q2 -57 6 -91.5t9 -48.5z" />
    <glyph glyph-name="Lslash" unicode="&#x141;" horiz-adv-x="558" 
d="M462 14q-6 0 -175 -3q-57 0 -100 0.5t-75 2.5l-16 2l2 35q3 36 4.5 64t3 52t2.5 46t2 45q-17 -14 -32 -26.5l-27 -22.5q-14 -11 -26 -22l-13 67q12 12 28 26q14 12 32 28.5t40 34.5v13v132.5t-1 192.5q34 10 69 1v-34l1 -250q17 14 38 32t40 35q22 18 44 38l43 -68
q-29 -17 -56 -35q-23 -15 -48.5 -32.5t-42.5 -32.5l-18 -17q0 -23 -1 -46.5t-2.5 -51t-3.5 -61t-5 -76.5h327q7 -35 0 -69h-34z" />
    <glyph glyph-name="lslash" unicode="&#x142;" horiz-adv-x="307" 
d="M335 548q-24 -13 -48 -28q-20 -13 -43.5 -30t-41.5 -35l-15 -15q3 -36 5.5 -73.5t4.5 -76.5q2 -36 1 -71.5t0 -71.5q5 -113 15 -140l-79 -7q-1 21 -1 42q-1 18 -1 40t-1 42q-1 2 0 43t-3 122q-2 41 -6 91q-20 -18 -34.5 -31t-25.5 -21q-12 -10 -21 -16l-43 54
q17 14 35 31q16 14 37 33t44 40l-12 160q-4 48 -8.5 98t-12.5 105l-5 34q26 12 92 7l5 -35q-4 -54 -5 -105t3 -100q3 -50 9 -107q19 17 36 32t30 27q15 14 28 27z" />
    <glyph glyph-name="Nacute" unicode="&#x143;" horiz-adv-x="514" 
d="M209 738l-40 39l218 230l52 -75zM450 -103q-52 78 -115.5 175t-137.5 218q-14 22 -32.5 60t-44.5 93q33 -324 60 -523q-35 -12 -69 -9l-5 34q-15 111 -34 289.5t-43 428.5l48 33q74 -156 119 -248.5t62 -123.5q14 -27 41 -70.5t66 -103.5q-12 302 -3 608q29 9 69 -2
q-3 -125 -3 -247q0 -156 5.5 -308t16.5 -304z" />
    <glyph glyph-name="nacute" unicode="&#x144;" horiz-adv-x="470" 
d="M177 548l-40 39l218 230l52 -75zM402 223q-3 -19 -5.5 -51t-4 -67t-2.5 -67.5t1 -53.5l-85 16q3 17 4 48t5 65q4 35 10 67.5t9 52.5q3 22 7.5 49.5t3 54.5t-12.5 49.5t-39 33.5q-23 9 -47 -2t-47 -31t-43.5 -44t-35.5 -43v-63l-6 -136q-1 -18 -0.5 -36.5t0.5 -33.5
q0 -18 1 -34l-70 -6q3 52 5 100q2 41 3 83t2 68t-1.5 67.5t-4.5 82.5q-4 48 -7 99q10 2 31 4t42 0q0 -15 1 -33q1 -15 1 -35t1 -42q14 21 34.5 45.5t46 42.5t56 25.5t63.5 -5.5q46 -18 67 -48.5t26.5 -67.5t0.5 -77.5t-10 -76.5z" />
    <glyph glyph-name="uni0145" unicode="&#x145;" horiz-adv-x="514" 
d="M357 -140q0 -64 -21 -107t-79 -73l-28 43q11 5 24 16t24 25t18.5 29t7.5 29q0 11 -1.5 21.5t-5.5 20.5l-15 -1q-26 -2 -40 12.5t-14 37.5t13 40t38 17q24 0 39.5 -9t24.5 -24t12 -35t3 -42zM450 -103q-52 78 -115.5 175t-137.5 218q-14 22 -32.5 60t-44.5 93
q33 -324 60 -523q-35 -12 -69 -9l-5 34q-15 111 -34 289.5t-43 428.5l48 33q74 -156 119 -248.5t62 -123.5q14 -27 41 -70.5t66 -103.5q-12 302 -3 608q29 9 69 -2q-3 -125 -3 -247q0 -156 5.5 -308t16.5 -304z" />
    <glyph glyph-name="uni0146" unicode="&#x146;" horiz-adv-x="470" 
d="M279 -119q0 -64 -21 -107t-79 -73l-28 43q11 5 24 16t24 25t18.5 29t7.5 29q0 11 -1.5 21.5t-5.5 20.5l-15 -1q-26 -2 -40 12.5t-14 37.5t13 40t38 17q24 0 39.5 -9t24.5 -24t12 -35t3 -42zM402 223q-3 -19 -5.5 -51t-4 -67t-2.5 -67.5t1 -53.5l-85 16q3 17 4 48t5 65
q4 35 10 67.5t9 52.5q3 22 7.5 49.5t3 54.5t-12.5 49.5t-39 33.5q-23 9 -47 -2t-47 -31t-43.5 -44t-35.5 -43v-63l-6 -136q-1 -18 -0.5 -36.5t0.5 -33.5q0 -18 1 -34l-70 -6q3 52 5 100q2 41 3 83t2 68t-1.5 67.5t-4.5 82.5q-4 48 -7 99q10 2 31 4t42 0q0 -15 1 -33
q1 -15 1 -35t1 -42q14 21 34.5 45.5t46 42.5t56 25.5t63.5 -5.5q46 -18 67 -48.5t26.5 -67.5t0.5 -77.5t-10 -76.5z" />
    <glyph glyph-name="Ncaron" unicode="&#x147;" horiz-adv-x="514" 
d="M227 765h-47l-134 140l62 37l97 -113l117 118l47 -39zM450 -103q-52 78 -115.5 175t-137.5 218q-14 22 -32.5 60t-44.5 93q33 -324 60 -523q-35 -12 -69 -9l-5 34q-15 111 -34 289.5t-43 428.5l48 33q74 -156 119 -248.5t62 -123.5q14 -27 41 -70.5t66 -103.5
q-12 302 -3 608q29 9 69 -2q-3 -125 -3 -247q0 -156 5.5 -308t16.5 -304z" />
    <glyph glyph-name="ncaron" unicode="&#x148;" horiz-adv-x="470" 
d="M255 587h-47l-134 140l62 37l97 -113l117 118l47 -39zM402 223q-3 -19 -5.5 -51t-4 -67t-2.5 -67.5t1 -53.5l-85 16q3 17 4 48t5 65q4 35 10 67.5t9 52.5q3 22 7.5 49.5t3 54.5t-12.5 49.5t-39 33.5q-23 9 -47 -2t-47 -31t-43.5 -44t-35.5 -43v-63l-6 -136
q-1 -18 -0.5 -36.5t0.5 -33.5q0 -18 1 -34l-70 -6q3 52 5 100q2 41 3 83t2 68t-1.5 67.5t-4.5 82.5q-4 48 -7 99q10 2 31 4t42 0q0 -15 1 -33q1 -15 1 -35t1 -42q14 21 34.5 45.5t46 42.5t56 25.5t63.5 -5.5q46 -18 67 -48.5t26.5 -67.5t0.5 -77.5t-10 -76.5z" />
    <glyph glyph-name="Omacron" unicode="&#x14c;" horiz-adv-x="693" 
d="M197 798l-2 69l300 8l2 -69zM573 376q0 117 -54 192q-54 76 -136 76q-15 0 -30.5 -2.5t-32.5 -8.5q-97 -37 -151.5 -111.5t-54.5 -183.5q0 -42 4.5 -82.5t16.5 -77.5t33 -69.5t54 -58.5q26 -21 56 -29.5t61 -8.5q80 0 140 69q66 78 89 229q2 17 3.5 33.5t1.5 32.5z
M658 374q0 -15 -1.5 -31t-3.5 -32q-26 -187 -126 -286q-87 -88 -203 -88q-89 0 -159 52q-38 28 -63 69.5t-40 89t-21 97.5t-6 95q0 275 240 365q21 8 43 11.5t45 3.5q119 0 205 -96q90 -99 90 -250z" />
    <glyph glyph-name="omacron" unicode="&#x14d;" horiz-adv-x="463" 
d="M82 598l-2 69l300 8l2 -69zM369 272q0 12 -1.5 22t-3.5 19q-6 20 -20 37.5t-37 33.5q-45 33 -93 33q-49 0 -76 -39q-26 -40 -26 -73q0 -12 3 -51q6 -52 49 -93q36 -35 79 -41q33 -5 64 13q27 13 39 35q23 36 23 104zM438 271q0 -89 -51 -158q-58 -76 -141 -76
q-92 0 -156 81q-61 74 -61 169q0 85 64 145q63 60 149 54q60 -6 118 -57q56 -47 70 -97q5 -15 6.5 -30t1.5 -31z" />
    <glyph glyph-name="Ohungarumlaut" unicode="&#x150;" horiz-adv-x="693" 
d="M293 760l-42 33l101 185l70 -34zM437 753l-43 22l113 203l70 -34zM573 376q0 117 -54 192q-54 76 -136 76q-15 0 -30.5 -2.5t-32.5 -8.5q-97 -37 -151.5 -111.5t-54.5 -183.5q0 -42 4.5 -82.5t16.5 -77.5t33 -69.5t54 -58.5q26 -21 56 -29.5t61 -8.5q80 0 140 69
q66 78 89 229q2 17 3.5 33.5t1.5 32.5zM658 374q0 -15 -1.5 -31t-3.5 -32q-26 -187 -126 -286q-87 -88 -203 -88q-89 0 -159 52q-38 28 -63 69.5t-40 89t-21 97.5t-6 95q0 275 240 365q21 8 43 11.5t45 3.5q119 0 205 -96q90 -99 90 -250z" />
    <glyph glyph-name="ohungarumlaut" unicode="&#x151;" horiz-adv-x="463" 
d="M160 540l-42 33l101 185l70 -34zM304 533l-43 22l113 203l70 -34zM369 272q0 12 -1.5 22t-3.5 19q-6 20 -20 37.5t-37 33.5q-45 33 -93 33q-49 0 -76 -39q-26 -40 -26 -73q0 -12 3 -51q6 -52 49 -93q36 -35 79 -41q33 -5 64 13q27 13 39 35q23 36 23 104zM438 271
q0 -89 -51 -158q-58 -76 -141 -76q-92 0 -156 81q-61 74 -61 169q0 85 64 145q63 60 149 54q60 -6 118 -57q56 -47 70 -97q5 -15 6.5 -30t1.5 -31z" />
    <glyph glyph-name="OE" unicode="&#x152;" horiz-adv-x="865" 
d="M851 43q-42 -5 -95.5 -12t-110 -17t-111 -21.5t-97.5 -24.5q-63 -42 -137 -42q-83 0 -147 49q-35 26 -58 64.5t-36.5 83t-19.5 91.5t-6 89q0 258 221 342q20 8 40.5 11t40.5 3q72 0 129 -38q15 -2 30.5 -3t32.5 -2q6 0 33 -0.5t68 -1t93.5 -0.5h109.5q6 -32 -2 -69
l-34 -1h-46.5h-62.5h-71h-72q32 -42 47 -93.5t16 -111.5q50 2 103 5t92 8q17 -30 9 -68l-34 -3q-34 -5 -81.5 -8t-94.5 -5q-17 -121 -68 -201q31 7 72 13.5t84 12.5t84 10.5t72 7.5q7 -14 8 -31.5t-1 -36.5zM528 337q0 54 -12 99.5t-38 80.5q-50 71 -125 71q-26 0 -57 -11
q-90 -35 -140 -104.5t-50 -171.5q0 -39 4 -77t15 -72.5t30.5 -65t50.5 -54.5q24 -20 51 -27.5t56 -7.5q74 0 129 64q61 75 82 214q2 16 3 31.5t1 30.5z" />
    <glyph glyph-name="oe" unicode="&#x153;" horiz-adv-x="770" 
d="M657 313q-2 79 -15 111q-22 52 -88 57q-60 4 -99 -76q-33 -65 -31 -134zM365 266q0 12 -2 22.5t-4 18.5q-12 40 -57 72q-46 32 -93 32q-49 0 -76 -39q-26 -38 -26 -73q0 -13 3 -50q6 -53 49 -93q36 -36 79 -42q33 -5 64 13q26 15 40 36q23 37 23 103zM433 203
q39 -167 232 -167q14 0 28.5 1.5t30.5 3.5q-4 -27 -14 -55t-27 -57l-34 6q-33 6 -65 15.5t-62 25.5q-83 43 -119 111l-7.5 15t-6.5 15q-4 -4 -7 -10q-56 -76 -141 -76q-90 0 -156 81q-61 74 -61 169q0 85 64 145q32 31 69 42.5t80 11.5q29 0 58.5 -15t59.5 -41l23 -22
q63 157 180 148q192 -12 187 -290z" />
    <glyph glyph-name="Racute" unicode="&#x154;" horiz-adv-x="520" 
d="M229 765l-40 39l218 230l52 -75zM339 534q3 49 -15 81.5t-53 43.5q-32 9 -97 -1q-1 -22 -3.5 -57l-5.5 -77l-11 -136l-2 -25q13 0 21 0.5t13 1.5q33 6 62 22.5t50 42.5q37 47 41 104zM503 -145q-14 5 -35 19.5t-45.5 34t-50.5 42.5t-50 46.5t-43.5 45.5t-31.5 39
q-13 18 -38.5 62t-63.5 116q-8 -106 -14 -183.5t-11 -128.5l-69 7q5 45 13.5 154t20.5 284l10 121l9 129q-24 -8 -45.5 -15.5t-45.5 -16.5q-2 6 -2.5 19.5t-1.5 27.5q-1 16 -2 34q14 5 26 7.5t24 4.5t24.5 4t26.5 6q1 13 1.5 25t0.5 24l69 -2l-1 -34q25 4 46 6t41 0
q79 -6 116.5 -53.5t33.5 -130.5q-6 -98 -63 -165q-28 -34 -65.5 -55t-84.5 -31q28 -67 64 -121t78 -99t89.5 -83.5t100.5 -74.5z" />
    <glyph glyph-name="racute" unicode="&#x155;" horiz-adv-x="407" 
d="M167 601l-40 39l218 230l52 -75zM384 329h-24h-22.5t-21.5 2v84q0 34 -14.5 50t-33.5 16q-46 0 -124 -87q-11 -11 -20 -21.5t-17 -18.5q-2 -25 -2.5 -63.5t1.5 -92.5l2 -74t3 -75l1 -36l-90 8l7 34v31.5t0.5 32t1 29t1.5 22.5q3 26 4 86t1 156q0 88 -6 147l89 26l-5 -35
q-1 -9 -3.5 -32.5t-4.5 -61.5q83 93 146 94q56 2 92 -38q17 -17 29 -38.5t11 -47.5z" />
    <glyph glyph-name="uni0156" unicode="&#x156;" horiz-adv-x="520" 
d="M303 -132q0 -64 -21 -107t-79 -73l-28 43q11 5 24 16t24 25t18.5 29t7.5 29q0 11 -1.5 21.5t-5.5 20.5l-15 -1q-26 -2 -40 12.5t-14 37.5t13 40t38 17q24 0 39.5 -9t24.5 -24t12 -35t3 -42zM339 534q3 49 -15 81.5t-53 43.5q-32 9 -97 -1q-1 -22 -3.5 -57l-5.5 -77
l-11 -136l-2 -25q13 0 21 0.5t13 1.5q33 6 62 22.5t50 42.5q37 47 41 104zM503 -145q-14 5 -35 19.5t-45.5 34t-50.5 42.5t-50 46.5t-43.5 45.5t-31.5 39q-13 18 -38.5 62t-63.5 116q-8 -106 -14 -183.5t-11 -128.5l-69 7q5 45 13.5 154t20.5 284l10 121l9 129
q-24 -8 -45.5 -15.5t-45.5 -16.5q-2 6 -2.5 19.5t-1.5 27.5q-1 16 -2 34q14 5 26 7.5t24 4.5t24.5 4t26.5 6q1 13 1.5 25t0.5 24l69 -2l-1 -34q25 4 46 6t41 0q79 -6 116.5 -53.5t33.5 -130.5q-6 -98 -63 -165q-28 -34 -65.5 -55t-84.5 -31q28 -67 64 -121t78 -99
t89.5 -83.5t100.5 -74.5z" />
    <glyph glyph-name="uni0157" unicode="&#x157;" horiz-adv-x="407" 
d="M153 -140q0 -64 -21 -107t-79 -73l-28 43q11 5 24 16t24 25t18.5 29t7.5 29q0 11 -1.5 21.5t-5.5 20.5l-15 -1q-26 -2 -40 12.5t-14 37.5t13 40t38 17q24 0 39.5 -9t24.5 -24t12 -35t3 -42zM384 329h-24h-22.5t-21.5 2v84q0 34 -14.5 50t-33.5 16q-46 0 -124 -87
q-11 -11 -20 -21.5t-17 -18.5q-2 -25 -2.5 -63.5t1.5 -92.5l2 -74t3 -75l1 -36l-90 8l7 34v31.5t0.5 32t1 29t1.5 22.5q3 26 4 86t1 156q0 88 -6 147l89 26l-5 -35q-1 -9 -3.5 -32.5t-4.5 -61.5q83 93 146 94q56 2 92 -38q17 -17 29 -38.5t11 -47.5z" />
    <glyph glyph-name="Rcaron" unicode="&#x158;" horiz-adv-x="520" 
d="M279 787h-47l-134 140l62 37l97 -113l117 118l47 -39zM339 534q3 49 -15 81.5t-53 43.5q-32 9 -97 -1q-1 -22 -3.5 -57l-5.5 -77l-11 -136l-2 -25q13 0 21 0.5t13 1.5q33 6 62 22.5t50 42.5q37 47 41 104zM503 -145q-14 5 -35 19.5t-45.5 34t-50.5 42.5t-50 46.5
t-43.5 45.5t-31.5 39q-13 18 -38.5 62t-63.5 116q-8 -106 -14 -183.5t-11 -128.5l-69 7q5 45 13.5 154t20.5 284l10 121l9 129q-24 -8 -45.5 -15.5t-45.5 -16.5q-2 6 -2.5 19.5t-1.5 27.5q-1 16 -2 34q14 5 26 7.5t24 4.5t24.5 4t26.5 6q1 13 1.5 25t0.5 24l69 -2l-1 -34
q25 4 46 6t41 0q79 -6 116.5 -53.5t33.5 -130.5q-6 -98 -63 -165q-28 -34 -65.5 -55t-84.5 -31q28 -67 64 -121t78 -99t89.5 -83.5t100.5 -74.5z" />
    <glyph glyph-name="rcaron" unicode="&#x159;" horiz-adv-x="407" 
d="M225 616h-47l-134 140l62 37l97 -113l117 118l47 -39zM384 329h-24h-22.5t-21.5 2v84q0 34 -14.5 50t-33.5 16q-46 0 -124 -87q-11 -11 -20 -21.5t-17 -18.5q-2 -25 -2.5 -63.5t1.5 -92.5l2 -74t3 -75l1 -36l-90 8l7 34v31.5t0.5 32t1 29t1.5 22.5q3 26 4 86t1 156
q0 88 -6 147l89 26l-5 -35q-1 -9 -3.5 -32.5t-4.5 -61.5q83 93 146 94q56 2 92 -38q17 -17 29 -38.5t11 -47.5z" />
    <glyph glyph-name="Sacute" unicode="&#x15a;" horiz-adv-x="466" 
d="M158 785l-40 39l218 230l52 -75zM428 176q0 -80 -30 -141q-30 -62 -82 -101q-52 -38 -112 -38q-63 0 -123 42q-7 4 -18 19.5t-21.5 38.5t-18 51t-5.5 58l2 36q43 13 67 6l-2 -35q-1 -14 0 -31t4 -32.5t8.5 -27.5t14.5 -18q23 -14 41.5 -22.5t33.5 -10.5q25 -3 49 9.5
t48 38.5q19 19 28.5 32.5t19.5 35.5q8 19 13 41.5t5 48.5q0 17 -6.5 41t-12.5 32q-18 22 -45.5 30.5t-76.5 16.5q-44 6 -80 18t-62 45q-12 15 -18 32t-9 36q-2 19 -2 39.5v40.5q0 24 1.5 50t6 51.5t13 47.5t23.5 39q29 33 64 43.5t77 7.5q100 -8 130 -46q31 -37 34 -88v-70
l-65 2v62q-2 19 -9.5 31t-18.5 20q-18 13 -39.5 16t-35.5 3q-29 0 -48.5 -9t-36.5 -29q-18 -20 -24.5 -55.5t-6.5 -66.5q0 -17 3 -37.5t9 -39.5q9 -31 35 -48t67 -23q71 -9 115 -27t64 -43q15 -19 23.5 -49t8.5 -73z" />
    <glyph glyph-name="sacute" unicode="&#x15b;" horiz-adv-x="414" 
d="M131 600l-40 39l218 230l52 -75zM379 135q0 -40 -15 -73.5t-41 -57.5t-61 -37.5t-75 -13.5q-54 0 -86 15t-48 42.5t-20 65t-3 82.5l75 -2q-8 -29 -10 -54t6.5 -43t30.5 -28.5t61 -10.5q26 0 48 10t38 27t25 39t9 47q0 40 -20.5 64t-52 40t-67.5 28.5t-67.5 30t-52.5 44.5
t-21 71t13 72.5t35 44.5t50.5 22t58.5 6q26 0 49.5 -2.5t41 -16t28 -41.5t12.5 -78l-71 -6q-2 12 -7 26t-12.5 25t-18 18.5t-23.5 7.5q-15 0 -31 -2.5t-28.5 -11t-20.5 -24.5t-6 -42q1 -26 22.5 -41t52 -27.5t66 -26t66 -36.5t50.5 -59.5t20 -93.5z" />
    <glyph glyph-name="Scaron" unicode="&#x160;" horiz-adv-x="486" 
d="M250 787h-47l-134 140l62 37l97 -113l117 118l47 -39zM428 176q0 -80 -30 -141q-30 -62 -82 -101q-52 -38 -112 -38q-63 0 -123 42q-7 4 -18 19.5t-21.5 38.5t-18 51t-5.5 58l2 36q43 13 67 6l-2 -35q-1 -14 0 -31t4 -32.5t8.5 -27.5t14.5 -18q23 -14 41.5 -22.5
t33.5 -10.5q25 -3 49 9.5t48 38.5q19 19 28.5 32.5t19.5 35.5q8 19 13 41.5t5 48.5q0 17 -6.5 41t-12.5 32q-18 22 -45.5 30.5t-76.5 16.5q-44 6 -80 18t-62 45q-12 15 -18 32t-9 36q-2 19 -2 39.5v40.5q0 24 1.5 50t6 51.5t13 47.5t23.5 39q29 33 64 43.5t77 7.5
q100 -8 130 -46q31 -37 34 -88v-70l-65 2v62q-2 19 -9.5 31t-18.5 20q-18 13 -39.5 16t-35.5 3q-29 0 -48.5 -9t-36.5 -29q-18 -20 -24.5 -55.5t-6.5 -66.5q0 -17 3 -37.5t9 -39.5q9 -31 35 -48t67 -23q71 -9 115 -27t64 -43q15 -19 23.5 -49t8.5 -73z" />
    <glyph glyph-name="scaron" unicode="&#x161;" horiz-adv-x="445" 
d="M196 640h-47l-134 140l62 37l97 -113l117 118l47 -39zM379 135q0 -40 -15 -73.5t-41 -57.5t-61 -37.5t-75 -13.5q-54 0 -86 15t-48 42.5t-20 65t-3 82.5l75 -2q-8 -29 -10 -54t6.5 -43t30.5 -28.5t61 -10.5q26 0 48 10t38 27t25 39t9 47q0 40 -20.5 64t-52 40t-67.5 28.5
t-67.5 30t-52.5 44.5t-21 71t13 72.5t35 44.5t50.5 22t58.5 6q26 0 49.5 -2.5t41 -16t28 -41.5t12.5 -78l-71 -6q-2 12 -7 26t-12.5 25t-18 18.5t-23.5 7.5q-15 0 -31 -2.5t-28.5 -11t-20.5 -24.5t-6 -42q1 -26 22.5 -41t52 -27.5t66 -26t66 -36.5t50.5 -59.5t20 -93.5z" />
    <glyph glyph-name="Tcaron" unicode="&#x164;" horiz-adv-x="659" 
d="M341 726h-47l-134 140l62 37l97 -113l117 118l47 -39zM633 613l-49 -3l-210 2h-19q-3 -38 -6.5 -95.5t-7.5 -139.5q-2 -41 5 -118t18 -192l4 -35q-10 -7 -86 -7l-5 35l7 318q1 38 -0.5 96.5t-0.5 138.5q-36 -3 -94 -7.5t-138 -6.5l-47 -1q-3 12 -3 33q0 10 -0.5 20
t-0.5 18l47 1q45 1 106.5 8t140.5 7h99q8 0 35 -0.5t73 0.5h68l15 1h5l49 2z" />
    <glyph glyph-name="tcaron" unicode="&#x165;" horiz-adv-x="617" 
d="M386 792q-9 -31 -17 -58q-7 -23 -13.5 -46.5t-9.5 -35.5q-5 -14 -11.5 -39t-13.5 -51q-8 -30 -17 -63l-66 -3q7 36 13 69q5 28 11 55t10 39q4 11 9.5 34t10.5 46q6 26 13 57zM373 365q-32 -4 -80.5 -2.5t-114.5 -3.5q0 -11 0.5 -66.5t0.5 -156.5q0 -106 45 -106
q43 0 63 78q27 3 48 -19q-38 -153 -128 -153q-13 0 -26 3q-74 15 -72 150v47t1 85v133q-4 0 -14 -1t-23 -2t-27 -2t-26 -2v69q8 0 20.5 0.5t25 1.5t24 2t17.5 2v64.5t2 48.5q2 47 5.5 105t8.5 128q42 4 69 -6l-2 -34q-2 -26 -5 -75t-7 -122q-2 -18 -2 -43.5v-58.5
q39 4 78.5 7.5t79.5 6.5l34 2q7 -14 8 -37t-3 -43z" />
    <glyph glyph-name="Umacron" unicode="&#x16a;" horiz-adv-x="441" 
d="M46 724l-2 69l300 8l2 -69zM388 269q0 -80 -38 -145q-8 -13 -22 -26.5t-36 -27.5q-45 -30 -75 -34q-20 -4 -42 1.5t-48 18.5q-53 26 -71 67q-5 12 -10 63t-10 122t-9.5 151t-8.5 149q39 9 80 5l3 -35q1 -10 1.5 -32.5t1 -51t0.5 -59.5t0.5 -59.5t1 -51t1.5 -32.5
q8 -126 16 -144q9 -20 40 -33q29 -13 44 -10q10 1 22 5t27 11q30 13 37 25q33 55 33 107q0 7 -0.5 29.5t-1.5 54t-2.5 68.5t-2.5 74t-2 70.5t-2 58.5l-1 35q36 8 69 2l1 -34q1 -23 1.5 -54.5t1 -67.5t0.5 -72t0.5 -66.5t0.5 -52.5v-29z" />
    <glyph glyph-name="umacron" unicode="&#x16b;" horiz-adv-x="441" 
d="M71 598l-2 69l300 8l2 -69zM413 30q-21 -11 -66 -13q-8 44 -14 82.5t-11 74.5q-29 -54 -76 -86q-44 -31 -93 -31q-116 0 -116 167q0 26 2 60.5t6 78.5q3 29 6 58.5t5 58.5q44 0 67 -6q-12 -164 -12 -216q0 -58 7 -79q13 -42 55 -42q31 0 63 22q32 23 44 50q4 11 8.5 31.5
t10.5 52.5q6 30 9 51t4 35q39 8 67 -2q-3 -86 6 -161q5 -42 11.5 -88t16.5 -98z" />
    <glyph glyph-name="Uring" unicode="&#x16e;" horiz-adv-x="441" 
d="M273 813q0 48 -17.5 75t-65.5 27q-38 0 -54.5 -29t-16.5 -81q0 -32 24 -44.5t67 -12.5q18 0 30 7t19.5 17t10.5 21t3 20zM331 813q0 -21 -8 -42t-23.5 -38.5t-38 -28t-51.5 -10.5q-21 0 -47 4t-48.5 15.5t-37.5 33.5t-15 58q0 25 4.5 53.5t18 53t39 41t66.5 16.5
q37 0 63.5 -11.5t43.5 -32.5t25.5 -49.5t8.5 -62.5zM388 269q0 -80 -38 -145q-8 -13 -22 -26.5t-36 -27.5q-45 -30 -75 -34q-20 -4 -42 1.5t-48 18.5q-53 26 -71 67q-5 12 -10 63t-10 122t-9.5 151t-8.5 149q39 9 80 5l3 -35q1 -10 1.5 -32.5t1 -51t0.5 -59.5t0.5 -59.5
t1 -51t1.5 -32.5q8 -126 16 -144q9 -20 40 -33q29 -13 44 -10q10 1 22 5t27 11q30 13 37 25q33 55 33 107q0 7 -0.5 29.5t-1.5 54t-2.5 68.5t-2.5 74t-2 70.5t-2 58.5l-1 35q36 8 69 2l1 -34q1 -23 1.5 -54.5t1 -67.5t0.5 -72t0.5 -66.5t0.5 -52.5v-29z" />
    <glyph glyph-name="uring" unicode="&#x16f;" horiz-adv-x="441" 
d="M317 644q0 48 -17.5 75t-65.5 27q-38 0 -54.5 -29t-16.5 -81q0 -32 24 -44.5t67 -12.5q18 0 30 7t19.5 17t10.5 21t3 20zM375 644q0 -21 -8 -42t-23.5 -38.5t-38 -28t-51.5 -10.5q-21 0 -47 4t-48.5 15.5t-37.5 33.5t-15 58q0 25 4.5 53.5t18 53t39 41t66.5 16.5
q37 0 63.5 -11.5t43.5 -32.5t25.5 -49.5t8.5 -62.5zM413 30q-21 -11 -66 -13q-8 44 -14 82.5t-11 74.5q-29 -54 -76 -86q-44 -31 -93 -31q-116 0 -116 167q0 26 2 60.5t6 78.5q3 29 6 58.5t5 58.5q44 0 67 -6q-12 -164 -12 -216q0 -58 7 -79q13 -42 55 -42q31 0 63 22
q32 23 44 50q4 11 8.5 31.5t10.5 52.5q6 30 9 51t4 35q39 8 67 -2q-3 -86 6 -161q5 -42 11.5 -88t16.5 -98z" />
    <glyph glyph-name="Uhungarumlaut" unicode="&#x170;" horiz-adv-x="441" 
d="M124 685l-42 33l101 185l70 -34zM268 678l-43 22l113 203l70 -34zM388 269q0 -80 -38 -145q-8 -13 -22 -26.5t-36 -27.5q-45 -30 -75 -34q-20 -4 -42 1.5t-48 18.5q-53 26 -71 67q-5 12 -10 63t-10 122t-9.5 151t-8.5 149q39 9 80 5l3 -35q1 -10 1.5 -32.5t1 -51
t0.5 -59.5t0.5 -59.5t1 -51t1.5 -32.5q8 -126 16 -144q9 -20 40 -33q29 -13 44 -10q10 1 22 5t27 11q30 13 37 25q33 55 33 107q0 7 -0.5 29.5t-1.5 54t-2.5 68.5t-2.5 74t-2 70.5t-2 58.5l-1 35q36 8 69 2l1 -34q1 -23 1.5 -54.5t1 -67.5t0.5 -72t0.5 -66.5t0.5 -52.5v-29z
" />
    <glyph glyph-name="uhungarumlaut" unicode="&#x171;" horiz-adv-x="441" 
d="M159 513l-42 33l101 185l70 -34zM303 506l-43 22l113 203l70 -34zM413 30q-21 -11 -66 -13q-8 44 -14 82.5t-11 74.5q-29 -54 -76 -86q-44 -31 -93 -31q-116 0 -116 167q0 26 2 60.5t6 78.5q3 29 6 58.5t5 58.5q44 0 67 -6q-12 -164 -12 -216q0 -58 7 -79q13 -42 55 -42
q31 0 63 22q32 23 44 50q4 11 8.5 31.5t10.5 52.5q6 30 9 51t4 35q39 8 67 -2q-3 -86 6 -161q5 -42 11.5 -88t16.5 -98z" />
    <glyph glyph-name="Uogonek" unicode="&#x172;" horiz-adv-x="441" 
d="M307 -48q1 -17 1 -37.5t2 -36.5q-10 -2 -20 -3t-21 -1q-23 0 -45.5 5.5t-40.5 17t-29 29t-11 40.5q0 26 6.5 43t17.5 30q-10 3 -19.5 7.5t-20.5 9.5q-53 26 -71 67q-5 12 -10 63t-10 122t-9.5 151t-8.5 149q39 9 80 5l3 -35q1 -10 1.5 -32.5t1 -51t0.5 -59.5t0.5 -59.5
t1 -51t1.5 -32.5q8 -126 16 -144q9 -20 40 -33q29 -13 44 -10q10 1 22 5t27 11q30 13 37 25q33 55 33 107q0 7 -0.5 29.5t-1.5 54t-2.5 68.5t-2.5 74t-2 70.5t-2 58.5l-1 35q36 8 69 2l1 -34q1 -23 1.5 -54.5t1 -67.5t0.5 -72t0.5 -66.5t0.5 -52.5v-29q0 -80 -38 -145
q-8 -13 -22 -26.5t-36 -27.5q-27 -17 -47 -26q-17 -11 -26 -25.5t-9 -40.5q0 -19 17.5 -27.5t37.5 -8.5q25 0 42 10z" />
    <glyph glyph-name="uogonek" unicode="&#x173;" horiz-adv-x="441" 
d="M422 -88q1 -17 1 -37.5t2 -36.5q-10 -2 -20 -3t-21 -1q-23 0 -45.5 5.5t-40.5 17t-29 29t-11 40.5q0 26 7 44t19 31t27 23t31 21q-6 35 -11 67t-9 62q-29 -54 -76 -86q-44 -31 -93 -31q-116 0 -116 167q0 26 2 60.5t6 78.5q3 29 6 58.5t5 58.5q44 0 67 -6
q-12 -164 -12 -216q0 -58 7 -79q13 -42 55 -42q31 0 63 22q32 23 44 50q4 11 8.5 31.5t10.5 52.5q6 30 9 51t4 35q39 8 67 -2q-3 -86 6 -161q5 -42 11.5 -88t16.5 -98q-4 -2 -9 -3.5t-10 -3.5q-16 -8 -29 -15.5t-22 -16.5t-13.5 -21.5t-4.5 -31.5t17.5 -27.5t37.5 -8.5
q25 0 42 10z" />
    <glyph glyph-name="Ydieresis" unicode="&#x178;" horiz-adv-x="532" 
d="M254 824q-1 -12 -4 -25t-9.5 -22.5t-17.5 -15t-28 -3.5t-26.5 19.5t-9.5 30.5q0 23 14.5 39.5t38.5 16.5q19 0 31 -11.5t11 -28.5zM398 850q12 -18 9.5 -41t-10.5 -40q-3 -9 -12 -13t-19 -5q-9 0 -18.5 3t-15.5 9q-7 7 -10 18.5t-3 24t3 24t8 19.5q11 13 35 15
q10 0 18 -2.5t15 -11.5zM517 634q-31 -59 -67 -141.5t-82 -188.5q-24 -58 -50 -118.5t-49.5 -114.5t-43 -97t-29.5 -66l-15 -32l-62 30l15 31q15 30 35.5 77t44 101t47 110.5t44.5 106.5l1 1l-293 317q31 58 61 71l24 -24q23 -35 54.5 -78t64.5 -84t63.5 -75.5t52.5 -53.5
q17 46 138 289q46 -12 62 -30z" />
    <glyph glyph-name="Zacute" unicode="&#x179;" horiz-adv-x="510" 
d="M223 740l-40 39l218 230l52 -75zM479 103q12 -40 -1 -69l-35 2q-45 2 -80 0.5t-59 -4.5q-83 -9 -247 -66l-29 33q40 72 79 143.5t79 144.5q5 10 18 35t30 55.5t35 62t32 53.5q25 40 43.5 71.5t29.5 55.5l-271 8l-50 -10q-15 46 4 101l418 -38q-9 -22 -22.5 -52.5
t-32.5 -69.5q-14 -22 -35.5 -59t-45.5 -80t-48.5 -87t-44.5 -78q-16 -28 -41 -76t-61 -115l4 3q146 42 296 38z" />
    <glyph glyph-name="zacute" unicode="&#x17a;" horiz-adv-x="508" 
d="M212 535l-40 39l218 230l52 -75zM463 133q13 -33 -4 -80l-35 2q-20 2 -43 0q-29 -1 -66 -8.5t-79.5 -21t-89 -31t-92.5 -38.5q5 22 14 53.5t22 72.5q9 30 33 70.5t53 84t59 86.5t51 77q-52 -11 -98 -26t-97 -32l-31 -11l-29 63l31 14q70 32 145.5 48.5t150.5 36.5l82 22
q-9 -13 -13 -21.5t-7 -16t-6.5 -15.5t-11.5 -19q-20 -28 -44 -61t-47 -64.5t-42 -59t-29 -45.5q-17 -32 -31 -62.5t-25 -60.5q120 47 208 47h18t19 -1z" />
    <glyph glyph-name="Zdotaccent" unicode="&#x17b;" horiz-adv-x="510" 
d="M328 812q0 -9 -4.5 -18t-12 -16.5t-18 -12.5t-21.5 -5t-22 1.5t-20 7t-14.5 15t-5.5 24.5q0 14 2 28t7.5 25t15.5 17.5t26 6.5q30 0 48.5 -20t18.5 -53zM479 103q12 -40 -1 -69l-35 2q-45 2 -80 0.5t-59 -4.5q-83 -9 -247 -66l-29 33q40 72 79 143.5t79 144.5q5 10 18 35
t30 55.5t35 62t32 53.5q25 40 43.5 71.5t29.5 55.5l-271 8l-50 -10q-15 46 4 101l418 -38q-9 -22 -22.5 -52.5t-32.5 -69.5q-14 -22 -35.5 -59t-45.5 -80t-48.5 -87t-44.5 -78q-16 -28 -41 -76t-61 -115l4 3q146 42 296 38z" />
    <glyph glyph-name="zdotaccent" unicode="&#x17c;" horiz-adv-x="508" 
d="M283 612q0 -9 -4.5 -18t-12 -16.5t-18 -12.5t-21.5 -5t-22 1.5t-20 7t-14.5 15t-5.5 24.5q0 14 2 28t7.5 25t15.5 17.5t26 6.5q30 0 48.5 -20t18.5 -53zM463 133q13 -33 -4 -80l-35 2q-20 2 -43 0q-29 -1 -66 -8.5t-79.5 -21t-89 -31t-92.5 -38.5q5 22 14 53.5t22 72.5
q9 30 33 70.5t53 84t59 86.5t51 77q-52 -11 -98 -26t-97 -32l-31 -11l-29 63l31 14q70 32 145.5 48.5t150.5 36.5l82 22q-9 -13 -13 -21.5t-7 -16t-6.5 -15.5t-11.5 -19q-20 -28 -44 -61t-47 -64.5t-42 -59t-29 -45.5q-17 -32 -31 -62.5t-25 -60.5q120 47 208 47h18t19 -1z
" />
    <glyph glyph-name="Zcaron" unicode="&#x17d;" horiz-adv-x="554" 
d="M283 774h-47l-134 140l62 37l97 -113l117 118l47 -39zM479 103q12 -40 -1 -69l-35 2q-45 2 -80 0.5t-59 -4.5q-83 -9 -247 -66l-29 33q40 72 79 143.5t79 144.5q5 10 18 35t30 55.5t35 62t32 53.5q25 40 43.5 71.5t29.5 55.5l-271 8l-50 -10q-15 46 4 101l418 -38
q-9 -22 -22.5 -52.5t-32.5 -69.5q-14 -22 -35.5 -59t-45.5 -80t-48.5 -87t-44.5 -78q-16 -28 -41 -76t-61 -115l4 3q146 42 296 38z" />
    <glyph glyph-name="zcaron" unicode="&#x17e;" horiz-adv-x="519" 
d="M270 551l-52 1l-147 165l68 44l107 -134l128 140l51 -46zM475 153q13 -33 -4 -80l-35 2q-11 1 -21.5 0.5t-22.5 -0.5q-28 -1 -65 -8.5t-79.5 -21t-89 -31t-92.5 -38.5q9 43 35 126q10 30 34 70.5t53 84t59 86.5t51 77q-53 -11 -98.5 -26.5t-96.5 -32.5l-32 -10l-28 63
l31 14q70 32 145.5 48.5t149.5 36.5l83 22q-9 -13 -13 -21.5t-7 -16t-6.5 -15.5t-11.5 -19q-20 -28 -44 -61t-47 -65t-42.5 -59.5t-28.5 -44.5q-17 -32 -31 -62.5t-25 -60.5q120 47 208 47q8 0 17.5 -0.5t19.5 -0.5z" />
    <glyph glyph-name="florin" unicode="&#x192;" horiz-adv-x="405" 
d="M333 692q-11 21 -25.5 43.5t-25.5 26.5q-20 7 -35 7q-25 0 -32 -33q-6 -22 -12.5 -52.5t-6.5 -69.5q0 -17 1.5 -45t4.5 -63.5t7 -75t9 -79.5q42 10 80.5 19.5t61.5 17.5l15 -76q-24 -8 -64 -18.5t-83 -21.5q5 -39 11.5 -76.5t12 -76.5t9 -80t3.5 -86q0 -27 -3 -42
q-9 -66 -50 -101q-35 -31 -89 -31q-69 0 -119 49l45 53q35 -35 74 -35q61 0 70 75q3 18 3 45q0 41 -3 75t-7.5 67.5t-10.5 68.5t-13 79q-9 -3 -30 -7t-43.5 -8.5t-42 -8.5t-25.5 -6l-15 77q7 2 26.5 6.5t42.5 9t44.5 8.5t32.5 7q-3 23 -5.5 48t-4.5 48t-4 43t-3 34
q-4 46 -5.5 78t-1.5 51q0 101 31.5 151t88.5 50q27 0 57 -10q48 -16 81 -81z" />
    <glyph glyph-name="circumflex" unicode="&#x2c6;" horiz-adv-x="490" 
d="M354 588l-117 121l-97 -116l-62 39l134 142h47l141 -146z" />
    <glyph glyph-name="caron" unicode="&#x2c7;" horiz-adv-x="490" 
d="M259 587h-47l-134 140l62 37l97 -113l117 118l47 -39z" />
    <glyph glyph-name="breve" unicode="&#x2d8;" horiz-adv-x="473" 
d="M383 716q2 -15 -3.5 -41t-20.5 -51.5t-41.5 -45t-66.5 -22.5q-38 -2 -70 11.5t-57.5 34t-42.5 43.5t-24 39l48 25q4 -10 17.5 -25.5t33 -29t43.5 -23t48 -7.5q22 1 36.5 13.5t23.5 28.5t12 32t2 25z" />
    <glyph glyph-name="dotaccent" unicode="&#x2d9;" horiz-adv-x="385" 
d="M247 673q0 -9 -4.5 -18t-12 -16.5t-18 -12.5t-21.5 -5t-22 1.5t-20 7t-14.5 15t-5.5 24.5q0 14 2 28t7.5 25t15.5 17.5t26 6.5q30 0 48.5 -20t18.5 -53z" />
    <glyph glyph-name="ring" unicode="&#x2da;" horiz-adv-x="385" 
d="M262 701q0 48 -17.5 75t-65.5 27q-38 0 -54.5 -29t-16.5 -81q0 -32 24 -44.5t67 -12.5q18 0 30 7t19.5 17t10.5 21t3 20zM320 701q0 -21 -8 -42t-23.5 -38.5t-38 -28t-51.5 -10.5q-21 0 -47 4t-48.5 15.5t-37.5 33.5t-15 58q0 25 4.5 53.5t18 53t39 41t66.5 16.5
q37 0 63.5 -11.5t43.5 -32.5t25.5 -49.5t8.5 -62.5z" />
    <glyph glyph-name="ogonek" unicode="&#x2db;" horiz-adv-x="334" 
d="M255 -106q1 -17 1 -37.5t2 -36.5q-10 -2 -20 -3t-21 -1q-23 0 -45.5 5.5t-40.5 17t-29 29t-11 40.5q0 26 7 44t19 31t27 23t31 21l55 -21q-17 -9 -30.5 -16t-22.5 -16.5t-14 -22t-5 -31.5t17.5 -27.5t37.5 -8.5q25 0 42 10z" />
    <glyph glyph-name="tilde" unicode="&#x2dc;" horiz-adv-x="535" 
d="M469 764q4 -42 -11 -79t-43 -61q-32 -28 -75.5 -30.5t-82.5 12.5q-15 6 -30 21t-30.5 26t-30.5 11.5t-29 -22.5q-5 -8 -9.5 -19.5t-8.5 -24t-7.5 -24t-4.5 -20.5l-56 22q8 25 17 51t24 46t37 32.5t55 12.5q21 0 40 -11t36 -25q14 -11 30 -17.5t26 -7.5q13 -2 31.5 2
t32.5 16q32 29 26 81z" />
    <glyph glyph-name="hungarumlaut" unicode="&#x2dd;" horiz-adv-x="470" 
d="M132 558l-42 33l101 185l70 -34zM276 551l-43 22l113 203l70 -34z" />
    <glyph glyph-name="pi" unicode="&#x3c0;" horiz-adv-x="491" 
d="M376 267q0 24 -10.5 47t-28 40.5t-40 28.5t-46.5 11q-69 0 -106 -39t-37 -110q0 -23 12 -44.5t30.5 -38t41.5 -26t46 -9.5q66 0 102 38t36 102zM477 516q-30 -2 -48 -5.5t-29 -12.5t-16.5 -26.5t-9.5 -47.5q38 -26 58.5 -62.5t20.5 -83.5q0 -48 -13 -87.5t-38.5 -68
t-63 -44t-85.5 -15.5q-35 0 -69 6q-11 -5 -27 -12.5t-30.5 -18t-25 -23t-10.5 -27.5t8.5 -24t20.5 -14.5t25.5 -7.5t24.5 -2q43 0 85.5 7.5t86.5 7.5q60 0 93 -27.5t33 -90.5q0 -41 -18.5 -74t-47 -59.5t-62 -47.5t-64.5 -39q-8 5 -14.5 16.5t-11 24.5t-6.5 26.5t-2 22.5
q25 2 50.5 11.5t46.5 26t34 39.5t13 50q0 29 -10.5 40t-40.5 11q-47 0 -94 -10t-94 -10q-25 0 -50 6t-44.5 19.5t-32 34.5t-12.5 50q0 23 9 42t24 35t33.5 28.5t36.5 22.5q-28 25 -47.5 57t-19.5 71q0 105 58 165t162 60q24 0 47 -6l1 2q9 38 21 62t30 38.5t44 21t64 8.5z
" />
    <glyph glyph-name="endash" unicode="&#x2013;" horiz-adv-x="595" 
d="M547 289q-69 -1 -129 -3q-26 -1 -51.5 -1.5t-48 -1.5t-40.5 -1.5t-27 -0.5q-20 -1 -56 -1h-73h-91l1 69h89h72t55 1q9 0 27 0.5t41 1.5t48.5 1.5t51.5 1.5q60 2 130 3z" />
    <glyph glyph-name="emdash" unicode="&#x2014;" horiz-adv-x="756" 
d="M731 289q-69 -1 -129 -3q-26 -1 -51.5 -1.5t-48 -1.5t-40.5 -1.5t-27 -0.5t-31.5 -0.5t-52.5 -0.5h-65.5h-71.5h-183l1 71h182h70h65t52.5 0.5t31.5 0.5t27 0.5t41 1.5t48.5 1.5t51.5 1.5q60 2 130 3v-71z" />
    <glyph glyph-name="quoteleft" unicode="&#x2018;" horiz-adv-x="251" 
d="M216 757q-13 -4 -30.5 -16t-33 -27t-27.5 -32t-14 -32q-3 -25 3 -49l17 -1q29 -2 47 -17t13 -47q-4 -25 -19 -42.5t-43 -13.5t-45.5 16.5t-27.5 31t-12 41.5t1 47q10 70 40.5 114t100.5 68z" />
    <glyph glyph-name="quoteright" unicode="&#x2019;" horiz-adv-x="215" 
d="M191 702q0 -71 -24 -118.5t-90 -81.5l-36 37q13 6 28.5 20t29 31.5t22.5 36t9 33.5q0 24 -9 47l-17 -1q-29 -2 -48.5 10.5t-19.5 44.5q0 26 12.5 45t40.5 19t47.5 -10t31.5 -27t17.5 -39t5.5 -47z" />
    <glyph glyph-name="quotesinglbase" unicode="&#x201a;" horiz-adv-x="224" 
d="M180 156q0 -71 -24 -119t-90 -81l-36 37q13 6 28.5 20t29 31.5t22.5 36t9 33.5q0 24 -9 47l-17 -1q-29 -2 -48.5 10.5t-19.5 44.5q0 26 12.5 45t40.5 19t47.5 -10t31.5 -27t17.5 -39t5.5 -47z" />
    <glyph glyph-name="quotedblleft" unicode="&#x201c;" horiz-adv-x="450" 
d="M216 767q-13 -4 -30.5 -16t-33 -27t-27.5 -32t-14 -32q-3 -25 3 -49l17 -1q29 -2 47 -17t13 -47q-4 -25 -19 -42.5t-43 -13.5t-45.5 16.5t-27.5 31t-12 41.5t1 47q10 70 40.5 114t100.5 68zM417 738q-14 -4 -31 -16t-33 -27t-27.5 -32t-13.5 -32q-3 -23 2 -49l17 -1
q29 -2 47 -17t13 -47q-4 -25 -19 -42.5t-43 -13.5t-45.5 16.5t-27 31t-11.5 41.5t1 47q5 35 14.5 64t26 52.5t41 41.5t59.5 30z" />
    <glyph glyph-name="quotedblright" unicode="&#x201d;" horiz-adv-x="453" 
d="M201 666q4 -35 2.5 -65.5t-11.5 -57.5t-29 -50.5t-50 -44.5l-41 38q12 7 25.5 23t25 35t18 38t5.5 34q-2 13 -6 24.5t-9 22.5l-17 -4q-29 -5 -49.5 5t-24.5 42q-3 25 7 45.5t38 24.5q28 3 48.5 -4.5t34.5 -23t22 -37t11 -45.5zM402 690q9 -70 -9.5 -121t-79.5 -92l-40 33
q12 7 26 23t25 34.5t18 38t5 34.5q-3 25 -15 46l-17 -3q-29 -5 -49.5 5t-24.5 42q-3 25 7 45.5t38 23.5t48.5 -4.5t34.5 -22.5t22 -36.5t11 -45.5z" />
    <glyph glyph-name="quotedblbase" unicode="&#x201e;" horiz-adv-x="454" 
d="M203 154q4 -35 2.5 -65.5t-11.5 -57.5t-29 -50.5t-50 -44.5l-41 38q12 7 25.5 23t25 35t18 38.5t4.5 34.5q-3 22 -14 46l-17 -3q-29 -5 -49.5 4.5t-24.5 41.5q-3 25 7 45.5t38 24.5q28 3 48.5 -4.5t34.5 -23t22 -37t11 -45.5zM404 178q4 -35 2 -65t-12 -56t-29 -48.5
t-50 -42.5l-40 32q12 7 25.5 23t25 35t18 38t5.5 34q-2 13 -6 24t-9 22l-17 -3q-29 -5 -49.5 5t-24.5 42q-3 25 7 45.5t38 24.5q28 3 48.5 -4.5t34.5 -23t22 -37t11 -45.5z" />
    <glyph glyph-name="dagger" unicode="&#x2020;" horiz-adv-x="443" 
d="M259 511q-5 -115 -8 -237t2 -243l-53 3q-2 36 -4.5 89t-4 115.5t-3 131.5t-2.5 137l-129 -7l-4 70l133 7q-2 107 3 192h85q-3 -45 -5.5 -91.5t-5.5 -96.5l126 7l4 -70z" />
    <glyph glyph-name="daggerdbl" unicode="&#x2021;" horiz-adv-x="443" 
d="M262 182q3 -107 0 -192l-85 -2l8 188l-126 -9l-5 70l133 10q1 23 2.5 42t0.5 36q2 32 -0.5 74.5t-3.5 107.5l-129 -7l-4 70l133 7q-2 107 3 192h85q-3 -45 -5.5 -91.5t-5.5 -96.5l126 7l4 -70l-134 -7q-1 -29 -2 -51.5t-3 -41.5q2 -30 3.5 -69.5t3.5 -96.5l128 9l5 -70z
" />
    <glyph glyph-name="bullet" unicode="&#x2022;" horiz-adv-x="260" 
d="M219 256q0 -52 -32 -82q-20 -7 -46 -7q-32 0 -62 10q-32 26 -32 75q0 15 4 30q7 18 27 39q12 14 25 21.5t29 7.5q18 0 40 -11t36 -27q9 -11 10 -26t1 -30z" />
    <glyph glyph-name="ellipsis" unicode="&#x2026;" horiz-adv-x="706" 
d="M172 130q2 -12 -2.5 -25.5t-13.5 -25.5t-21 -20t-25 -8q-27 0 -41 18.5t-14 41.5q0 25 16 42.5t42 17.5q21 0 37.5 -10.5t21.5 -30.5zM391 88q3 -11 -1.5 -24.5t-13 -25.5t-21 -20t-25.5 -8q-27 0 -41 18.5t-14 42.5q0 23 15.5 40t41.5 17q21 0 38 -10.5t21 -29.5z
M626 123q2 -11 -2.5 -25t-13.5 -26t-21.5 -20t-25.5 -8q-26 0 -40 19t-14 42t15.5 40t41.5 17q20 0 37.5 -10t22.5 -29z" />
    <glyph glyph-name="perthousand" unicode="&#x2030;" horiz-adv-x="754" 
d="M478 135q0 28 -12 45.5t-38 17.5q-14 0 -23 -6.5t-14 -16.5t-6.5 -21.5t-1.5 -21.5q0 -15 5.5 -23.5t13.5 -13.5t17 -6.5t17 -1.5q20 0 31 15.5t11 32.5zM157 553q-1 2 -2 3.5t-6 3.5q-14 5 -29.5 1.5t-24.5 -15.5q-5 -7 -8 -24t2 -26q8 -4 21.5 -2.5t21.5 4.5
q8 4 17.5 19.5t7.5 35.5zM642 396q-2 12 -11 24.5t-24 10.5q-11 -1 -20 -8.5t-16 -16.5t-11 -17.5t-4 -12.5q5 -8 14 -15t17 -10q2 -1 8 -1t12.5 0.5t13.5 1.5t11 2l3 9t3.5 12.5t2.5 12t1 8.5zM533 123q0 -11 -4 -25.5t-14 -27.5t-25.5 -22t-39.5 -9q-58 0 -90 15.5
t-32 58.5q0 69 21.5 106.5t72.5 37.5q64 0 87.5 -35.5t23.5 -98.5zM174 625q31 -12 43 -38.5t8 -56t-21 -56.5t-44 -39q-9 -4 -27 -8t-38 -3t-38.5 9.5t-28.5 29.5q-8 15 -9.5 32.5t0.5 34.5t8 32.5t14 25.5q11 15 26.5 25t33.5 15t36.5 4.5t36.5 -7.5zM561 667
q-48 -65 -91 -125q-18 -26 -37 -53t-36.5 -52.5t-33 -48.5t-25.5 -40q-11 -18 -25 -40t-30 -47t-32.5 -50.5t-32.5 -49.5q-37 -56 -78 -116l-57 39q40 60 77 115q16 24 32.5 49t32 49.5t29.5 46.5t25 40q10 17 25.5 40.5t33.5 49.5t37 53.5t38 53.5q44 61 93 127zM711 405
q1 -7 -1 -22.5t-6.5 -32t-12 -32t-19.5 -22.5q-7 -4 -20.5 -8t-30 -6t-33 -1t-29.5 7q-8 3 -20 11t-23.5 19t-20 25.5t-8.5 31.5q0 13 7 32.5t21 39t35 34.5t49 18q31 4 52 -7.5t34 -28.5t19 -34t7 -24z" />
    <glyph glyph-name="guilsinglleft" unicode="&#x2039;" horiz-adv-x="403" 
d="M344 21l-311 224l290 244l41 -56l-211 -187l230 -168z" />
    <glyph glyph-name="guilsinglright" unicode="&#x203a;" horiz-adv-x="403" 
d="M93 21l-41 56l212 187l-231 168l39 57l311 -224z" />
    <glyph glyph-name="fraction" unicode="&#x2044;" horiz-adv-x="593" 
d="M577 617q-40 -51 -80 -99q-17 -21 -35.5 -43t-36.5 -44t-34.5 -42.5t-30.5 -36.5q-14 -17 -33.5 -42t-41 -55t-45 -63t-45.5 -64q-52 -74 -108 -157l-52 40q57 84 110 159q22 32 45.5 65t45.5 63t41.5 55t33.5 42q28 33 64.5 78.5t68.5 87.5q38 48 77 100q18 -13 33 -20
t23 -24z" />
    <glyph glyph-name="uni2070" unicode="&#x2070;" horiz-adv-x="452" 
d="M343 457q0 13 -9 34t-22.5 42.5t-28 40t-26.5 27.5q-11 10 -20 13.5t-20 3.5q-17 0 -28 -0.5t-18 -2.5t-12.5 -5.5t-12.5 -9.5q-6 -5 -13 -16t-13.5 -26t-12 -32.5t-7.5 -35.5q-2 -16 -1.5 -33t2.5 -32t5.5 -25.5t6.5 -13.5q3 -4 7.5 -8t13 -8.5t22.5 -9.5t36 -10
q25 -5 44 -5q24 0 41 7t28 18q17 15 27.5 40.5t10.5 46.5zM412 457q0 -38 -13 -70.5t-37 -56.5t-57.5 -38t-73.5 -14q-27 0 -55 6q-54 13 -86.5 32.5t-41.5 39.5q-18 39 -18 97q0 27 4.5 55.5t13.5 55t22 48.5t31 37q12 9 23.5 15.5t24.5 10.5t29.5 5.5t38.5 1.5
q28 0 50 -10t38 -23q16 -14 35 -38t35 -51.5t26.5 -55t10.5 -47.5z" />
    <glyph glyph-name="uni2074" unicode="&#x2074;" horiz-adv-x="382" 
d="M342 449q-4 0 -8 -1t-10 -1.5t-13 -1.5q2 -26 2.5 -53.5t0.5 -53.5q1 -14 1.5 -30.5t1.5 -31.5q1 -18 1 -36l-69 -4q-1 19 -2 37q-1 16 -1.5 32.5t-0.5 30.5q0 8 -0.5 20t-0.5 25q-1 13 -2 27.5t0 28.5q-10 0 -27 -0.5t-35.5 -1t-35 -0.5h-25.5q-10 0 -20.5 0.5
t-22.5 1.5q-5 -2 -14 0q-5 0 -11.5 -0.5t-8.5 -0.5q-2 5 -5.5 10.5t-5.5 8.5t-4.5 7t-9.5 17l20 84q2 3 4 14.5t4 25.5q4 22 9 44.5t12 38.5q0 2 2 7.5t4 12.5q3 8 6 17q7 0 17 -1q8 -1 19 -2.5t25 -5.5q-2 -11 -3 -22q-2 -9 -2.5 -17.5t-2.5 -11.5q-5 -11 -9.5 -33.5
t-9.5 -44.5l-8 -34l1 1q0 -3 -1 -7t-2 -9l1 1q-2 -9 -3.5 -19t-6.5 -19l26 1h25t36 0.5t36.5 1t26.5 0.5q0 20 -1.5 35.5t-3.5 34.5q-2 35 -3 70.5t4 83.5h16q1 0 0.5 0.5t2.5 0t13 -2.5t34 -7l-2 -32q-1 -14 -1 -30v-29q1 -30 2 -58.5t3 -59.5q6 2 12.5 2.5t11.5 2.5
q6 1 11 3v-67z" />
    <glyph glyph-name="uni2075" unicode="&#x2075;" horiz-adv-x="314" 
d="M293 429q0 -7 -0.5 -13t-1.5 -12q-5 -35 -19.5 -66.5t-39.5 -46.5q-17 -11 -36.5 -15.5t-39.5 -4.5q-29 0 -60 9.5t-55 27.5l38 55q2 -2 6 -5q7 -5 15 -8q9 -6 24 -9t32 -3q13 0 24 2t20 7h-1q10 8 18 15t13 33q1 7 1.5 12.5t0.5 10.5q0 38 -31 52.5t-91 14.5h-55.5
t-9.5 1l-15 82q-5 21 -7 45.5t3 50.5h8.5h17t18.5 0.5t13 0.5q14 2 28.5 3.5t28.5 3.5q25 2 51 5.5t58 10.5l21 -65l-34 -6q-14 -2 -30.5 -5t-29.5 -4l-32 -3q-15 -2 -26.5 -3.5t-26.5 -2.5q0 -11 2 -23.5t5 -24.5q0 -5 1 -7q13 1 30 1.5t28 0.5q20 0 46 -8t41 -16
q23 -11 36 -34.5t13 -58.5z" />
    <glyph glyph-name="uni2076" unicode="&#x2076;" horiz-adv-x="302" 
d="M215 433q0 6 -2.5 10.5t-9.5 4.5q-12 0 -25 -7.5t-23.5 -19t-17 -24.5t-6.5 -23v-1q2 -4 2 -3q6 -2 14 -4.5t15 -2.5q12 0 22 7.5t16.5 18.5t10.5 23t4 21zM276 428q0 -21 -8.5 -44t-24.5 -41.5t-38 -30.5t-49 -12q-33 0 -59 13t-44.5 33.5t-28 46.5t-9.5 52
q0 43 12 88.5t35 85.5t57 70.5t78 42.5l22 -57q-31 -7 -57.5 -28.5t-46.5 -51t-31.5 -65t-11.5 -71.5q0 -8 5 -20.5t7 -20.5q7 16 17 31.5t24 28t31.5 20t38.5 7.5q41 0 61 -22t20 -55z" />
    <glyph glyph-name="uni2077" unicode="&#x2077;" horiz-adv-x="313" 
d="M171 314l-67 14q19 66 37 128q15 53 31 107.5t25 89.5q-10 1 -19.5 2t-17.5 1l-132 5l12 66l62 -1l161 -15l13 -40q-6 -9 -11 -20q-5 -10 -10.5 -22.5t-10.5 -27.5h1z" />
    <glyph glyph-name="uni2078" unicode="&#x2078;" horiz-adv-x="365" 
d="M195 656l-5.5 4.5t-13.5 10t-18 10t-19 4.5q-12 0 -22 -7t-18 -17t-12.5 -21.5t-4.5 -21.5q0 -17 16.5 -31.5t46.5 -14.5q21 0 36.5 18t15.5 41q0 7 -0.5 13.5t-1.5 11.5zM244 504h1q-23 12 -38 12q-24 0 -45.5 -10t-37 -25.5t-25 -34.5t-9.5 -36q0 -22 18.5 -40.5
t51.5 -18.5q20 0 43.5 6t49.5 20h-1q18 11 23.5 34t5.5 40q0 16 -2 22zM344 494q1 -4 2 -11t1 -20q0 -14 -2.5 -32t-9.5 -37t-19.5 -36t-32.5 -30q-26 -17 -64.5 -29.5t-73.5 -12.5q-34 0 -57.5 13.5t-38.5 33t-21.5 42t-6.5 39.5q0 34 18 58t52 51q-22 7 -37 18t-24 24
t-13 26t-4 24q0 20 9.5 43.5t26.5 43.5t40.5 33.5t51.5 13.5q31 0 55 -21q39 -14 55.5 -35.5t16.5 -53.5q0 -17 -4.5 -36.5t-18.5 -36.5q1 0 1.5 -0.5t1.5 -0.5l1 1q16 -2 31.5 -9t28 -17t22 -22t13.5 -24z" />
    <glyph glyph-name="uni2079" unicode="&#x2079;" horiz-adv-x="331" 
d="M218 563l10.5 10.5t7.5 16.5l-7.5 15t-7.5 13q-9 15 -23.5 21.5t-30.5 6.5q-34 0 -58 -22q-14 -12 -20 -24t-6 -23q0 -17 16 -31.5t38 -14.5q34 0 81 32zM278 654q17 -27 24 -57.5t7 -62.5q0 -39 -10.5 -78.5t-28.5 -74.5t-42 -64t-51 -48l-41 51q31 19 49 40t28.5 45
t15.5 52t9 61q-20 -19 -43.5 -28.5t-50.5 -11.5q-11 -1 -27 1t-33.5 7t-33 14t-24.5 23q-5 9 -9 22t-4 23q0 23 9.5 47.5t25.5 41.5q23 25 56 40t68 14q31 -1 60 -13.5t46 -43.5z" />
    <glyph glyph-name="uni2080" unicode="&#x2080;" horiz-adv-x="452" 
d="M343 172q0 13 -9 34t-22.5 42.5t-28 40t-26.5 27.5q-11 10 -20 13.5t-20 3.5q-17 0 -28 -0.5t-18 -2.5t-12.5 -5.5t-12.5 -9.5q-6 -5 -13 -16t-13.5 -26t-12 -32.5t-7.5 -35.5q-2 -16 -1.5 -33t2.5 -32t5.5 -25.5t6.5 -13.5q3 -4 7.5 -8t13 -8.5t22.5 -9.5t36 -10
q25 -5 44 -5q24 0 41 7t28 18q17 15 27.5 40.5t10.5 46.5zM412 172q0 -38 -13 -70.5t-37 -56.5t-57.5 -38t-73.5 -14q-27 0 -55 6q-54 13 -86.5 32.5t-41.5 39.5q-18 39 -18 97q0 27 4.5 55.5t13.5 55t22 48.5t31 37q12 9 23.5 15.5t24.5 10.5t29.5 5.5t38.5 1.5
q28 0 50 -10t38 -23q16 -14 35 -38t35 -51.5t26.5 -55t10.5 -47.5z" />
    <glyph glyph-name="uni2081" unicode="&#x2081;" horiz-adv-x="264" 
d="M53 -18l-2 63l40 3q-1 14 -1.5 30.5l-1 33t-0.5 30.5v22q0 23 1 43.5t3 40.5q1 12 1.5 20.5l1 17t0.5 17.5v22l-28 -30l-44 46l42.5 42.5t50.5 48.5q9 2 23.5 1t24.5 -3v-21q0 -10 0.5 -21.5t0.5 -23.5q0 -17 -0.5 -35t-1.5 -32q-3 -74 -3 -154q0 -27 -0.5 -46.5
t1.5 -44.5l38 3l1 -63z" />
    <glyph glyph-name="uni2082" unicode="&#x2082;" horiz-adv-x="395" 
d="M361 16q-5 0 -9 1t-7.5 1t-6.5 1q-18 1 -46.5 -2.5t-61 -10t-65.5 -14.5t-61 -15l-45 -11l-45 45q26 25 48 48q19 19 37 38t26 27q20 20 43 44.5t40 51.5q15 24 23.5 50.5t10.5 49.5q1 12 -14.5 23t-35.5 16q-8 2 -15 3t-13 1q-27 0 -39 -9q-5 -3 -12 -9t-13.5 -13.5
t-12.5 -14.5t-9 -11q-1 -1 -3 -5q-1 -2 -3 -5l-51 37q2 6 6 12q7 12 16 21q14 16 28.5 28t28.5 20q20 11 43.5 13t56.5 1q22 -2 43 -11.5t36.5 -25t25 -35t8.5 -40.5q-2 -30 -14 -60t-31 -59h1q-16 -26 -39 -53.5t-46 -53.5q-8 -10 -17 -19l-19 -19q11 3 23 5.5t24 6.5v-1
q6 2 12 3.5t12 3.5q18 6 35.5 11.5t37.5 7.5q11 2 22 3t21 1q9 0 19.5 -1.5t22.5 -3.5z" />
    <glyph glyph-name="uni2083" unicode="&#x2083;" horiz-adv-x="412" 
d="M384 48q-11 -25 -30.5 -43.5t-45 -31t-55.5 -18.5t-61 -6q-39 0 -78.5 11t-68.5 31q-20 13 -45 38l53 41l14 -12v1q14 -14 35.5 -28t41.5 -16q8 -1 18 -1.5t19 -0.5q20 0 41.5 2.5t41 9.5t34 18t21.5 28q12 28 12 47q0 20 -10.5 34t-19.5 22q-12 5 -39 6.5t-48 1.5
q-11 0 -21 -0.5t-13 -0.5l-21 37q15 17 29 33q11 13 22.5 26t16.5 19l21 26q-46 2 -92.5 2.5t-91.5 0.5v63h133q11 -1 33.5 -1.5t45.5 -2.5q26 -2 56 -3l24 -44q-28 -23 -51.5 -45.5t-43.5 -47.5q22 -2 48.5 -7t40.5 -16q6 -7 15 -16.5t16.5 -22t13 -29t5.5 -36.5
q0 -30 -16 -69z" />
    <glyph glyph-name="uni2084" unicode="&#x2084;" horiz-adv-x="382" 
d="M342 164q-4 0 -8 -1t-10 -1.5t-13 -1.5q2 -26 2.5 -53.5t0.5 -53.5q1 -14 1.5 -30.5t1.5 -31.5q1 -18 1 -36l-69 -4q-1 19 -2 37q-1 16 -1.5 32.5t-0.5 30.5q0 8 -0.5 20t-0.5 25q-1 13 -2 27.5t0 28.5q-10 0 -27 -0.5t-35.5 -1t-35 -0.5h-25.5q-10 0 -20.5 0.5
t-22.5 1.5q-5 -2 -14 0q-5 0 -11.5 -0.5t-8.5 -0.5q-2 5 -5.5 10.5t-5.5 8.5t-4.5 7t-9.5 17l20 84q2 3 4 14.5t4 25.5q4 22 9 44.5t12 38.5q0 2 2 7.5t4 12.5q3 8 6 17q7 0 17 -1q8 -1 19 -2.5t25 -5.5q-2 -11 -3 -22q-2 -9 -2.5 -17.5t-2.5 -11.5q-5 -11 -9.5 -33.5
t-9.5 -44.5l-8 -34l1 1q0 -3 -1 -7t-2 -9l1 1q-2 -9 -3.5 -19t-6.5 -19l26 1h25t36 0.5t36.5 1t26.5 0.5q0 20 -1.5 35.5t-3.5 34.5q-2 35 -3 70.5t4 83.5h16q1 0 0.5 0.5t2.5 0t13 -2.5t34 -7l-2 -32q-1 -14 -1 -30v-29q1 -30 2 -58.5t3 -59.5q6 2 12.5 2.5t11.5 2.5
q6 1 11 3v-67z" />
    <glyph glyph-name="uni2085" unicode="&#x2085;" horiz-adv-x="314" 
d="M293 144q0 -7 -0.5 -13t-1.5 -12q-5 -35 -19.5 -66.5t-39.5 -46.5q-17 -11 -36.5 -15.5t-39.5 -4.5q-29 0 -60 9.5t-55 27.5l38 55q2 -2 6 -5q7 -5 15 -8q9 -6 24 -9t32 -3q13 0 24 2t20 7h-1q10 8 18 15t13 33q1 7 1.5 12.5t0.5 10.5q0 38 -31 52.5t-91 14.5h-55.5
t-9.5 1l-15 82q-5 21 -7 45.5t3 50.5h8.5h17t18.5 0.5t13 0.5q14 2 28.5 3.5t28.5 3.5q25 2 51 5.5t58 10.5l21 -65l-34 -6q-14 -2 -30.5 -5t-29.5 -4l-32 -3q-15 -2 -26.5 -3.5t-26.5 -2.5q0 -11 2 -23.5t5 -24.5q0 -5 1 -7q13 1 30 1.5t28 0.5q20 0 46 -8t41 -16
q23 -11 36 -34.5t13 -58.5z" />
    <glyph glyph-name="uni2086" unicode="&#x2086;" horiz-adv-x="302" 
d="M215 129q0 6 -2.5 10.5t-9.5 4.5q-12 0 -25 -7.5t-23.5 -19t-17 -24.5t-6.5 -23v-1q2 -4 2 -3q6 -2 14 -4.5t15 -2.5q12 0 22 7.5t16.5 18.5t10.5 23t4 21zM276 124q0 -21 -8.5 -44t-24.5 -41.5t-38 -30.5t-49 -12q-33 0 -59 13t-44.5 33.5t-28 46.5t-9.5 52
q0 43 12 88.5t35 85.5t57 70.5t78 42.5l22 -57q-31 -7 -57.5 -28.5t-46.5 -51t-31.5 -65t-11.5 -71.5q0 -8 5 -20.5t7 -20.5q7 16 17 31.5t24 28t31.5 20t38.5 7.5q41 0 61 -22t20 -55z" />
    <glyph glyph-name="uni2087" unicode="&#x2087;" horiz-adv-x="313" 
d="M171 1l-67 13q19 66 37 128q15 53 31 107.5t25 89.5l-37 4l-132 5l12 65l62 -1l161 -15l13 -40q-6 -9 -11 -20q-5 -9 -10.5 -21.5t-10.5 -27.5h1z" />
    <glyph glyph-name="uni2088" unicode="&#x2088;" horiz-adv-x="365" 
d="M195 343q0 -1 -5.5 3.5t-13.5 10t-18 10t-19 4.5q-12 0 -22 -6.5t-18 -16.5t-12.5 -22t-4.5 -22q0 -17 16.5 -31.5t46.5 -14.5q21 0 36.5 18.5t15.5 40.5q0 8 -0.5 14.5t-1.5 11.5zM244 191h1q-21 11 -38 11q-24 0 -45.5 -10t-37 -25.5t-25 -34t-9.5 -35.5
q0 -23 18.5 -41.5t51.5 -18.5q20 0 43.5 6.5t49.5 20.5h-1q18 11 23.5 33.5t5.5 40.5q0 16 -2 22zM344 181q1 -4 2 -11.5t1 -20.5q0 -14 -2.5 -32t-9.5 -37t-19.5 -36t-32.5 -30q-26 -17 -64.5 -29.5t-73.5 -12.5q-34 0 -57.5 13.5t-38.5 33.5t-21.5 42t-6.5 40
q0 33 18 57.5t52 50.5q-22 7 -37 18.5t-24 24t-13 25.5t-4 24q0 20 9.5 43.5t26.5 43.5t40.5 33.5t51.5 13.5q31 0 55 -21q39 -14 55.5 -35t16.5 -53q0 -18 -4.5 -37t-18.5 -36q1 0 1.5 -0.5t1.5 -0.5l1 1q16 -2 31.5 -9t28 -17t22 -22t13.5 -24z" />
    <glyph glyph-name="uni2089" unicode="&#x2089;" horiz-adv-x="331" 
d="M218 278l10.5 10.5t7.5 16.5l-7.5 15t-7.5 13q-9 15 -23.5 21.5t-30.5 6.5q-34 0 -58 -22q-14 -12 -20 -24t-6 -23q0 -17 16 -31.5t38 -14.5q34 0 81 32zM278 369q17 -27 24 -57.5t7 -62.5q0 -39 -10.5 -78.5t-28.5 -74.5t-42 -64t-51 -48l-41 51q31 19 49 40t28.5 45
t15.5 52t9 61q-20 -19 -43.5 -28.5t-50.5 -11.5q-11 -1 -27 1t-33.5 7t-33 14t-24.5 23q-5 9 -9 22t-4 23q0 23 9.5 47.5t25.5 41.5q23 25 56 40t68 14q31 -1 60 -13.5t46 -43.5z" />
    <glyph glyph-name="Euro" unicode="&#x20ac;" horiz-adv-x="696" 
d="M615 567q-61 70 -142 64q-32 -2 -63 -15q-69 -29 -117.5 -73.5t-72.5 -103.5q29 2 69 4t77 4q43 3 89 5l-15 -76q-47 -2 -91 -5q-38 -2 -78 -4t-67 -3q-2 -24 -1 -48.5t5 -47.5q36 1 71.5 2t67 2.5t57 2.5t40.5 3q-3 -14 -5 -36.5t-3 -36.5q-13 -2 -35 -3t-49.5 -2.5
t-59 -2.5t-64.5 -2q14 -37 38 -68.5t61 -54.5q26 -17 56.5 -22.5t62.5 -3.5q80 6 141 77l54 -53q-91 -93 -208 -100q-91 -6 -165 37q-49 29 -78.5 78.5t-44.5 106.5q-42 -2 -76.5 -3.5t-54.5 -3.5l9 74q17 2 45 3t63 3q-3 24 -4.5 48t-0.5 48h-63q-17 0 -32 1l16 75
q14 -1 29 -1h60q37 170 225 249q42 18 89 21q120 9 216 -78z" />
    <glyph glyph-name="trademark" unicode="&#x2122;" horiz-adv-x="823" 
d="M212 609l10 -304l-60 -2l-10 304l-138 -3l-2 60l317 8l2 -60zM723 322q-3 20 -7.5 45t-10 52.5t-12 56t-13.5 55.5q-11 -26 -24 -56.5t-27 -60.5t-27.5 -56t-25.5 -43l-43 22q-25 31 -50.5 69t-46.5 74q-6 -27 -11 -56.5t-9.5 -58t-8 -54t-5.5 -44.5l-60 6q3 28 8.5 73
t13 93.5t15.5 93.5t16 73l50 -5q7 -15 19 -39.5t27 -51.5t31.5 -54t31.5 -48q14 25 30 58.5t30.5 68t26.5 67t20 55.5l50 15q9 -28 20 -73.5t21 -95.5t18.5 -97t12.5 -77z" />
    <glyph glyph-name="Omega" unicode="&#x2126;" horiz-adv-x="632" 
d="M380 556q0 15 -16.5 25t-38.5 15.5t-44 8t-32 2.5q-65 0 -131 -9q-4 -62 -7 -123.5t-5 -124.5q23 0 55.5 0.5t54.5 5.5q21 5 49 22.5t53 44t43 60.5t19 73zM495 25q22 -28 43 -57t48 -52l-29 -64q-6 0 -22 19t-34 43t-34 45.5t-21 27.5q-34 -27 -68.5 -54.5t-69.5 -53.5
l-17 25l-15 26q34 26 67 52l66 52q-51 66 -101 131t-106 127q-24 0 -47 -2.5t-47 -0.5q0 -64 -1 -135.5t7 -135.5l-72 8q7 72 10.5 147t3.5 154q0 77 3.5 160t2.5 164q46 7 92 11.5t93 4.5q23 0 57 -4t66 -15t55 -31t23 -53q0 -20 -5.5 -47t-15.5 -44q-17 -30 -32.5 -54
t-34.5 -43.5t-42.5 -35.5t-54.5 -28q52 -57 99.5 -118t95.5 -122l116 92l38 -48z" />
    <glyph glyph-name="estimated" unicode="&#x212e;" horiz-adv-x="910" 
d="M653 402q0 65 -1 115q0 21 -0.5 41.5t-1 37t-0.5 26.5v10q-26 28 -50.5 43.5t-49 23.5t-51.5 10.5t-58 3.5q-32 0 -61.5 -3t-57 -12t-53 -26t-48.5 -46v-224h432zM728 116q-1 0 2.5 -5t8 -11t8 -11.5l3.5 -5.5q-24 -16 -53 -31t-65 -27t-80.5 -19t-100.5 -7
q-71 0 -142 23.5t-127.5 70.5t-91.5 117t-35 162q0 97 34 168.5t89 119t124 71t139 23.5q76 0 135 -21.5t101.5 -58.5t69 -85.5t38.5 -102.5q7 -21 10 -48.5t3 -54.5v-18h-574v-246q21 -15 43 -29.5t48.5 -25t60 -17t77.5 -6.5q51 0 92.5 6.5t75.5 17t60.5 24t46.5 27.5z
" />
    <glyph glyph-name="onethird" unicode="&#x2153;" horiz-adv-x="876" 
d="M50 253l-1 59l37 4q0 13 -0.5 28.5l-1 31t-0.5 29v21.5q0 21 1 40.5t2 38.5q1 11 1.5 19.5t1 16t0.5 16.5v21l-27 -29l-41 44q16 17 40 40.5t48 46.5q9 2 22.5 1t23.5 -3v-20q0 -9 0.5 -20.5t0.5 -22.5q0 -17 -0.5 -33.5t-1.5 -29.5q-2 -35 -3 -72t-1 -75
q0 -25 -0.5 -43.5t1.5 -41.5q9 0 19.5 0.5t16.5 1.5l1 -59zM658 648q-58 -63 -111 -121q-23 -25 -46.5 -51t-45 -50t-40.5 -45.5t-32 -37.5q-14 -16 -32 -39.5t-39 -52t-43 -59.5t-43 -61q-49 -70 -102 -149l-49 38q55 80 104 150q21 30 43 61t43 59.5t39 52.5t32 40
q13 16 31.5 37.5t40 46t44.5 50.5t45 51q51 58 108 122q17 -12 31.5 -18.5t21.5 -23.5zM806 67q-10 -24 -28.5 -41.5t-42.5 -29.5t-52.5 -18t-57.5 -6q-38 0 -75.5 10.5t-64.5 30.5q-9 6 -20 15t-22 21l50 38l13 -11v1q14 -14 34 -27t40 -15q7 -1 16.5 -1.5t18.5 -0.5
q19 0 39 2.5t38 9t32.5 17t20.5 26.5q11 28 11 44q0 20 -10 33t-18 20q-11 5 -37 7t-46 2q-9 0 -19 -0.5t-13 -0.5l-20 34q15 16 28 31q11 13 21.5 25.5t15.5 18.5q2 2 8.5 9t11.5 15q-44 2 -88 2.5t-87 0.5v59h126q11 -1 32.5 -1.5t42.5 -1.5q25 -1 53 -3l23 -42
q-26 -22 -48 -43t-42 -45q10 -1 22 -2.5t23.5 -4t22 -6.5t16.5 -9q6 -6 14 -15t15.5 -21t13 -28t5.5 -35q0 -28 -16 -64z" />
    <glyph glyph-name="twothirds" unicode="&#x2154;" horiz-adv-x="1015" 
d="M802 648q-58 -63 -111 -121q-23 -25 -46.5 -51t-45 -50t-40.5 -45.5t-32 -37.5q-14 -16 -32 -39.5t-39 -52t-43 -59.5t-43 -61q-49 -70 -102 -149l-49 38q55 80 104 150q21 30 43 61t43 59.5t39 52.5t32 40q13 16 31.5 37.5t40 46t44.5 50.5t45 51q51 58 108 122
q17 -12 31.5 -18.5t21.5 -23.5zM369 303q-4 0 -8 1t-7.5 1t-6.5 1q-17 1 -44 -2.5t-57.5 -9.5t-62 -13.5t-58.5 -14.5q-10 -2 -22 -5l-20 -5l-42 43l45 45q18 18 35 35.5t25 25.5q19 19 40.5 42.5t37.5 49.5q14 23 22.5 47.5t10.5 46.5q0 12 -14.5 22t-33.5 15q-7 2 -14 3
t-12 1q-26 0 -37 -8q-5 -3 -11.5 -9t-13 -13t-12 -13.5t-8.5 -10.5q-1 -1 -3 -5q-1 -2 -3 -4l-48 35q2 6 6 11q3 5 6.5 10t8.5 10q14 14 27 26t27 19q20 10 41.5 12.5t53.5 0.5q21 -2 41 -11t34.5 -23t23 -32.5t7.5 -38.5q-2 -29 -13.5 -57.5t-28.5 -56.5h1q-15 -25 -37 -51
t-43 -49q-8 -10 -17 -19t-18 -17l45 10v-1q6 2 11.5 4t10.5 4l34 10t35 8q21 3 42 3q8 0 18 -1t21 -3zM950 67q-10 -24 -28.5 -41.5t-42.5 -29.5t-52.5 -18t-57.5 -6q-38 0 -75.5 10.5t-64.5 30.5q-9 6 -20 15t-22 21l50 38l13 -11v1q14 -14 34 -27t40 -15q7 -1 16.5 -1.5
t18.5 -0.5q19 0 39 2.5t38 9t32.5 17t20.5 26.5q11 28 11 44q0 20 -10 33t-18 20q-11 5 -37 7t-46 2q-9 0 -19 -0.5t-13 -0.5l-20 34q15 16 28 31q11 13 21.5 25.5t15.5 18.5q2 2 8.5 9t11.5 15q-44 2 -88 2.5t-87 0.5v59h126q11 -1 32.5 -1.5t42.5 -1.5q25 -1 53 -3l23 -42
q-26 -22 -48 -43t-42 -45q10 -1 22 -2.5t23.5 -4t22 -6.5t16.5 -9q6 -6 14 -15t15.5 -21t13 -28t5.5 -35q0 -28 -16 -64z" />
    <glyph glyph-name="partialdiff" unicode="&#x2202;" horiz-adv-x="481" 
d="M365 246q0 12 -2 22.5t-4 18.5q-12 40 -57 72q-46 32 -93 32q-49 0 -76 -39q-26 -38 -26 -73q0 -13 3 -50q6 -53 49 -93q36 -36 79 -42q33 -5 64 13q26 15 40 36q23 37 23 103zM437 344q3 -33 3.5 -66.5t-4 -66t-16 -64t-33.5 -61.5q-28 -38 -65.5 -56.5t-80.5 -18.5
q-90 0 -156 81q-61 74 -61 169q0 85 64 145q63 60 149 54q57 -4 118 -56q-20 78 -85.5 142.5t-159.5 107.5l44 62q61 -23 111 -61t86 -86.5t58 -106t28 -118.5z" />
    <glyph glyph-name="Delta" unicode="&#x2206;" horiz-adv-x="618" 
d="M473 274q7 78 -40 154q-41 65 -99 86q-44 18 -95 2q-41 -13 -66 -41q-43 -48 -63 -146q-6 -34 -4 -63q2 -32 16 -63t42 -62q55 -62 120 -77q70 -16 120 34q48 48 59 101q2 9 4.5 27.5t5.5 47.5zM549 204q-23 -114 -120 -177q-95 -62 -201 -29q-73 23 -134 109
q-30 42 -45.5 79.5t-17.5 72.5q-3 40 6 84q12 60 39 109t69 88q92 86 197 62q116 -26 175 -153q57 -119 32 -245z" />
    <glyph glyph-name="product" unicode="&#x220f;" horiz-adv-x="621" 
d="M387 442q-2 10 -19 12t-38.5 -0.5t-41.5 -7t-27 -6.5l13 -106q2 1 8 2.5t13 3t12.5 2.5t7.5 1q7 3 20.5 11t26 20.5t20.5 29.5t5 38zM444 459q7 -34 -5 -63.5t-36 -52.5t-56 -38t-65 -21l18 -120l-60 -7l-44 325q19 6 39 12q17 5 37 10t38 8q18 2 39.5 2.5t41 -4.5
t34 -17t19.5 -34zM511 362q0 45 -6 89t-24.5 79.5t-52 57t-88.5 21.5q-54 0 -97 -24.5t-73 -63.5t-46 -88.5t-16 -99.5q0 -44 9.5 -87.5t30.5 -78t56 -55.5t86 -21t92 25t69.5 64.5t44 87.5t15.5 94zM570 396q0 -57 -15.5 -122t-48 -120.5t-82 -92.5t-116.5 -37
q-71 0 -119.5 29.5t-78 77.5t-42.5 107.5t-13 119.5t23.5 116.5t64.5 100t96 70t117 26.5q55 0 95 -25t66.5 -64.5t39.5 -88.5t13 -97z" />
    <glyph glyph-name="summation" unicode="&#x2211;" horiz-adv-x="549" 
d="M429 638l-337 16q4 -9 21 -29.5t41 -47t52 -56.5t55 -58.5t50 -52.5t37 -38v-45q-18 -23 -42 -55.5t-49.5 -69.5t-50 -74.5t-43.5 -70.5l4 2q65 17 125.5 24t128.5 5l1 20q0 9 1 27t3 35q2 20 4 43q11 2 23.5 0.5t22.5 -3.5q11 -4 23 -8q-1 -15 -1.5 -42t-2 -55.5t-4 -54
t-6.5 -36.5l-35 4q-45 3 -75 3t-54 -2q-84 -6 -249 -57l-28 34q21 35 53.5 83t66.5 98t65.5 96t51.5 76q-16 13 -39.5 36t-50.5 51.5t-55 60t-53.5 60.5t-45.5 54t-30 41l42 64l397 -13l59 5q2 -16 -0.5 -38.5t-6.5 -46t-7.5 -44.5t-3.5 -34q0 -8 0.5 -14t1.5 -11l2 -10
l-68 -8q-3 12 -5 26q-2 12 -2 26.5t3 29.5z" />
    <glyph glyph-name="minus" unicode="&#x2212;" horiz-adv-x="500" 
d="M451 309q-18 -2 -50.5 -2.5t-72.5 -1t-84 0t-84.5 0t-73.5 -1t-51 -2.5l-6 69q18 2 51 2.5t73 0.5h84h84t73 1t50 3z" />
    <glyph glyph-name="radical" unicode="&#x221a;" horiz-adv-x="319" 
d="M286 36q0 -79 -49 -138q-49 -61 -117 -61q-49 0 -89 30l-28 20q5 14 8.5 22.5t5.5 11.5q5 6 11 12t16 11q51 -38 84 -35q18 3 41 32q33 42 33 107q0 35 -12.5 73.5t-38.5 80.5q-23 37 -48 72.5t-48 72.5q-52 83 -52 153q0 24 6 47q19 80 93 146q68 60 154 87
q15 -16 17 -35l4 -38q-58 -15 -92 -39q-98 -68 -98 -176q0 -62 52 -142q24 -37 48.5 -72.5t47.5 -72.5q27 -45 39 -87t12 -82z" />
    <glyph glyph-name="infinity" unicode="&#x221e;" horiz-adv-x="803" 
d="M344 281q-8 14 -24.5 43t-36.5 58.5t-41.5 51.5t-39.5 22q-30 0 -49 -22t-30 -53t-15.5 -63.5t-4.5 -54.5q0 -18 3.5 -46.5t13 -55.5t26 -46.5t42.5 -19.5q31 0 55.5 20.5t43 49.5t32.5 61t25 55zM691 300q0 19 -2.5 49.5t-11 59t-24.5 49t-44 20.5q-34 0 -63 -20.5
t-52 -50.5t-41 -64t-30 -60q13 -19 34.5 -50t46.5 -60t52 -50.5t52 -21.5q18 0 31.5 11t23 29t15 40t8.5 44t4 42t1 33zM765 291q0 -34 -7 -79t-24.5 -85t-47 -68t-74.5 -28q-36 0 -69 17.5t-61 44.5t-51.5 58.5t-41.5 58.5q-16 -33 -34 -66.5t-42 -59.5t-55 -42.5
t-73 -16.5q-43 0 -72.5 24.5t-47.5 61t-25.5 78.5t-7.5 76q0 38 8.5 83.5t28.5 85t52.5 66t80.5 26.5q33 0 60 -17t49 -42.5t39 -55.5t31 -55q17 33 39.5 67t51 61.5t63 45.5t75.5 18q45 0 75 -27t48 -66.5t25 -84t7 -79.5z" />
    <glyph glyph-name="integral" unicode="&#x222b;" horiz-adv-x="363" 
d="M276 707q-11 21 -25.5 43.5t-25.5 26.5q-20 7 -35 7q-25 0 -32 -33q-6 -22 -12.5 -52.5t-6.5 -69.5q0 -21 2.5 -58t7 -82.5t10 -95.5t11.5 -95q5 -41 11.5 -79.5t12 -78.5t9.5 -82.5t4 -89.5q0 -27 -3 -42q-9 -66 -50 -101q-35 -31 -89 -31q-69 0 -119 49l45 53
q35 -35 74 -35q61 0 70 75q3 18 3 45q0 43 -3 78.5t-8 70.5t-11.5 72.5t-13.5 85.5q-3 24 -7 56.5t-7.5 66t-6.5 63.5t-4 48q-4 46 -5.5 78t-1.5 51q0 101 31.5 151t88.5 50q27 0 57 -10q48 -16 81 -81z" />
    <glyph glyph-name="approxequal" unicode="&#x2248;" horiz-adv-x="559" 
d="M509 221q-38 -51 -77 -81t-81 -30q-26 0 -52.5 13t-53.5 42q-20 22 -38 36t-37 14q-44 0 -81 -81l-58 28q9 26 24 49t33.5 40.5t40.5 27.5t44 10q24 0 49.5 -13t51.5 -42q15 -17 32 -34t40 -17q29 0 57 24t50 69q23 -10 34 -22.5t22 -32.5zM495 461q-26 -61 -64.5 -95
t-82.5 -34q-26 0 -52 13t-52 40q-20 22 -38.5 36t-36.5 14q-10 0 -22 -6t-24 -17t-23.5 -26t-18.5 -33l-58 30q33 66 66 101t72 35q51 0 110 -66q15 -17 33 -33.5t41 -16.5q27 0 50.5 24.5t34.5 72.5q25 -4 37.5 -13t27.5 -26z" />
    <glyph glyph-name="notequal" unicode="&#x2260;" horiz-adv-x="458" 
d="M399 165q-15 -2 -37 -3t-49 -1.5t-56.5 -1t-59.5 -1.5q-17 -35 -32.5 -67t-26.5 -56q-14 -28 -25 -53l-62 31q9 19 20 42q9 20 21.5 45.5t26.5 55.5q-25 -1 -45.5 -2t-34.5 -2l-7 68q20 2 51.5 3t68.5 2q16 35 31 67.5t26 59.5l-11 -1q-14 -1 -38.5 -1h-49.5h-61l1 71h60
h48.5t37.5 1q6 0 17.5 0.5t25.5 0.5q16 40 33 81t31 75q16 40 31 76q23 -6 35.5 -16.5t26.5 -35.5q-12 -25 -25 -54q-11 -25 -26 -56.5t-29 -66.5l81 3l1 -70q-18 0 -36 -1q-16 -1 -36.5 -1.5t-40.5 -1.5l-1 -3q-10 -25 -24 -57.5t-31 -67.5q51 2 95 3.5t68 3.5
q0 -12 2.5 -33.5t4.5 -35.5z" />
    <glyph glyph-name="lessequal" unicode="&#x2264;" horiz-adv-x="458" 
d="M409 65q-18 -2 -46.5 -3t-62.5 -2t-70.5 -2t-71 -1.5t-63 -1.5t-46.5 -3l-7 68q18 2 47 3t63 2t71 2t71 2t62.5 2t45.5 3q0 -12 2.5 -33.5t4.5 -35.5zM367 166q-42 19 -84 35t-83 33.5t-80.5 38.5t-75.5 48l75 72q30 29 55.5 52.5t49.5 44t48 40.5t51 43l50 -47
q-46 -41 -85 -74q-17 -14 -33.5 -28.5t-30.5 -27t-25 -22.5t-15 -14l-17 -16q27 -21 53 -34t52.5 -23t55 -20t59.5 -24z" />
    <glyph glyph-name="greaterequal" unicode="&#x2265;" horiz-adv-x="458" 
d="M409 65q-18 -2 -46.5 -3t-62.5 -2t-70.5 -2t-71 -1.5t-63 -1.5t-46.5 -3l-7 68q18 2 47 3t63 2t71 2t71 2t62.5 2t45.5 3q0 -12 2.5 -33.5t4.5 -35.5zM406 353q-32 -33 -67.5 -59.5t-73.5 -50t-77 -46.5t-77 -48l-32 73q28 19 54.5 33t51.5 28.5t49 31.5t47 41l-20 14
q-6 4 -18 11.5l-28 17.5t-34.5 21.5t-36.5 23.5q-43 27 -95 60l41 55q30 -19 57.5 -35t54.5 -33t56 -36t63 -43q11 -8 25 -18t28 -19z" />
    <glyph glyph-name="uni22C6" unicode="&#x22c6;" horiz-adv-x="638" 
d="M221 220l-37 -133l78 103zM110 375l67 -47q5 18 9.5 36t9.5 36zM411 287l-66 -81l143 -116zM361 446l-84 -23l-1 -2l-38 -137l62 -43l85 100l6 8zM324 622l-32 -133l56 16zM419 463l18 -56l63 79zM458 344l104 -322l-28 -31l-229 167l-136 -164l-62 34q8 45 22 106
t31 130l-136 99l10 53l181 51q23 84 47.5 157.5t45.5 124.5l47 -15l46 -214l182 56l28 -46z" />
    <glyph glyph-name="lozenge" unicode="&#x25ca;" horiz-adv-x="638" 
d="M221 220l-37 -133l78 103zM110 375l67 -47q5 18 9.5 36t9.5 36zM411 287l-66 -81l143 -116zM361 446l-84 -23l-1 -2l-38 -137l62 -43l85 100l6 8zM324 622l-32 -133l56 16zM419 463l18 -56l63 79zM458 344l104 -322l-28 -31l-229 167l-136 -164l-62 34q8 45 22 106
t31 130l-136 99l10 53l181 51q23 84 47.5 157.5t45.5 124.5l47 -15l46 -214l182 56l28 -46z" />
    <glyph glyph-name="uniF8FF" unicode="&#xf8ff;" horiz-adv-x="697" 
d="M539 827q3 -45 -11.5 -78.5t-30.5 -57.5q-11 -14 -29 -27.5t-39 -24t-43.5 -16t-42.5 -3.5q-1 34 11.5 72.5t34.5 64.5q11 13 29.5 26t39.5 23t42.5 16t38.5 5zM470 64q19 0 32.5 10.5t22.5 26t14 34.5t9 37l1 5q-23 12 -40 30t-28.5 40t-17.5 47t-6 49q0 21 9.5 41.5
t24.5 38t33.5 32t36.5 24.5q-11 21 -32.5 33t-47.5 12q-16 0 -31.5 -6.5t-32.5 -14.5q-18 -10 -37 -17.5t-40 -7.5q-15 0 -30.5 6.5t-28.5 14.5q-8 5 -18 9.5t-19 7.5q-13 4 -25 4q-31 0 -52 -12.5t-34 -36.5t-19.5 -59t-7.5 -80q-1 -15 4.5 -40.5t14.5 -55t22.5 -59.5
t29 -54.5t33.5 -40t37 -15.5q9 0 21 4.5t20 12.5q17 17 32 29t36 12q22 0 43 -13t41 -34q8 -8 17.5 -11t12.5 -3zM627 209q-6 -30 -17 -67t-30.5 -70t-48 -55t-68.5 -22q-15 0 -28.5 6.5t-27.5 14.5q-12 7 -25 12.5t-24 5.5q-9 0 -20 -5.5t-22 -10.5q-14 -8 -31 -16t-38 -8
q-42 0 -79.5 23t-67 68t-48.5 111t-23 152q-3 51 4 94t25.5 74.5t50 50.5t79.5 23q29 2 51.5 -7t39.5 -17q16 -8 32 -14t33 -6q16 0 31.5 6t32.5 14q20 9 41 16.5t42 7.5q30 0 54.5 -6t43 -24t30 -52t14.5 -89q-17 -6 -35.5 -12.5t-34 -16t-26 -22t-10.5 -30.5q0 -48 25 -76
t68 -42z" />
    <glyph glyph-name="uniFB01" unicode="&#xfb01;" horiz-adv-x="559" 
d="M478 621q0 -26 -19 -44q-19 -19 -44 -19t-46 19q-19 18 -19 44q0 25 19 43q12 10 21 14q-5 16 -11 28t-11 21q-5 10 -15 18.5t-21 15t-21 10.5t-16 6q-11 4 -29.5 5.5t-25.5 1.5q-27 0 -45 -16.5t-29 -40t-15.5 -50.5t-4.5 -48q0 -42 4.5 -108t12.5 -158q22 4 50.5 10.5
t65.5 15.5l34 8q20 -30 15 -68l-34 -8q-20 -5 -50.5 -11.5t-74.5 -15.5q3 -49 5.5 -86t5.5 -71.5t6 -71.5t8 -86l4 -35q-33 -14 -69 -7l-3 35q-5 50 -8.5 86.5t-6.5 70t-5.5 70t-5.5 86.5q-11 -1 -29 -3t-43 -5q-17 23 -8 69l16 1l59 7q-2 48 -5 89.5t-6 78.5q-4 46 -5.5 78
t-1.5 51q0 50 15 88t38.5 63t52.5 37.5t57 12.5q13 0 37 -2.5t40 -7.5q12 -4 28 -11t31.5 -17.5t29.5 -23.5t22 -29q3 -6 9.5 -18t14 -28t14 -35.5t9.5 -40.5q3 -9 3 -18zM503 -14q-13 -5 -30 -5t-39 2q-3 82 -12.5 193.5t-25.5 256.5q17 0 34 4.5t34 2.5l5 -34q2 -15 7 -57
t12 -114q6 -69 15 -249z" />
    <glyph glyph-name="uniFB02" unicode="&#xfb02;" horiz-adv-x="546" 
d="M429 -43q0 21 -1 42q-1 18 -1.5 40t-1.5 42q0 2 1 43t-3 122q-3 60 -11 144.5t-16 196.5q-3 53 -9 106q-10 9 -25 15.5t-31.5 11t-32 6.5t-26.5 2q-24 0 -45.5 -7t-38 -24t-27 -46.5t-13.5 -72.5q-2 -21 -1 -40t3 -42.5t5.5 -55t7.5 -77.5q22 4 50.5 10.5t65.5 15.5l34 8
q20 -30 15 -68l-34 -8q-20 -5 -50.5 -11.5t-74.5 -15.5q3 -50 5.5 -99t6.5 -98q4 -60 9 -109t11 -88l6 -35q-31 -15 -68 -11l-6 34q-4 26 -9 67.5t-11 99.5q-1 5 -4 61.5t-9 168.5q-11 -1 -29 -3t-43 -5q-17 23 -8 69l16 1l59 7q-1 24 -2.5 43t-3 36l-3 34t-2.5 35
q-2 23 -3.5 36t-2 22t-1 15.5t-0.5 15.5q0 50 20 87.5t49 62.5t63 37.5t62 12.5q27 0 55.5 -6t52.5 -20l-3 25l-5 34q26 12 92 7l5 -34q-9 -109 -3 -206q6 -77 14 -162.5t13 -181.5q2 -36 0.5 -71.5t0.5 -71.5q2 -57 6 -91.5t9 -48.5z" />
    <glyph glyph-name="glyph158" horiz-adv-x="621" 
d="M174 212q28 -49 73 -76q2 26 4 52.5t4 52.5zM509 332q11 -27 22.5 -59t22.5 -58q21 31 38 70.5t22 84.5zM417 373q-8 20 -16 45t-15.5 50.5t-15.5 50t-15 43.5q-3 -22 -5.5 -49.5t-5 -57t-5 -58.5t-4.5 -53zM504 163q-15 35 -30 71t-31 74l-115 -41q-4 -40 -7 -80t-6 -79
q11 -2 22.5 -3t23.5 -1q43 0 78.5 16t64.5 43zM621 450q0 52 -9 102.5t-32 90.5t-63.5 64.5t-104.5 24.5t-117 -30t-91.5 -77.5t-59.5 -107t-21 -117.5q0 -30 6 -62.5t16 -61.5l117 42q5 50 11.5 102.5t13.5 102t13.5 94t12.5 79.5l59 -14q23 -63 52 -136.5t59 -148.5z
M673 390q-9 -61 -31 -122.5t-59 -112.5q16 -37 30 -70t27 -62l-64 -28l-45 102q-33 -29 -74 -46t-92 -17q-14 0 -28 1t-28 3q-4 -54 -6.5 -101.5t-4.5 -86.5l-70 4q2 42 5 94t8 111q-45 20 -76.5 54t-52.5 77l-90 -32l-24 66l88 31q-12 42 -17.5 85t-5.5 86q0 71 28.5 137.5
t77 117.5t114 82t140.5 31q66 0 114 -29.5t80 -76t47 -104t15 -113.5v-4l62 22l24 -66z" />
    <glyph glyph-name="glyph172" horiz-adv-x="706" 
d="M201 245q-8 14 -13 29t-7 31l-102 104q-11 -41 -11 -79q0 -142 113 -226zM390 155v1q-22 -5 -39 -5q-21 0 -36 4l-120 -59q70 -46 155 -46t156 48zM412 275q-23 -30 -56 -30q-32 0 -52 23q-21 24 -21 60q0 37 20 62q19 24 54 24q34 0 55 -24l43 28q-11 23 -40 36
q-26 12 -52 12q-66 0 -103 -37q-39 -38 -39 -100q0 -61 38 -99q40 -38 103 -38q28 0 57 15q28 15 42 38h1zM347 611q-91 -2 -162 -53q-72 -53 -101 -136l136 24q28 34 66 51zM630 332q0 38 -9 73l-101 -104q-5 -26 -15 -48l20 -140q105 84 105 219zM615 424q-29 80 -96 131
q-68 51 -156 56l60 -116q34 -16 61 -49zM673 330q0 -133 -94 -227q-95 -95 -228 -95t-227 94q-95 95 -95 228q0 134 94 228t229 94q134 0 228 -94t94 -228h-1z" />
    <glyph glyph-name="glyph214" horiz-adv-x="671" 
d="M356 302q0 82 -60 82h-27v-163l26 -1q60 -3 60 82h1zM358 618l21 51l-54 -13l-43 36l-4 -56l-47 -30l52 -21l13 -54l36 43l56 -4zM418 303q0 -73 -40 -112q-32 -32 -80 -32h-87v289h87q48 0 80 -32q40 -39 40 -113zM527 168q0 -29 -44 -29q-19 0 -36 4v300q5 -2 22 13
l3 -7l-6 -89q-2 -28 2.5 -51.5t16.5 -43.5q17 -29 27 -49t13 -32v-1q2 -10 2 -15zM213 517v192h196v-192h-196zM468 510q0 -15 -20 -27v68q20 -40 20 -41zM562 151q0 21 -9 53v1q-3 10 -36 71q-25 46 -21 82q5 38 7.5 63.5t2.5 39.5q0 36 -11 56q-17 29 -47 61v94
q0 15 -3 27q-6 29 -21 38q-24 13 -35 15h-153q-16 4 -37 -14q-23 -21 -23 -66v-175h-26v-25h26v-367h-61v-32h390v33q10 -2 17 -2q40 0 40 47zM620 145q0 -61 -34 -101q-38 -44 -94 -44h-316q-58 0 -94 42t-36 102v516q0 57 44 98q43 42 99 42h313q45 0 81 -41
q37 -41 37 -99v-515z" />
    <glyph glyph-name="glyph249" horiz-adv-x="491" 
d="M376 267q0 24 -10.5 47t-28 40.5t-40 28.5t-46.5 11q-69 0 -106 -39t-37 -110q0 -23 12 -44.5t30.5 -38t41.5 -26t46 -9.5q66 0 102 38t36 102zM477 516q-30 -2 -48 -5.5t-29 -12.5t-16.5 -26.5t-9.5 -47.5q38 -26 58.5 -62.5t20.5 -83.5q0 -48 -13 -87.5t-38.5 -68
t-63 -44t-85.5 -15.5q-35 0 -69 6q-11 -5 -27 -12.5t-30.5 -18t-25 -23t-10.5 -27.5t8.5 -24t20.5 -14.5t25.5 -7.5t24.5 -2q43 0 85.5 7.5t86.5 7.5q60 0 93 -27.5t33 -90.5q0 -41 -18.5 -74t-47 -59.5t-62 -47.5t-64.5 -39q-8 5 -14.5 16.5t-11 24.5t-6.5 26.5t-2 22.5
q25 2 50.5 11.5t46.5 26t34 39.5t13 50q0 29 -10.5 40t-40.5 11q-47 0 -94 -10t-94 -10q-25 0 -50 6t-44.5 19.5t-32 34.5t-12.5 50q0 23 9 42t24 35t33.5 28.5t36.5 22.5q-28 25 -47.5 57t-19.5 71q0 105 58 165t162 60q24 0 47 -6l1 2q9 38 21 62t30 38.5t44 21t64 8.5z
" />
    <glyph glyph-name="glyph250" horiz-adv-x="581" 
d="M513 160q0 -61 -14.5 -116t-45.5 -97t-79.5 -66.5t-115.5 -24.5q-49 0 -90 23t-71 60t-46.5 83t-16.5 93q0 35 11 67.5t32 57t50.5 39.5t67.5 15q32 0 59 -12.5t46.5 -33.5t30.5 -49t11 -59q0 -30 -12 -53t-32 -34l-56 53q8 4 14 10q5 5 9 12t4 17q0 12 -4.5 25.5
t-13 25.5t-20 20t-24.5 8q-21 0 -39 -13.5t-31.5 -33t-21 -42.5t-7.5 -42q0 -30 12 -60t32.5 -54t48 -38.5t58.5 -14.5q49 0 84 17.5t57.5 48t32.5 70.5t10 85q0 60 -15.5 97t-41 59.5t-58.5 34t-68 20.5q-36 9 -71.5 19.5t-63.5 29.5t-45 50.5t-17 82.5q0 36 12.5 79
t36 80.5t57 62.5t75.5 25q26 0 52.5 -3.5t51 -16t45.5 -36t36 -63.5l-76 -34q-5 27 -16 43.5t-25.5 25.5t-32 12t-35.5 3q-24 0 -42.5 -20t-31 -48t-18.5 -57.5t-6 -48.5q0 -38 15.5 -58.5t39.5 -32t54 -18t60 -16.5q35 -11 70.5 -25t64 -41t46 -72.5t17.5 -120.5z" />
    <glyph glyph-name="glyph251" horiz-adv-x="319" 
d="M286 36q0 -79 -49 -138q-49 -61 -117 -61q-49 0 -89 30l-28 20q5 14 8.5 22.5t5.5 11.5q5 6 11 12t16 11q51 -38 84 -35q18 3 41 32q33 42 33 107q0 35 -12.5 73.5t-38.5 80.5q-23 37 -48 72.5t-48 72.5q-52 83 -52 153q0 24 6 47q19 80 93 146q68 60 154 87
q15 -16 17 -35l4 -38q-58 -15 -92 -39q-98 -68 -98 -176q0 -62 52 -142q24 -37 48.5 -72.5t47.5 -72.5q27 -45 39 -87t12 -82z" />
    <glyph glyph-name="glyph252" horiz-adv-x="618" 
d="M473 274q7 78 -40 154q-41 65 -99 86q-44 18 -95 2q-41 -13 -66 -41q-43 -48 -63 -146q-6 -34 -4 -63q2 -32 16 -63t42 -62q55 -62 120 -77q70 -16 120 34q48 48 59 101q2 9 4.5 27.5t5.5 47.5zM549 204q-23 -114 -120 -177q-95 -62 -201 -29q-73 23 -134 109
q-30 42 -45.5 79.5t-17.5 72.5q-3 40 6 84q12 60 39 109t69 88q92 86 197 62q116 -26 175 -153q57 -119 32 -245z" />
    <glyph glyph-name="glyph257" horiz-adv-x="468" 
d="M319 230q-24 93 -48 184t-50 182q-26 -108 -46 -200.5t-37 -172.5q49 1 94 2.5t87 4.5zM257 718q33 -116 60.5 -213t50.5 -182.5t42 -163t37 -153.5q-23 -16 -67 -16q-4 15 -7.5 28.5t-8 31.5t-11.5 44t-17 67q-48 -3 -100 -5t-112 -2q-5 -24 -7.5 -38.5t-5 -28t-5 -30.5
t-6.5 -47q-42 -2 -69 9l5 33q1 12 2 17t2.5 13.5t4.5 24t8 47.5q10 49 23.5 114t29 136t33 144.5t34.5 140.5z" />
    <glyph glyph-name="glyph258" horiz-adv-x="465" 
d="M343 212v14t-2 15q-7 55 -75 86q-12 6 -28.5 9.5t-34.5 5.5t-36 3t-34 1l3 -110q2 -54 4 -97t2 -88q38 5 73.5 18t64.5 36q57 45 63 107zM275 558q0 27 -8 41.5t-39 21.5q-18 4 -48 3t-57 -6q2 -57 2 -107.5t5 -90.5q69 20 107 54t38 84zM423 204q-9 -95 -100 -160
q-101 -73 -257 -67q1 115 -3 364q-1 21 -1.5 54t-2 76.5t-4.5 95.5t-8 109l82 16q35 8 66 8t57 -5q58 -12 85 -52q14 -20 18.5 -42t-2.5 -48q-7 -27 -16.5 -47.5t-22.5 -36.5t-29 -29.5t-36 -28.5q89 -24 136 -84q44 -55 38 -123z" />
    <glyph glyph-name="glyph259" horiz-adv-x="524" 
d="M488 188q0 -8 -2 -13.5t-4.5 -10.5t-4.5 -11t-3 -15q-2 -19 -8.5 -38t-14.5 -36q-17 -36 -58.5 -62t-121.5 -26q-47 0 -88 17.5t-67 46.5q-30 33 -48.5 74.5t-28 85.5t-12.5 87.5t-3 80.5q0 50 14.5 107.5t46 106t79.5 80.5t116 32q45 0 81.5 -14t62.5 -39t41.5 -59
t17.5 -74l4 -50q-20 -6 -38 -7t-39 0q2 15 1 34.5t-1 31.5q0 25 -10 44.5t-27.5 33.5t-41 21.5t-50.5 7.5q-47 0 -80.5 -25t-55.5 -61.5t-32 -79t-10 -77.5v-58.5t4 -67.5q5 -36 14 -71.5t27 -67.5q20 -35 52.5 -53t74.5 -18q37 0 64 8t43 27q19 23 27.5 58t9.5 68z" />
    <glyph glyph-name="glyph260" horiz-adv-x="464" 
d="M353 398q0 60 -16.5 100.5t-49.5 64.5q-59 43 -172 38l14 -550q41 3 72.5 15.5t54.5 31t39 40t26 41.5t16 46t9.5 55t5 59.5t1.5 58.5zM430 380q0 -156 -45 -249q-18 -38 -47.5 -66t-70 -49t-92.5 -36.5t-115 -27.5l-21 714q76 3 105 3q68 0 119.5 -14t86.5 -44
q80 -68 80 -231z" />
    <glyph glyph-name="glyph261" 
d="M404 54q-86 -14 -167 -36.5t-167 -57.5l-8 334q-3 0 -12 -1t-19.5 -2t-19.5 -2t-12 -1l-1 70q4 0 12.5 0.5t18.5 1t18.5 1.5t12.5 1l-5 290q15 -1 30.5 -1h32.5q13 0 76 3.5t177 10.5q10 -28 4 -69l-35 -3q-36 -2 -89.5 -5.5t-125.5 -6.5l4 -211q54 8 112.5 15t117.5 18
q17 -28 13 -68l-34 -6q-49 -9 -101 -15.5t-106 -13.5l6 -240q62 22 124.5 36.5t131.5 25.5q14 -27 11 -68z" />
    <glyph glyph-name="glyph262" horiz-adv-x="474" 
d="M450 691q9 -44 1 -69l-37 1q-42 1 -84.5 0.5t-80.5 -2.5t-71 -4.5t-57 -3.5q-1 -52 -0.5 -111t1.5 -126q55 -2 98.5 -3.5t78.5 -0.5l34 1q10 -25 2 -69l-35 -1q-23 0 -52.5 -1t-64.5 1q-13 0 -28 1.5t-33 2.5l7 -320q-38 -8 -69 0q-6 228 -6 687q28 5 59.5 8t67.5 5
q5 0 27.5 0.5t57.5 1t82 1t102 1.5z" />
    <glyph glyph-name="glyph263" horiz-adv-x="523" 
d="M424 310l-38 -3q-3 -103 -3.5 -179t1.5 -129q-15 -9 -47 -22q-39 -15 -77 -15q-112 0 -196 115q-34 48 -34 148q0 40 1.5 82t6.5 84t15 83t28 79q19 41 42 69t48 45t50.5 24.5t49.5 7.5q61 0 103.5 -29.5t48.5 -86.5l3 -34q-38 -11 -69 -6l-2 35q-2 29 -26.5 39.5
t-58.5 10.5q-17 0 -36 -5t-38 -18.5t-37 -38t-31 -63.5q-12 -35 -18.5 -65t-9 -58.5t-2.5 -57.5v-60q0 -34 0.5 -60.5t7.5 -49.5t22 -43.5t44 -42.5q54 -42 90 -37q25 3 50 12q-2 38 -0.5 102t5.5 156h-27h-16.5t-11.5 -0.5t-12 -0.5l-23 -1l-4 64q20 1 38 3l32 2t27 1
q29 0 61.5 2t81.5 8q8 -20 6 -36.5t-1 -30.5h-44z" />
    <glyph glyph-name="glyph264" horiz-adv-x="491" 
d="M421 -26q-26 -7 -69 1v35l1 208l-202 -1l5 -220q-32 -7 -69 -2l-5 222h-69v68h68l-6 409q36 6 69 2l6 -411l204 1l6 410q28 7 69 0l-6 -410z" />
    <glyph glyph-name="glyph265" horiz-adv-x="241" 
d="M146 695q11 1 9.5 0.5t-9.5 -1.5v1zM93 -5v75v85v78.5v56.5q-1 15 -2 45.5t-2.5 68t-3 79.5t-3.5 81.5t-3.5 72.5t-2.5 53q1 0 9.5 0.5t19 1t22 1.5t19.5 1q1 -24 3 -71.5t4 -109t4 -131.5t3.5 -139.5t3.5 -133t4 -111.5z" />
    <glyph glyph-name="glyph266" horiz-adv-x="438" 
d="M246 547q7 -43 24 -127.5t45 -213.5q7 -32 7 -66q0 -113 -75 -197q-75 -82 -186 -82q-13 0 -25.5 1t-26.5 3q-50 10 -88 45l-26 23l48 51l25 -23q1 -3 15 -12q14 -10 31.5 -14t37.5 -4q72 0 139 52q59 45 59 152q0 57 -18 141q-6 30 -12.5 60t-13.5 59q-6 25 -13 61
t-16 85l-138 -10q-8 27 -6 69l35 3l321 28q12 -32 5 -69z" />
    <glyph glyph-name="glyph267" horiz-adv-x="493" 
d="M431 567q-34 -28 -77.5 -64.5t-97.5 -80.5q-12 -10 -35 -24t-57 -35l-26 -16l127 -137q38 -38 72.5 -69.5t66.5 -57.5l38 -30q-7 -9 -28 -24q-30 -20 -30 -21l-26 23q-32 29 -75 69t-96 92q-8 8 -22 24t-37 39q-1 -20 -2.5 -56t-3 -77t-4 -81.5t-5.5 -68.5l-3 -34
q-37 -9 -69 7l3 34l5 353q0 45 6 146q1 24 2 59.5t1.5 71t0.5 65.5v42q38 8 69 2l3 -295q45 27 110 74.5t146 121.5l25 23q30 -21 45 -53z" />
    <glyph glyph-name="glyph268" horiz-adv-x="500" 
d="M440 71q5 -18 5.5 -35.5t-4.5 -35.5q-53 -1 -105 -2.5t-105 -3.5q-56 -2 -99.5 -3.5t-74.5 3.5l-18 2l2 35q6 119 8 202t1 133q-1 54 3 139t9 200q35 9 71 -3l-2 -35l-10 -300q-2 -45 -2 -120.5t-5 -181.5z" />
    <glyph glyph-name="glyph269" horiz-adv-x="729" 
d="M674 -30q-24 -6 -49 -6t-42 6v34q4 26 3.5 63.5t-3 80.5t-7 88t-10 86t-10 75t-7.5 55q-3 20 -10 56t-14 90l-181 -493l-204 357l-20 -461q-65 -7 -92 3l1 35l48 609l52 18l200 -403l181 442l73 -26l5 -34q5 -32 12 -75.5t16 -100.5q8 -51 16.5 -116.5t16 -131.5
t13.5 -124t9 -93z" />
    <glyph glyph-name="glyph270" horiz-adv-x="539" 
d="M424 0q-39 51 -80 104.5t-81 109.5t-76.5 113t-64.5 116q8 -81 14 -144t11 -116t10 -100.5t12 -96.5q-33 -11 -69 -9l-5 35q-7 55 -13.5 117t-13.5 139.5t-16 174t-21 220.5l48 33q33 -71 73.5 -146t84 -147t87 -137t83.5 -116q-3 75 -4.5 138.5t-1.5 124.5t1 124.5
t3 140.5q29 9 69 -2q-1 -31 -1.5 -55.5t-0.5 -47v-46.5v-55q0 -77 -1 -132t-1 -105.5t1.5 -104.5t7.5 -130h-55z" />
    <glyph glyph-name="glyph271" horiz-adv-x="580" 
d="M475 378q0 104 -45 172t-112 68q-27 0 -52 -11q-80 -32 -124.5 -98.5t-44.5 -163.5q0 -38 3.5 -74t13.5 -69t27.5 -62.5t44.5 -52.5q21 -19 45.5 -26.5t50.5 -7.5q65 0 115 62q55 70 73 204q2 16 3.5 30.5t1.5 28.5zM544 377q0 -14 -1 -28.5t-3 -28.5q-21 -165 -103 -256
q-72 -78 -167 -78q-72 0 -131 47q-31 24 -51.5 61t-33 80t-17.5 87.5t-5 84.5q0 245 197 326q34 14 73 14q48 0 90.5 -18.5t77.5 -62.5q38 -45 56 -103t18 -125z" />
    <glyph glyph-name="glyph272" horiz-adv-x="531" 
d="M424 525q0 40 -18.5 63t-47 34.5t-63 14.5t-67.5 3t-112 -18l13 -320q22 -3 45 -3q54 0 100 14t79 42.5t52 71t19 98.5zM506 539q0 -61 -16.5 -106.5t-44.5 -79t-65.5 -58t-78.5 -42.5q-52 -23 -126 -23q-11 0 -21.5 0.5t-21.5 1.5l26 -272q-73 -17 -93 -11l-2 34
q2 10 3 32t1 56q0 10 -1.5 42t-4 100.5t-6.5 180t-10 282.5q38 11 133 27q19 3 37 3.5t35 0.5q48 0 94 -6t82 -24t58 -51t22 -87z" />
    <glyph glyph-name="glyph273" horiz-adv-x="652" 
d="M131 483q-16 -38 -24 -78t-8 -85q0 -14 1 -27.5t3 -26.5q6 -34 26 -63.5t56 -53.5q66 -44 144 -44q10 0 19.5 1t19.5 3q-14 29 -21.5 60t-22.5 57q-8 15 -22.5 28.5t-32.5 18.5q2 13 6 25q3 11 7.5 21.5t10.5 17.5q13 -4 27.5 -13t28 -21t24.5 -27t17 -31
q11 -29 21 -58.5t24 -58.5q50 21 77 60q31 47 31 153q0 51 -11 98q-6 27 -25.5 57.5t-46.5 57t-58 43.5t-60 17q-74 0 -127.5 -31t-83.5 -100zM599 455q8 -32 12 -63t4 -61q0 -197 -148 -264q52 -89 138 -186q-11 -14 -24.5 -25.5t-27.5 -20.5l-23 27q-5 6 -18 21t-32 41
q-23 29 -43 59.5t-37 62.5q-47 -11 -79 -11q-62 0 -132 35q-136 66 -155 186q-2 17 -3 33.5t-1 33.5q0 111 44 200q22 45 50.5 75.5t63.5 49t76.5 26.5t88.5 8q39 0 79 -22t74.5 -56t59 -73.5t33.5 -75.5z" />
    <glyph glyph-name="glyph274" horiz-adv-x="490" 
d="M318 514q4 49 -14 81.5t-53 43.5q-32 9 -97 -1q-1 -22 -3.5 -57l-5.5 -77l-11 -136l-2 -25q12 0 20.5 0.5t13.5 1.5q33 6 62 22.5t50 42.5q37 48 40 104zM244 713q80 0 117.5 -50.5t32.5 -133.5q-4 -97 -62 -165q-56 -66 -150 -86q28 -67 61 -108.5t69.5 -69t75.5 -45.5
t80 -37l-31 -65q-57 18 -102 44t-81.5 61.5t-67.5 80.5t-61 101q-4 -53 -7.5 -92.5t-6.5 -71t-5.5 -57.5t-5.5 -51l-69 7q3 22 6 54.5t7.5 80t9.5 112t11 151.5l10 121l9 129q-24 -8 -45.5 -15.5t-45.5 -16.5q-2 6 -2.5 19.5t-1.5 27.5q-1 16 -2 34q28 10 50 13t51 9
q24 5 60 12t96 7z" />
    <glyph glyph-name="glyph275" horiz-adv-x="466" 
d="M423 219q0 -68 -30 -120q-29 -55 -79 -86q-50 -33 -110 -33t-120 36q-6 4 -17 17.5t-21 33t-17 43t-5 49.5l1 30q41 11 66 5l-2 -29q-1 -12 0 -26.5t4 -28t8 -24t14 -15.5q22 -12 40 -19t33 -9q47 -4 95 41q18 17 27 28.5t19 29.5q17 34 17 77q0 7 -1.5 16.5t-4 18.5
t-5.5 16.5t-6 10.5q-18 20 -44.5 27t-75.5 13q-42 5 -77.5 15t-60.5 39q-21 24 -26 58q-2 17 -2.5 34t-0.5 35q0 20 1.5 42.5t6 43.5t13 40.5t22.5 33.5q29 28 63.5 36.5t74.5 6.5q48 -3 80.5 -13.5t46.5 -25.5q30 -32 33 -75v-11v-17.5v-18.5v-13l-64 2q0 4 0.5 12
t0.5 16.5t-0.5 15.5t-0.5 9q-2 16 -9 26t-18 17q-17 11 -38.5 13.5t-34.5 2.5q-28 0 -47 -7.5t-36 -24.5q-9 -8 -14.5 -20.5t-9 -26.5t-5 -29t-1.5 -28q0 -15 3 -32.5t8 -33.5q9 -26 35 -40.5t65 -19.5q69 -8 111.5 -23.5t62.5 -36.5q15 -16 23.5 -41.5t8.5 -62.5z" />
    <glyph glyph-name="glyph276" horiz-adv-x="659" 
d="M633 588l-49 -3l-210 1h-19q-3 -38 -6.5 -95t-7.5 -139q-2 -41 5 -118t18 -192l4 -35q-11 -8 -86 -8l-5 36l7 317q1 38 -0.5 97t-0.5 139q-36 -3 -94 -7.5t-138 -6.5l-47 -1q-2 5 -2.5 14t-0.5 19t-0.5 19.5t-0.5 17.5l47 2q45 1 106.5 8t140.5 7h99q8 0 35 -0.5t73 0.5
h68l15 1h5l49 2z" />
    <glyph glyph-name="glyph277" horiz-adv-x="464" 
d="M418 269q0 -80 -38 -145q-8 -14 -24 -28.5t-35 -27t-39 -21.5t-35 -11q-20 -4 -42 1.5t-48 18.5q-53 26 -71 67q-4 8 -8.5 39t-9 76.5t-8.5 102t-7 115t-4 115t1 102.5q19 2 34 2t37 -5l-1 -35q-1 -10 -0.5 -33t1.5 -51.5t2 -61t2 -61t2 -51.5t1 -33q1 -87 7.5 -133
t17.5 -63q6 -9 15 -17.5t25 -15.5q29 -13 43 -10q8 1 21 5t26.5 9.5t24.5 12.5t15 14q33 55 33 107q0 7 -0.5 29.5t-1.5 54t-2.5 68.5t-2.5 74t-2 70.5t-2 58.5l-2 35q37 8 69 2l2 -34q1 -23 1.5 -54.5t1 -67.5t0.5 -72t0.5 -66.5t0.5 -52.5v-29z" />
    <glyph glyph-name="glyph278" horiz-adv-x="548" 
d="M517 644q-6 -16 -18.5 -44.5t-27.5 -72.5q-22 -64 -48 -127t-52.5 -126t-51.5 -125.5t-45 -126.5l-66 -22l-103 301q-8 24 -33.5 108t-68.5 230q24 18 66 20l10 -33l91 -303q5 -17 23.5 -69t48.5 -141q24 59 45.5 113.5t41 107.5t39 107t39.5 111q5 15 17 44t29 72
q40 -3 64 -24z" />
    <glyph glyph-name="glyph279" horiz-adv-x="629" 
d="M608 677q-22 -117 -51 -326q-17 -119 -29 -201t-20 -128l-51 -29l-81 190q-2 4 -10 30t-18.5 60t-22 69t-19.5 59l-127 -419l-48 7l-29 142q-19 91 -30 162t-14 122q-2 35 -6.5 63t-10 54.5t-11 54t-9.5 62.5l-4 35q22 14 46 22t50 10l5 -35q1 -55 3.5 -103t6 -94
t7.5 -93.5t9 -102.5q2 -15 7 -48t16 -87l107 357l51 6l109 -303q2 -8 9.5 -23.5t18.5 -41.5q8 38 17 105.5t21 166.5q21 172 42 270q43 6 66 -13z" />
    <glyph glyph-name="glyph280" horiz-adv-x="459" 
d="M402 654q-24 -66 -57.5 -154t-74.5 -200q19 -42 45 -103.5t61 -142.5l13 -32q-20 -24 -64 -27l-13 31q-10 25 -29 70t-48 111l-108 -252q-43 5 -71 36l15 32q16 36 29 61.5t26.5 53t29.5 64t40 93.5l-6 12q-17 34 -56 102t-105 170l-18 29q11 14 20 22t14 13q8 6 20 12
l26 13l25 -51q17 -35 43.5 -93t67.5 -139l74 204l34 125q40 -5 78 -28z" />
    <glyph glyph-name="glyph281" horiz-adv-x="558" 
d="M517 634q-31 -59 -67 -141.5t-82 -188.5q-49 -116 -88.5 -205.5t-61.5 -135.5l-15 -32l-62 29l15 31q15 30 29.5 60.5t31 65t34 75t38.5 90.5l1 2l-277 366q31 58 61 71l18 -26q23 -35 53 -85.5t61 -100.5t60 -92t50 -61q15 38 30 73t33 74t40 85.5t52 106.5
q46 -12 62 -30z" />
    <glyph glyph-name="glyph282" horiz-adv-x="510" 
d="M479 103q12 -40 -1 -69l-35 2q-45 2 -80 0.5t-59 -4.5q-83 -9 -247 -66l-29 33q40 72 79 143.5t79 144.5q5 10 18 35t30 55.5t35 62t32 53.5q25 40 43.5 71.5t29.5 55.5l-271 -12l-50 -10q-15 46 4 101l418 -18q-9 -22 -22.5 -52.5t-32.5 -69.5q-14 -22 -35.5 -59
t-45.5 -80t-48.5 -87t-44.5 -78q-16 -28 -41 -76t-61 -115l4 3q146 42 296 38z" />
    <glyph glyph-name="glyph283" horiz-adv-x="450" 
d="M293 228q-17 18 -42.5 32t-51.5 14q-20 0 -37.5 -11t-30 -28t-19.5 -37t-7 -38q0 -57 24.5 -82.5t62.5 -25.5q19 0 38.5 11.5t35.5 29t28 37t17 36.5l10 33zM412 16q-16 -11 -27.5 -19t-20.5 -13t-17.5 -7t-18.5 -1l-8 89q-29 -36 -60.5 -56t-69.5 -20q-65 0 -110 39
q-49 43 -49 112q0 24 6 50q17 71 61 109q41 35 98 35q64 0 120 -43l-1 45q-1 32 -1 48t-2 26q-8 56 -39 65q-12 5 -32 7.5t-32 0.5q-11 -2 -25 -8t-27 -12q-17 -9 -28.5 -17t-18.5 -15q-7 5 -11 15t-8 24q-3 14 -5 25t-2 21q56 41 139 41q38 0 71 -12q62 -20 81 -88
q7 -20 9.5 -50t2.5 -71v-10.5t-0.5 -6t-1 -11t-0.5 -25.5q-1 -36 -1 -55.5v-38.5q0 -24 0.5 -51t3 -51t8 -43t16.5 -28z" />
    <glyph glyph-name="glyph284" horiz-adv-x="488" 
d="M377 250q0 45 -5.5 78t-21.5 54.5t-43.5 31.5t-72.5 10q-29 0 -56.5 -12t-47.5 -31q2 -35 3.5 -65t1.5 -59v-59t-1 -65q11 -7 24.5 -15t28.5 -15t30 -11.5t29 -4.5q37 0 62 12.5t40.5 34.5t22 51.5t6.5 64.5zM465 259q0 -48 -11.5 -93t-35.5 -79t-61.5 -54.5t-90.5 -20.5
q-35 0 -68.5 11t-64.5 28q0 -18 1.5 -36t1.5 -36q-29 -8 -57 -8q-17 0 -32 3q11 25 15.5 61.5t5.5 75.5t0 77t-1 67q0 55 -4 110.5t-9 111t-9 110.5t-4 111q0 41 3 82q27 9 54 9h10.5t10.5 -2q-2 -35 -4.5 -70t-2.5 -70q0 -45 4.5 -88.5t7.5 -88.5q46 34 104 34
q115 0 176 -62t61 -183z" />
    <glyph glyph-name="glyph285" horiz-adv-x="444" 
d="M406 125q-74 -124 -195 -124q-50 0 -86 20.5t-59 57t-33.5 87t-10.5 110.5q0 47 12 93t37.5 82.5t64.5 59t93 22.5q47 0 81 -18t69 -48l-37 -65q-10 9 -21.5 19t-24.5 18.5t-27 14.5t-28 6q-42 0 -69 -17t-42.5 -45t-22 -64t-6.5 -73q0 -40 7.5 -73t22.5 -57t38 -37.5
t54 -13.5q39 0 74.5 23t62.5 61z" />
    <glyph glyph-name="glyph286" horiz-adv-x="497" 
d="M356 213q-2 18 -2 48.5t-1 75.5l-1 2q-70 41 -99 37q-65 -6 -112 -67q-48 -62 -48 -129q0 -96 94 -99q82 -3 165 60l7 -8zM451 -22q-34 -17 -92 -17q0 15 0.5 22.5t1 15.5t0.5 21t-1 41q-82 -53 -176 -49q-81 3 -125 59q-38 47 -38 125q0 83 45 154q62 97 172 97
q53 0 115 -31q0 42 -1 70t-2 53.5t-2 53.5t-1 69q0 48 11 94q56 6 81 -12l-8 -33q-4 -17 -6 -37.5t-2 -44.5q0 -61 -0.5 -110t-0.5 -95.5t0.5 -96t2.5 -110.5q1 -30 1 -61t2 -61t7 -59.5t16 -57.5z" />
    <glyph glyph-name="glyph287" horiz-adv-x="462" 
d="M325 331q-2 74 -15 104q-23 50 -88 54q-60 3 -99 -72q-33 -62 -31 -127zM101 226q20 -78 64.5 -117.5t96.5 -39.5q15 0 33 7.5t35.5 19.5t33 27t26.5 31l46 -39q-18 -36 -44 -63q-22 -23 -54.5 -42.5t-77.5 -19.5q-34 0 -64 10t-55 25t-43 33.5t-27 35.5q-12 21 -21 47
t-15 53t-9 53.5t-3 50.5q0 62 21 115q31 76 77 110.5t106 30.5q190 -12 186 -273z" />
    <glyph glyph-name="glyph288" horiz-adv-x="394" 
d="M365 603q-26 -20 -66 -22q-3 11 -5.5 18.5t-5 13.5t-5.5 12.5t-7 15.5q-13 26 -30 41.5t-48 15.5q-24 0 -33 -33q-11 -46 -11 -122q0 -21 1 -33.5t2 -23t2.5 -21.5t2.5 -29q19 3 35 5.5t31 5t31 5.5t35 8q19 -30 15 -68q-20 -5 -37 -8t-33.5 -5.5t-34 -5t-37.5 -6.5
q2 -38 4.5 -84.5t6 -95t8 -95t10.5 -83.5l6 -35q-31 -15 -68 -11l-6 34q-6 39 -10 86t-7 95t-6 94.5t-7 85.5q-11 -2 -28.5 -4t-43.5 -4q-17 23 -8 69l16 1l60 7q-3 16 -4.5 25.5t-2.5 22.5t-1.5 33t-0.5 57q0 201 113 201q50 0 82.5 -23t55.5 -68q7 -14 13 -31t16 -41z" />
    <glyph glyph-name="glyph289" horiz-adv-x="515" 
d="M365 -126q0 27 -11.5 46.5t-31 33t-44 20t-51.5 6.5q-57 0 -85.5 -25.5t-28.5 -80.5q0 -40 36.5 -62t94.5 -22q20 0 41.5 5.5t39 16.5t29 26.5t11.5 35.5zM403 355q7 78 -76 122q-17 9 -46 9q-47 0 -79.5 -9t-52.5 -28.5t-29 -51t-9 -75.5q0 -11 7 -25.5t17 -28t21.5 -25
t20.5 -16.5q11 -6 33 -8.5t55 -2.5q50 0 76 17q55 35 62 122zM494 590q-17 2 -28.5 3.5t-19.5 2.5q-10 1 -16 2q-47 0 -54 -63q41 -26 70 -77q30 -56 26 -109q-12 -139 -118 -188q-49 -21 -136 -12q-42 -11 -66 -23.5t-24 -37.5q0 -13 19 -26t37 -17q42 9 87 2t82.5 -29
t61.5 -58t24 -84q0 -38 -17 -67t-44.5 -48.5t-61.5 -29.5t-68 -10q-58 0 -97 11.5t-63 32t-34 48t-10 60.5q0 53 18 86t54 57q-30 13 -50.5 34t-19.5 47q1 19 10 30.5t23 19t30.5 12t31.5 9.5q-18 11 -38.5 28t-37.5 38t-28 44.5t-11 46.5q0 52 18.5 94.5t50 72.5t74.5 46.5
t93 16.5q17 0 32.5 -2t29.5 -5l1 2q17 99 91 123q21 8 41 9l35 3q14 -44 2 -95z" />
    <glyph glyph-name="glyph290" horiz-adv-x="474" 
d="M419 -24l-26 2q-11 1 -23.5 2t-21.5 2l3 38q4 41 4 88.5t-2 101.5q-6 134 -28 179q-10 21 -31.5 31.5t-35.5 12.5q-17 1 -35 -12t-34 -32t-28 -40t-18 -35l-9 -21q3 -54 8 -122t9 -153l1 -35q-17 -4 -34 -5t-34 1l-2 35q-3 75 -9 168t-11 207q-1 19 -6.5 66t-11.5 103
t-11.5 112.5t-5.5 96.5q17 5 41 4.5t41 -4.5l2 -34q2 -55 6.5 -136.5t11.5 -184.5q90 113 155 113q11 0 26.5 -6.5t32 -19t31 -30.5t23.5 -42q15 -41 25.5 -143t-4.5 -267v-19.5t1 -21.5z" />
    <glyph glyph-name="glyph291" horiz-adv-x="211" 
d="M145 1q-26 -6 -69 3q1 40 1.5 95t-0.5 118.5t-2.5 134.5t-4.5 143q37 9 69 2l2 -35q0 -7 1 -27.5t2 -49.5t2 -63.5t2 -70.5q1 -69 -3 -250zM157 637q-2 -23 -18 -36q-17 -15 -39 -14t-37 19q-15 16 -13 39q1 22 18 37t40 13q21 -2 36 -18q14 -19 13 -40z" />
    <glyph glyph-name="glyph292" horiz-adv-x="249" 
d="M186 -94q-3 -37 -20 -77t-46 -62q-38 -30 -91 -25q-78 5 -117.5 54.5t-34.5 124.5q1 10 1.5 15.5t2 10t3 10.5t3.5 17q43 8 68 -13q-3 -16 -5 -23t-4 -22q-5 -44 18 -73.5t70 -33.5q25 -2 40.5 9t24 28t11.5 38t5 40q4 59 3 141t-10 191q-3 34 -4.5 55.5t-2.5 36.5
t-2 26.5t-2 26.5t-3 36t-5 55q21 7 40.5 8.5t33.5 -2.5q3 -32 5 -88t9 -152q8 -103 11 -192.5t-2 -159.5zM175 646q-1 -21 -19 -37q-17 -15 -39 -14t-38 19q-15 16 -13 40t19 39q18 14 39 13q23 -2 38 -19q14 -18 13 -41z" />
    <glyph glyph-name="glyph293" horiz-adv-x="459" 
d="M338 -20l-12 33q-32 85 -61.5 153t-58.5 123q-12 -11 -31 -27.5t-45 -40.5q0 -26 0.5 -53.5t2 -55t3 -53.5t1.5 -48v-34q-60 -9 -79 -6l9 38q-2 63 -4 114.5t-5 103.5t-7.5 109t-10.5 129q-4 42 -6.5 70t-5 48.5t-4 37.5t-3.5 36.5t-3.5 44.5t-3.5 62q32 12 79 4
q-2 -19 -1.5 -53t2.5 -75t6 -85.5t8 -83.5l15 -173l73 70q18 18 41 43t50 58q39 48 60.5 73.5t26.5 30.5q10 -24 25 -45.5t26 -44.5q-32 -19 -64 -47.5t-55 -48.5q-15 -14 -45 -51q13 -33 30.5 -73.5t37.5 -81t43 -76.5t47 -60l21 -21z" />
    <glyph glyph-name="glyph294" horiz-adv-x="208" 
d="M84 -20q0 52 -1 104q-1 45 -1.5 94.5t-2.5 90.5q-3 67 -6 119.5t-6.5 101t-9.5 100.5t-15 119l-4 34q25 12 92 7v-64q1 -57 2.5 -103t4 -92.5t5 -99t6.5 -121.5q1 -27 0.5 -66t0.5 -80t4 -78t11 -59z" />
    <glyph glyph-name="glyph295" horiz-adv-x="749" 
d="M625 23q3 16 5 43t2.5 58.5t-0.5 65t-3.5 65t-7 57t-10.5 41.5q-13 32 -25 47.5t-31 18.5q-39 8 -64 -10.5t-39 -50t-20 -68.5t-7 -65q-1 -18 -1 -44.5t1 -54t3 -54.5t5 -47l-86 6q2 17 6 45t5 61q0 17 -0.5 29.5t-1 22.5t-0.5 18.5v18.5q1 22 4 50.5t0 56t-14.5 50
t-39.5 33.5q-23 9 -47 -1.5t-47.5 -30t-44 -43t-35.5 -41.5v-62q0 -13 -1 -23.5t-1.5 -22t-1.5 -24t-1 -29.5q-1 -17 -1 -35v-33q0 -18 1 -34l-70 -6v42v44t2 52q0 6 1.5 16.5t3 21.5t2.5 21t1 15q0 13 -1 31.5t-3 39.5t-4.5 43.5t-3.5 43.5q-2 19 -4.5 32t-5.5 22
q-4 10 -8 17q9 5 30 15t42 16q6 -18 10 -36q4 -16 7.5 -36.5t4.5 -41.5q14 20 34.5 44t46 41.5t56 25t63.5 -5.5q31 -11 54 -32.5t34 -55.5q28 42 60.5 66.5t64.5 26.5q35 2 65 -12.5t53 -43.5q12 -16 18.5 -37.5t9.5 -47t3.5 -54t1.5 -58.5q0 -26 2 -54.5t3.5 -58t1 -58
t-5.5 -54.5z" />
    <glyph glyph-name="glyph296" horiz-adv-x="458" 
d="M414 223q-3 -19 -5.5 -51t-4.5 -67t-2.5 -67.5t0.5 -53.5l-85 16q4 17 5 48t5 65q4 35 10 67.5t8 52.5q3 22 8 49.5t3.5 54.5t-12.5 49.5t-39 33.5q-23 9 -47 -2t-47 -31t-43.5 -44t-36.5 -43q2 -38 0 -63q0 -26 -1.5 -63.5t-3.5 -72.5q-1 -18 -0.5 -36.5t0.5 -33.5
q0 -18 1 -34l-71 -6q2 52 5 100q2 41 3.5 83t2.5 68q0 26 -2 67.5t-4 82.5q-3 48 -7 99q10 2 31 4t42 0q0 -15 1 -33q1 -15 1 -35t1 -42q14 21 34.5 45.5t46 42.5t56 25.5t63.5 -5.5q46 -18 67 -48.5t26 -67.5t0.5 -77.5t-9.5 -76.5z" />
    <glyph glyph-name="glyph297" horiz-adv-x="463" 
d="M368 277q0 27 -12 55.5t-32 52.5t-46.5 39.5t-55.5 15.5q-32 0 -54 -18t-36 -44t-20.5 -56t-6.5 -55q0 -32 6.5 -62.5t21.5 -54t41 -38t65 -14.5q31 0 55 18.5t40.5 45.5t25 58t8.5 57zM230 23q-51 0 -89.5 21t-63.5 55.5t-37.5 79t-12.5 90.5q0 45 13.5 87t40 74.5
t64 52.5t85.5 20q47 0 84.5 -17.5t63.5 -47.5t40 -70t14 -85t-12.5 -91.5t-37.5 -84t-63 -61t-89 -23.5z" />
    <glyph glyph-name="glyph298" horiz-adv-x="483" 
d="M374 335q0 35 -10 55q-43 88 -85 85q-48 -3 -92 -33q-43 -29 -59 -74l-8 -23v-133l16 -13q68 -53 111 -50q28 1 50.5 17.5t41.5 47.5q35 58 35 121zM442 325q0 -71 -34 -133q-59 -110 -161 -110q-59 0 -127 46l-1 -45v-64v-46.5v-37.5t-1 -36.5t-2.5 -45.5t-4.5 -63
q-38 -3 -69 6q6 75 7 143.5t1 143.5v29.5t1 77.5v167q0 109 -22 178q46 27 79 27q12 0 26 -3q-2 -8 -4 -28t-4 -52q71 65 148 65q60 0 100 -43q68 -74 68 -176z" />
    <glyph glyph-name="glyph299" horiz-adv-x="550" 
d="M392 296q0 32 -11 60t-30.5 48.5t-47 32t-61.5 11.5q-35 0 -63 -16.5t-47.5 -43.5t-29.5 -62t-10 -72q0 -30 12.5 -53.5t33 -39t47 -23.5t54.5 -8q15 0 32 2t30 11q38 25 64.5 66t26.5 87zM662 -159q-14 -17 -24.5 -28t-22.5 -17.5t-27.5 -9.5t-37.5 -3q-33 0 -60.5 18
t-48.5 41q-13 14 -20.5 36t-12 47t-6 49t-1.5 42q0 25 5 49.5t5 49.5q0 19 -3 37q-18 -24 -36 -41.5t-38.5 -28.5t-44.5 -16.5t-55 -5.5q-37 0 -74.5 15t-67.5 41t-48.5 60.5t-18.5 73.5q0 52 12 100.5t38.5 85.5t67.5 59.5t99 22.5q47 0 94.5 -23t78.5 -58q3 27 6.5 54
t7.5 54l13 1q30 0 56 -10q-8 -63 -14.5 -125.5t-6.5 -126.5q0 -70 -5.5 -139t-5.5 -139q0 -21 4.5 -47t15.5 -48.5t29 -38t45 -15.5q19 0 31 4t25 18z" />
    <glyph glyph-name="glyph300" horiz-adv-x="387" 
d="M354 356q-12 -1 -24 -1h-22.5t-21.5 2v32q0 34 -14.5 50.5t-33.5 16.5q-12 0 -19.5 -1t-16 -6.5t-20.5 -17.5t-31 -34q-5 -6 -11 -16l-12 -20t-11.5 -19t-9.5 -13q-2 -25 -2.5 -63.5t1.5 -92.5q1 -38 2 -74.5t3 -74.5l1 -36l-90 8l7 34v31.5t0.5 32t1 29t1.5 22.5
q3 26 4 86t1 156q0 88 -6 147l89 26l-5 -35q-1 -9 -3 -28.5t-2 -39.5q21 23 35 36.5t26 20t24 9t28 2.5q56 2 92 -38q17 -17 29 -38.5t11 -47.5z" />
    <glyph glyph-name="glyph301" horiz-adv-x="404" 
d="M379 135q0 -40 -15 -73.5t-41 -57.5t-61 -37.5t-75 -13.5q-54 0 -86 15t-48 42.5t-20 65t-3 82.5l75 -2q-8 -29 -10 -54t6.5 -43t30.5 -28.5t61 -10.5q26 0 48 10t38 27t25 39t9 47q0 40 -20.5 64t-52 40t-67.5 28.5t-67.5 30t-52.5 44.5t-21 71t13 72.5t35 44.5t50.5 22
t58.5 6q26 0 49.5 -2.5t41 -16t28 -41.5t12.5 -78l-71 -6q-2 12 -7 26t-12.5 25t-18 18.5t-23.5 7.5q-15 0 -31 -2.5t-28.5 -11t-20.5 -24.5t-6 -42q1 -26 22.5 -41t52 -27.5t66 -26t66 -36.5t50.5 -59.5t20 -93.5z" />
    <glyph glyph-name="glyph302" horiz-adv-x="402" 
d="M373 365q-32 -4 -80.5 -2.5t-114.5 -3.5q0 -11 0.5 -57t0.5 -146q0 -106 45 -106q43 0 63 78q27 3 48 -19q-38 -153 -128 -153q-13 0 -26 3q-74 15 -72 150v47t1 85v113q-4 0 -14 -1t-23 -2t-27 -2t-26 -2v69q8 0 20.5 0.5t25 1.5t24 2t17.5 2q-1 71 3.5 140t10.5 140
q42 4 69 -6q-5 -67 -10 -133t-4 -134q39 4 78.5 7.5t79.5 6.5l34 2q7 -14 8 -37t-3 -43z" />
    <glyph glyph-name="glyph303" horiz-adv-x="457" 
d="M411 39q-12 -5 -28.5 -8.5t-37.5 -3.5q-9 33 -12.5 61t-8.5 64q-30 -56 -75 -86q-47 -32 -93 -32q-117 0 -117 168q0 13 1.5 34t3.5 45.5t4.5 50t4.5 47.5q1 15 2.5 33t2 36.5t1.5 36.5t3 33q43 1 67 -5q-3 -41 -6 -85.5t-6 -84.5t-4.5 -71t-1.5 -44q0 -19 0.5 -39.5
t6 -37t18.5 -27t39 -10.5q29 0 63 23q18 12 29.5 27t19 32t12 35.5t8.5 39.5q2 10 3.5 29t2.5 42.5t2 49t1.5 47t1 37.5t0.5 20q37 7 67 -2q-3 -48 -4 -94t0 -85.5t2.5 -71t3.5 -49.5q5 -42 9 -81t15 -74z" />
    <glyph glyph-name="glyph304" horiz-adv-x="518" 
d="M486 403q-10 -20 -29 -60.5t-44.5 -96t-57 -122t-65.5 -137.5q-16 25 -37.5 57.5t-50.5 74.5q-11 17 -23.5 38t-24.5 44t-24.5 47.5t-24.5 50.5q-22 43 -44.5 86.5t-45.5 88.5q38 29 87 35q11 -31 31 -79.5t49 -115.5q26 -63 51 -104.5t46 -73.5q10 21 25 56t34 76t40 85
t43 84l29 54l65 -33z" />
    <glyph glyph-name="glyph305" horiz-adv-x="708" 
d="M672 471q-8 -35 -23 -94.5t-40 -141.5q-13 -44 -43 -107.5t-58 -148.5l-36 -6q-8 9 -21 35t-27 56t-27.5 58t-22.5 42l-57 99q-18 -42 -35 -77.5t-33 -67t-32.5 -60.5t-32.5 -58h-52l-52 221q-18 75 -40.5 142.5t-51.5 129.5q16 11 26 17.5t15 9.5q18 8 46 16l99 -418
q34 58 70 146q8 19 14 34t12 29t11.5 29t13.5 34l62 3q7 -24 14 -44.5t15.5 -40t19 -40.5t25.5 -46q5 -9 11.5 -22.5t14 -28.5t15 -28.5t14.5 -22.5q34 70 62.5 161.5t55.5 204.5l8 34l67 -15z" />
    <glyph glyph-name="glyph306" horiz-adv-x="472" 
d="M389 32q-8 9 -25 30t-39 47.5t-46 54t-44 50.5q-9 -15 -24 -37t-33 -48.5t-37 -55.5t-37 -58q-29 9 -63 38q9 17 25 41t35.5 52.5t40.5 59.5t40 63q-12 12 -32.5 35t-45 51.5t-51.5 59t-51 56.5q9 11 15 18.5t11 11.5q9 9 29 19l24 -27q7 -8 23.5 -26.5t37 -42
t42.5 -48.5t41 -45q29 35 68 87.5t94 124.5q19 -10 33.5 -20.5t27.5 -23.5l-170 -223q13 -14 33.5 -38.5t43.5 -52.5t47 -56t43 -49l24 -26q-16 -38 -57 -49z" />
    <glyph glyph-name="glyph307" horiz-adv-x="521" 
d="M488 493q-26 -53 -53 -114.5t-54 -126.5t-53.5 -131t-50 -127t-44.5 -114.5t-36 -93.5q-42 1 -64 27q7 16 11.5 25t9 19.5t11 26.5t17.5 48q7 19 12 34t10 31t11.5 34.5t15.5 44.5q-25 15 -46 40t-39 55t-33.5 62t-28.5 61q-26 57 -43.5 107.5t-18.5 100.5q35 22 81 14
q5 -51 19 -98t36 -92q12 -24 22 -51.5t21.5 -53.5t24.5 -48t31 -34q23 54 47.5 111.5t48.5 112t46.5 103.5t41.5 88q41 -5 62 -30z" />
    <glyph glyph-name="glyph308" horiz-adv-x="508" 
d="M463 133q13 -33 -4 -80l-35 2q-20 2 -43 0q-51 -1 -126.5 -23.5t-158.5 -57.5l-36 50q9 15 26 45t39 67.5t47 80t50 82.5t48.5 75t41.5 57q-32 -10 -67 -16.5t-70.5 -10t-69 -6t-63.5 -4.5l-12 69q43 8 105 15t120 14q68 7 139 15l8 -64q-20 -28 -41 -59t-41 -60.5
t-36.5 -55.5t-26.5 -43q-8 -16 -18.5 -33.5t-20.5 -35t-19 -34.5t-15 -32q120 47 208 47h18t19 -1z" />
    </font>
</defs>
</svg>
